0
SECTION
2
HEADER
9
$INSUNITS
70
4
9
$ACADVER
1
AC1014
9
$HANDSEED
5
FFFF
0
ENDSEC
0
SECTION
2
TABLES
0
TABLE
2
VPORT
5
8
100
AcDbSymbolTable
0
ENDTAB
0
TABLE
2
LTYPE
5
5
100
AcDbSymbolTable
0
LTYPE
5
14
100
AcDbSymbolTableRecord
100
AcDbLinetypeTableRecord
2
BYBLOCK
70
0
0
LTYPE
5
15
100
AcDbSymbolTableRecord
100
AcDbLinetypeTableRecord
2
BYLAYER
70
0
0
ENDTAB
0
TABLE
2
LAYER
5
2
100
AcDbSymbolTable
70
2
0
LAYER
5
50
100
AcDbSymbolTableRecord
100
AcDbLayerTableRecord
2
0
70
0
6
CONTINUOUS
0
ENDTAB
0
TABLE
2
STYLE
5
3
100
AcDbSymbolTable
70
1
0
STYLE
5
11
100
AcDbSymbolTableRecord
100
AcDbTextStyleTableRecord
2
STANDARD
70
0
0
ENDTAB
0
TABLE
2
VIEW
5
6
100
AcDbSymbolTable
70
0
0
ENDTAB
0
TABLE
2
UCS
5
7
100
AcDbSymbolTable
70
0
0
ENDTAB
0
TABLE
2
APPID
5
9
100
AcDbSymbolTable
70
2
0
APPID
5
12
100
AcDbSymbolTableRecord
100
AcDbRegAppTableRecord
2
ACAD
70
0
0
ENDTAB
0
TABLE
2
DIMSTYLE
5
A
100
AcDbSymbolTable
70
1
0
ENDTAB
0
TABLE
2
BLOCK_RECORD
5
1
100
AcDbSymbolTable
70
1
0
BLOCK_RECORD
5
1F
100
AcDbSymbolTableRecord
100
AcDbBlockTableRecord
2
*MODEL_SPACE
0
BLOCK_RECORD
5
1B
100
AcDbSymbolTableRecord
100
AcDbBlockTableRecord
2
*PAPER_SPACE
0
ENDTAB
0
ENDSEC
0
SECTION
2
BLOCKS
0
BLOCK
5
20
100
AcDbEntity
100
AcDbBlockBegin
2
*MODEL_SPACE
0
ENDBLK
5
21
100
AcDbEntity
100
AcDbBlockEnd
0
BLOCK
5
1C
100
AcDbEntity
100
AcDbBlockBegin
2
*PAPER_SPACE
0
ENDBLK
5
1D
100
AcDbEntity
100
AcDbBlockEnd
0
ENDSEC
0
SECTION
2
ENTITIES
0
LWPOLYLINE
5
100
100
AcDbEntity
8
0
100
AcDbPolyline
90
14
70
1
43
0.0
10
5
20
50
10
59
20
50
10
59
20
48.399999999999999
10
55.799999999999997
20
48.399999999999999
10
55.799999999999997
20
33.399999999999999
10
59
20
33.399999999999999
10
59
20
10.200000000000014
42
-0.41421356237308815
10
56
20
7.2000000000000064
10
7.9999999999999982
20
7.2000000000000064
42
-0.41421356237309076
10
5
20
10.200000000000014
10
5
20
33.399999999999999
10
8.2000000000000028
20
33.399999999999999
10
8.2000000000000028
20
48.399999999999999
10
5
20
48.399999999999999
0
LINE
5
101
100
AcDbEntity
8
0
100
AcDbLine
10
0
20
0
30
0
11
600
21
0
31
0
0
LINE
5
102
100
AcDbEntity
8
0
100
AcDbLine
10
0
20
400
30
0
11
0
21
0
31
0
0
LWPOLYLINE
5
103
100
AcDbEntity
8
0
100
AcDbPolyline
90
14
70
1
43
0.0
10
63.333333333333329
20
48.399999999999999
10
63.333333333333329
20
50
10
117.33333333333334
20
50
10
117.33333333333334
20
48.399999999999999
10
114.13333333333334
20
48.399999999999999
10
114.13333333333334
20
33.399999999999999
10
117.33333333333334
20
33.399999999999999
10
117.33333333333334
20
10.200000000000014
42
-0.41421356237308815
10
114.33333333333334
20
7.2000000000000064
10
66.333333333333329
20
7.2000000000000064
42
-0.41421356237309076
10
63.333333333333329
20
10.200000000000014
10
63.333333333333329
20
33.399999999999999
10
66.533333333333331
20
33.399999999999999
10
66.533333333333331
20
48.399999999999999
0
LWPOLYLINE
5
104
100
AcDbEntity
8
0
100
AcDbPolyline
90
14
70
1
43
0.0
10
121.66666666666666
20
48.399999999999999
10
121.66666666666666
20
50
10
175.66666666666666
20
50
10
175.66666666666666
20
48.399999999999999
10
172.46666666666667
20
48.399999999999999
10
172.46666666666667
20
33.399999999999999
10
175.66666666666666
20
33.399999999999999
10
175.66666666666666
20
10.200000000000014
42
-0.41421356237308815
10
172.66666666666666
20
7.2000000000000064
10
124.66666666666666
20
7.2000000000000064
42
-0.41421356237308982
10
121.66666666666666
20
10.200000000000014
10
121.66666666666666
20
33.399999999999999
10
124.86666666666666
20
33.399999999999999
10
124.86666666666666
20
48.399999999999999
0
LWPOLYLINE
5
105
100
AcDbEntity
8
0
100
AcDbPolyline
90
14
70
1
43
0.0
10
180
20
48.399999999999999
10
180
20
50
10
234
20
50
10
234
20
48.399999999999999
10
230.79999999999998
20
48.399999999999999
10
230.79999999999998
20
33.399999999999999
10
234
20
33.399999999999999
10
234
20
10.200000000000014
42
-0.4142135623730846
10
231
20
7.2000000000000064
10
183
20
7.2000000000000064
42
-0.41421356237308982
10
180
20
10.200000000000014
10
180
20
33.399999999999999
10
183.19999999999999
20
33.399999999999999
10
183.19999999999999
20
48.399999999999999
0
LWPOLYLINE
5
106
100
AcDbEntity
8
0
100
AcDbPolyline
90
14
70
1
43
0.0
10
238.33333333333331
20
48.399999999999999
10
238.33333333333331
20
50
10
292.33333333333337
20
50
10
292.33333333333337
20
48.399999999999999
10
289.13333333333333
20
48.399999999999999
10
289.13333333333333
20
33.399999999999999
10
292.33333333333337
20
33.399999999999999
10
292.33333333333337
20
10.200000000000014
42
-0.41421356237309159
10
289.33333333333331
20
7.2000000000000064
10
241.33333333333331
20
7.2000000000000064
42
-0.41421356237309337
10
238.33333333333331
20
10.200000000000014
10
238.33333333333331
20
33.399999999999999
10
241.53333333333333
20
33.399999999999999
10
241.53333333333333
20
48.399999999999999
0
LWPOLYLINE
5
107
100
AcDbEntity
8
0
100
AcDbPolyline
90
14
70
1
43
0.0
10
296.66666666666663
20
48.399999999999999
10
296.66666666666663
20
50
10
350.66666666666663
20
50
10
350.66666666666663
20
48.399999999999999
10
347.46666666666664
20
48.399999999999999
10
347.46666666666664
20
33.399999999999999
10
350.66666666666663
20
33.399999999999999
10
350.66666666666663
20
10.200000000000014
42
-0.4142135623730846
10
347.66666666666663
20
7.2000000000000064
10
299.66666666666663
20
7.2000000000000064
42
-0.41421356237308982
10
296.66666666666663
20
10.200000000000014
10
296.66666666666663
20
33.399999999999999
10
299.86666666666667
20
33.399999999999999
10
299.86666666666667
20
48.399999999999999
0
LWPOLYLINE
5
108
100
AcDbEntity
8
0
100
AcDbPolyline
90
14
70
1
43
0.0
10
355
20
48.399999999999999
10
355
20
50
10
409
20
50
10
409
20
48.399999999999999
10
405.79999999999995
20
48.399999999999999
10
405.79999999999995
20
33.399999999999999
10
409
20
33.399999999999999
10
409
20
10.200000000000014
42
-0.4142135623730846
10
406
20
7.2000000000000064
10
358
20
7.2000000000000064
42
-0.41421356237308637
10
355
20
10.200000000000014
10
355
20
33.399999999999999
10
358.19999999999999
20
33.399999999999999
10
358.19999999999999
20
48.399999999999999
0
LWPOLYLINE
5
109
100
AcDbEntity
8
0
100
AcDbPolyline
90
14
70
1
43
0.0
10
413.33333333333326
20
48.399999999999999
10
413.33333333333326
20
50
10
467.33333333333326
20
50
10
467.33333333333326
20
48.399999999999999
10
464.13333333333327
20
48.399999999999999
10
464.13333333333327
20
33.399999999999999
10
467.33333333333326
20
33.399999999999999
10
467.33333333333326
20
10.200000000000014
42
-0.4142135623730846
10
464.33333333333331
20
7.2000000000000064
10
416.33333333333326
20
7.2000000000000064
42
-0.41421356237308637
10
413.33333333333326
20
10.200000000000014
10
413.33333333333326
20
33.399999999999999
10
416.5333333333333
20
33.399999999999999
10
416.5333333333333
20
48.399999999999999
0
LWPOLYLINE
5
110
100
AcDbEntity
8
0
100
AcDbPolyline
90
14
70
1
43
0.0
10
471.66666666666663
20
48.399999999999999
10
471.66666666666663
20
50
10
525.66666666666663
20
50
10
525.66666666666663
20
48.399999999999999
10
522.46666666666658
20
48.399999999999999
10
522.46666666666658
20
33.399999999999999
10
525.66666666666663
20
33.399999999999999
10
525.66666666666663
20
10.200000000000014
42
-0.4142135623730846
10
522.66666666666663
20
7.2000000000000064
10
474.66666666666663
20
7.2000000000000064
42
-0.41421356237308637
10
471.66666666666663
20
10.200000000000014
10
471.66666666666663
20
33.399999999999999
10
474.86666666666667
20
33.399999999999999
10
474.86666666666667
20
48.399999999999999
0
LWPOLYLINE
5
111
100
AcDbEntity
8
0
100
AcDbPolyline
90
14
70
1
43
0.0
10
530
20
48.399999999999999
10
530
20
50
10
584
20
50
10
584
20
48.399999999999999
10
580.79999999999995
20
48.399999999999999
10
580.79999999999995
20
33.399999999999999
10
584
20
33.399999999999999
10
584
20
10.200000000000014
42
-0.4142135623730846
10
581
20
7.2000000000000064
10
533
20
7.2000000000000064
42
-0.41421356237308637
10
530
20
10.200000000000014
10
530
20
33.399999999999999
10
533.20000000000005
20
33.399999999999999
10
533.20000000000005
20
48.399999999999999
0
LWPOLYLINE
5
112
100
AcDbEntity
8
0
100
AcDbPolyline
90
14
70
1
43
0.0
10
5
20
55.171428571428571
10
5
20
53.571428571428569
10
59
20
53.571428571428569
10
59
20
55.171428571428571
10
55.799999999999997
20
55.171428571428571
10
55.799999999999997
20
70.171428571428564
10
59
20
70.171428571428564
10
59
20
93.371428571428538
42
0.41421356237308815
10
56
20
96.371428571428552
10
7.9999999999999982
20
96.371428571428552
42
0.41421356237309243
10
5
20
93.371428571428538
10
5
20
70.171428571428564
10
8.2000000000000028
20
70.171428571428564
10
8.2000000000000028
20
55.171428571428571
0
LWPOLYLINE
5
113
100
AcDbEntity
8
0
100
AcDbPolyline
90
14
70
1
43
0.0
10
63.333333333333329
20
55.171428571428571
10
63.333333333333329
20
53.571428571428569
10
117.33333333333334
20
53.571428571428569
10
117.33333333333334
20
55.171428571428571
10
114.13333333333334
20
55.171428571428571
10
114.13333333333334
20
70.171428571428564
10
117.33333333333334
20
70.171428571428564
10
117.33333333333334
20
93.371428571428538
42
0.41421356237308815
10
114.33333333333334
20
96.371428571428552
10
66.333333333333329
20
96.371428571428552
42
0.41421356237309243
10
63.333333333333329
20
93.371428571428538
10
63.333333333333329
20
70.171428571428564
10
66.533333333333331
20
70.171428571428564
10
66.533333333333331
20
55.171428571428571
0
LWPOLYLINE
5
114
100
AcDbEntity
8
0
100
AcDbPolyline
90
14
70
1
43
0.0
10
121.66666666666666
20
55.171428571428571
10
121.66666666666666
20
53.571428571428569
10
175.66666666666666
20
53.571428571428569
10
175.66666666666666
20
55.171428571428571
10
172.46666666666667
20
55.171428571428571
10
172.46666666666667
20
70.171428571428564
10
175.66666666666666
20
70.171428571428564
10
175.66666666666666
20
93.371428571428538
42
0.41421356237308815
10
172.66666666666666
20
96.371428571428552
10
124.66666666666666
20
96.371428571428552
42
0.41421356237309159
10
121.66666666666666
20
93.371428571428538
10
121.66666666666666
20
70.171428571428564
10
124.86666666666666
20
70.171428571428564
10
124.86666666666666
20
55.171428571428571
0
LWPOLYLINE
5
115
100
AcDbEntity
8
0
100
AcDbPolyline
90
14
70
1
43
0.0
10
180
20
55.171428571428571
10
180
20
53.571428571428569
10
234
20
53.571428571428569
10
234
20
55.171428571428571
10
230.79999999999998
20
55.171428571428571
10
230.79999999999998
20
70.171428571428564
10
234
20
70.171428571428564
10
234
20
93.371428571428538
42
0.4142135623730846
10
231
20
96.371428571428552
10
183
20
96.371428571428552
42
0.41421356237309159
10
180
20
93.371428571428538
10
180
20
70.171428571428564
10
183.19999999999999
20
70.171428571428564
10
183.19999999999999
20
55.171428571428571
0
LWPOLYLINE
5
116
100
AcDbEntity
8
0
100
AcDbPolyline
90
14
70
1
43
0.0
10
238.33333333333331
20
55.171428571428571
10
238.33333333333331
20
53.571428571428569
10
292.33333333333337
20
53.571428571428569
10
292.33333333333337
20
55.171428571428571
10
289.13333333333333
20
55.171428571428571
10
289.13333333333333
20
70.171428571428564
10
292.33333333333337
20
70.171428571428564
10
292.33333333333337
20
93.371428571428538
42
0.41421356237309159
10
289.33333333333331
20
96.371428571428552
10
241.33333333333331
20
96.371428571428552
42
0.41421356237309503
10
238.33333333333331
20
93.371428571428538
10
238.33333333333331
20
70.171428571428564
10
241.53333333333333
20
70.171428571428564
10
241.53333333333333
20
55.171428571428571
0
LWPOLYLINE
5
117
100
AcDbEntity
8
0
100
AcDbPolyline
90
14
70
1
43
0.0
10
296.66666666666663
20
55.171428571428571
10
296.66666666666663
20
53.571428571428569
10
350.66666666666663
20
53.571428571428569
10
350.66666666666663
20
55.171428571428571
10
347.46666666666664
20
55.171428571428571
10
347.46666666666664
20
70.171428571428564
10
350.66666666666663
20
70.171428571428564
10
350.66666666666663
20
93.371428571428538
42
0.4142135623730846
10
347.66666666666663
20
96.371428571428552
10
299.66666666666663
20
96.371428571428552
42
0.41421356237309159
10
296.66666666666663
20
93.371428571428538
10
296.66666666666663
20
70.171428571428564
10
299.86666666666667
20
70.171428571428564
10
299.86666666666667
20
55.171428571428571
0
LWPOLYLINE
5
118
100
AcDbEntity
8
0
100
AcDbPolyline
90
14
70
1
43
0.0
10
355
20
55.171428571428571
10
355
20
53.571428571428569
10
409
20
53.571428571428569
10
409
20
55.171428571428571
10
405.79999999999995
20
55.171428571428571
10
405.79999999999995
20
70.171428571428564
10
409
20
70.171428571428564
10
409
20
93.371428571428538
42
0.4142135623730846
10
406
20
96.371428571428552
10
358
20
96.371428571428552
42
0.41421356237308815
10
355
20
93.371428571428538
10
355
20
70.171428571428564
10
358.19999999999999
20
70.171428571428564
10
358.19999999999999
20
55.171428571428571
0
LWPOLYLINE
5
119
100
AcDbEntity
8
0
100
AcDbPolyline
90
14
70
1
43
0.0
10
413.33333333333326
20
55.171428571428571
10
413.33333333333326
20
53.571428571428569
10
467.33333333333326
20
53.571428571428569
10
467.33333333333326
20
55.171428571428571
10
464.13333333333327
20
55.171428571428571
10
464.13333333333327
20
70.171428571428564
10
467.33333333333326
20
70.171428571428564
10
467.33333333333326
20
93.371428571428538
42
0.4142135623730846
10
464.33333333333331
20
96.371428571428552
10
416.33333333333326
20
96.371428571428552
42
0.41421356237308815
10
413.33333333333326
20
93.371428571428538
10
413.33333333333326
20
70.171428571428564
10
416.5333333333333
20
70.171428571428564
10
416.5333333333333
20
55.171428571428571
0
LWPOLYLINE
5
120
100
AcDbEntity
8
0
100
AcDbPolyline
90
14
70
1
43
0.0
10
471.66666666666663
20
55.171428571428571
10
471.66666666666663
20
53.571428571428569
10
525.66666666666663
20
53.571428571428569
10
525.66666666666663
20
55.171428571428571
10
522.46666666666658
20
55.171428571428571
10
522.46666666666658
20
70.171428571428564
10
525.66666666666663
20
70.171428571428564
10
525.66666666666663
20
93.371428571428538
42
0.4142135623730846
10
522.66666666666663
20
96.371428571428552
10
474.66666666666663
20
96.371428571428552
42
0.41421356237308815
10
471.66666666666663
20
93.371428571428538
10
471.66666666666663
20
70.171428571428564
10
474.86666666666667
20
70.171428571428564
10
474.86666666666667
20
55.171428571428571
0
LWPOLYLINE
5
121
100
AcDbEntity
8
0
100
AcDbPolyline
90
14
70
1
43
0.0
10
530
20
55.171428571428571
10
530
20
53.571428571428569
10
584
20
53.571428571428569
10
584
20
55.171428571428571
10
580.79999999999995
20
55.171428571428571
10
580.79999999999995
20
70.171428571428564
10
584
20
70.171428571428564
10
584
20
93.371428571428538
42
0.4142135623730846
10
581
20
96.371428571428552
10
533
20
96.371428571428552
42
0.41421356237308815
10
530
20
93.371428571428538
10
530
20
70.171428571428564
10
533.20000000000005
20
70.171428571428564
10
533.20000000000005
20
55.171428571428571
0
LWPOLYLINE
5
122
100
AcDbEntity
8
0
100
AcDbPolyline
90
14
70
1
43
0.0
10
5
20
145.54285714285714
10
5
20
147.14285714285714
10
59
20
147.14285714285714
10
59
20
145.54285714285714
10
55.799999999999997
20
145.54285714285714
10
55.799999999999997
20
130.54285714285714
10
59
20
130.54285714285714
10
59
20
107.34285714285716
42
-0.41421356237308815
10
56
20
104.34285714285714
10
7.9999999999999982
20
104.34285714285714
42
-0.41421356237309076
10
5
20
107.34285714285716
10
5
20
130.54285714285714
10
8.2000000000000028
20
130.54285714285714
10
8.2000000000000028
20
145.54285714285714
0
LWPOLYLINE
5
123
100
AcDbEntity
8
0
100
AcDbPolyline
90
14
70
1
43
0.0
10
63.333333333333329
20
145.54285714285714
10
63.333333333333329
20
147.14285714285714
10
117.33333333333334
20
147.14285714285714
10
117.33333333333334
20
145.54285714285714
10
114.13333333333334
20
145.54285714285714
10
114.13333333333334
20
130.54285714285714
10
117.33333333333334
20
130.54285714285714
10
117.33333333333334
20
107.34285714285716
42
-0.41421356237308815
10
114.33333333333334
20
104.34285714285714
10
66.333333333333329
20
104.34285714285714
42
-0.41421356237309076
10
63.333333333333329
20
107.34285714285716
10
63.333333333333329
20
130.54285714285714
10
66.533333333333331
20
130.54285714285714
10
66.533333333333331
20
145.54285714285714
0
LWPOLYLINE
5
124
100
AcDbEntity
8
0
100
AcDbPolyline
90
14
70
1
43
0.0
10
121.66666666666666
20
145.54285714285714
10
121.66666666666666
20
147.14285714285714
10
175.66666666666666
20
147.14285714285714
10
175.66666666666666
20
145.54285714285714
10
172.46666666666667
20
145.54285714285714
10
172.46666666666667
20
130.54285714285714
10
175.66666666666666
20
130.54285714285714
10
175.66666666666666
20
107.34285714285716
42
-0.41421356237308815
10
172.66666666666666
20
104.34285714285714
10
124.66666666666666
20
104.34285714285714
42
-0.41421356237308982
10
121.66666666666666
20
107.34285714285716
10
121.66666666666666
20
130.54285714285714
10
124.86666666666666
20
130.54285714285714
10
124.86666666666666
20
145.54285714285714
0
LWPOLYLINE
5
125
100
AcDbEntity
8
0
100
AcDbPolyline
90
14
70
1
43
0.0
10
180
20
145.54285714285714
10
180
20
147.14285714285714
10
234
20
147.14285714285714
10
234
20
145.54285714285714
10
230.79999999999998
20
145.54285714285714
10
230.79999999999998
20
130.54285714285714
10
234
20
130.54285714285714
10
234
20
107.34285714285716
42
-0.4142135623730846
10
231
20
104.34285714285714
10
183
20
104.34285714285714
42
-0.41421356237308982
10
180
20
107.34285714285716
10
180
20
130.54285714285714
10
183.19999999999999
20
130.54285714285714
10
183.19999999999999
20
145.54285714285714
0
LWPOLYLINE
5
126
100
AcDbEntity
8
0
100
AcDbPolyline
90
14
70
1
43
0.0
10
238.33333333333331
20
145.54285714285714
10
238.33333333333331
20
147.14285714285714
10
292.33333333333337
20
147.14285714285714
10
292.33333333333337
20
145.54285714285714
10
289.13333333333333
20
145.54285714285714
10
289.13333333333333
20
130.54285714285714
10
292.33333333333337
20
130.54285714285714
10
292.33333333333337
20
107.34285714285716
42
-0.41421356237309159
10
289.33333333333331
20
104.34285714285714
10
241.33333333333331
20
104.34285714285714
42
-0.41421356237309337
10
238.33333333333331
20
107.34285714285716
10
238.33333333333331
20
130.54285714285714
10
241.53333333333333
20
130.54285714285714
10
241.53333333333333
20
145.54285714285714
0
LWPOLYLINE
5
127
100
AcDbEntity
8
0
100
AcDbPolyline
90
14
70
1
43
0.0
10
296.66666666666663
20
145.54285714285714
10
296.66666666666663
20
147.14285714285714
10
350.66666666666663
20
147.14285714285714
10
350.66666666666663
20
145.54285714285714
10
347.46666666666664
20
145.54285714285714
10
347.46666666666664
20
130.54285714285714
10
350.66666666666663
20
130.54285714285714
10
350.66666666666663
20
107.34285714285716
42
-0.4142135623730846
10
347.66666666666663
20
104.34285714285714
10
299.66666666666663
20
104.34285714285714
42
-0.41421356237308982
10
296.66666666666663
20
107.34285714285716
10
296.66666666666663
20
130.54285714285714
10
299.86666666666667
20
130.54285714285714
10
299.86666666666667
20
145.54285714285714
0
LWPOLYLINE
5
128
100
AcDbEntity
8
0
100
AcDbPolyline
90
14
70
1
43
0.0
10
355
20
145.54285714285714
10
355
20
147.14285714285714
10
409
20
147.14285714285714
10
409
20
145.54285714285714
10
405.79999999999995
20
145.54285714285714
10
405.79999999999995
20
130.54285714285714
10
409
20
130.54285714285714
10
409
20
107.34285714285716
42
-0.4142135623730846
10
406
20
104.34285714285714
10
358
20
104.34285714285714
42
-0.41421356237308637
10
355
20
107.34285714285716
10
355
20
130.54285714285714
10
358.19999999999999
20
130.54285714285714
10
358.19999999999999
20
145.54285714285714
0
LWPOLYLINE
5
129
100
AcDbEntity
8
0
100
AcDbPolyline
90
14
70
1
43
0.0
10
413.33333333333326
20
145.54285714285714
10
413.33333333333326
20
147.14285714285714
10
467.33333333333326
20
147.14285714285714
10
467.33333333333326
20
145.54285714285714
10
464.13333333333327
20
145.54285714285714
10
464.13333333333327
20
130.54285714285714
10
467.33333333333326
20
130.54285714285714
10
467.33333333333326
20
107.34285714285716
42
-0.4142135623730846
10
464.33333333333331
20
104.34285714285714
10
416.33333333333326
20
104.34285714285714
42
-0.41421356237308637
10
413.33333333333326
20
107.34285714285716
10
413.33333333333326
20
130.54285714285714
10
416.5333333333333
20
130.54285714285714
10
416.5333333333333
20
145.54285714285714
0
LWPOLYLINE
5
130
100
AcDbEntity
8
0
100
AcDbPolyline
90
14
70
1
43
0.0
10
471.66666666666663
20
145.54285714285714
10
471.66666666666663
20
147.14285714285714
10
525.66666666666663
20
147.14285714285714
10
525.66666666666663
20
145.54285714285714
10
522.46666666666658
20
145.54285714285714
10
522.46666666666658
20
130.54285714285714
10
525.66666666666663
20
130.54285714285714
10
525.66666666666663
20
107.34285714285716
42
-0.4142135623730846
10
522.66666666666663
20
104.34285714285714
10
474.66666666666663
20
104.34285714285714
42
-0.41421356237308637
10
471.66666666666663
20
107.34285714285716
10
471.66666666666663
20
130.54285714285714
10
474.86666666666667
20
130.54285714285714
10
474.86666666666667
20
145.54285714285714
0
LWPOLYLINE
5
131
100
AcDbEntity
8
0
100
AcDbPolyline
90
14
70
1
43
0.0
10
530
20
145.54285714285714
10
530
20
147.14285714285714
10
584
20
147.14285714285714
10
584
20
145.54285714285714
10
580.79999999999995
20
145.54285714285714
10
580.79999999999995
20
130.54285714285714
10
584
20
130.54285714285714
10
584
20
107.34285714285716
42
-0.4142135623730846
10
581
20
104.34285714285714
10
533
20
104.34285714285714
42
-0.41421356237308637
10
530
20
107.34285714285716
10
530
20
130.54285714285714
10
533.20000000000005
20
130.54285714285714
10
533.20000000000005
20
145.54285714285714
0
LWPOLYLINE
5
132
100
AcDbEntity
8
0
100
AcDbPolyline
90
14
70
1
43
0.0
10
5
20
152.31428571428569
10
5
20
150.71428571428569
10
59
20
150.71428571428569
10
59
20
152.31428571428569
10
55.799999999999997
20
152.31428571428569
10
55.799999999999997
20
167.31428571428569
10
59
20
167.31428571428569
10
59
20
190.51428571428568
42
0.41421356237309159
10
56
20
193.51428571428571
10
7.9999999999999982
20
193.51428571428571
42
0.41421356237309243
10
5
20
190.51428571428568
10
5
20
167.31428571428569
10
8.2000000000000028
20
167.31428571428569
10
8.2000000000000028
20
152.31428571428569
0
LWPOLYLINE
5
133
100
AcDbEntity
8
0
100
AcDbPolyline
90
14
70
1
43
0.0
10
63.333333333333329
20
152.31428571428569
10
63.333333333333329
20
150.71428571428569
10
117.33333333333334
20
150.71428571428569
10
117.33333333333334
20
152.31428571428569
10
114.13333333333334
20
152.31428571428569
10
114.13333333333334
20
167.31428571428569
10
117.33333333333334
20
167.31428571428569
10
117.33333333333334
20
190.51428571428568
42
0.41421356237309159
10
114.33333333333334
20
193.51428571428571
10
66.333333333333329
20
193.51428571428571
42
0.41421356237309243
10
63.333333333333329
20
190.51428571428568
10
63.333333333333329
20
167.31428571428569
10
66.533333333333331
20
167.31428571428569
10
66.533333333333331
20
152.31428571428569
0
LWPOLYLINE
5
134
100
AcDbEntity
8
0
100
AcDbPolyline
90
14
70
1
43
0.0
10
121.66666666666666
20
152.31428571428569
10
121.66666666666666
20
150.71428571428569
10
175.66666666666666
20
150.71428571428569
10
175.66666666666666
20
152.31428571428569
10
172.46666666666667
20
152.31428571428569
10
172.46666666666667
20
167.31428571428569
10
175.66666666666666
20
167.31428571428569
10
175.66666666666666
20
190.51428571428568
42
0.41421356237309159
10
172.66666666666666
20
193.51428571428571
10
124.66666666666666
20
193.51428571428571
42
0.41421356237309159
10
121.66666666666666
20
190.51428571428568
10
121.66666666666666
20
167.31428571428569
10
124.86666666666666
20
167.31428571428569
10
124.86666666666666
20
152.31428571428569
0
LWPOLYLINE
5
135
100
AcDbEntity
8
0
100
AcDbPolyline
90
14
70
1
43
0.0
10
180
20
152.31428571428569
10
180
20
150.71428571428569
10
234
20
150.71428571428569
10
234
20
152.31428571428569
10
230.79999999999998
20
152.31428571428569
10
230.79999999999998
20
167.31428571428569
10
234
20
167.31428571428569
10
234
20
190.51428571428568
42
0.41421356237308815
10
231
20
193.51428571428571
10
183
20
193.51428571428571
42
0.41421356237309159
10
180
20
190.51428571428568
10
180
20
167.31428571428569
10
183.19999999999999
20
167.31428571428569
10
183.19999999999999
20
152.31428571428569
0
LWPOLYLINE
5
136
100
AcDbEntity
8
0
100
AcDbPolyline
90
14
70
1
43
0.0
10
238.33333333333331
20
152.31428571428569
10
238.33333333333331
20
150.71428571428569
10
292.33333333333337
20
150.71428571428569
10
292.33333333333337
20
152.31428571428569
10
289.13333333333333
20
152.31428571428569
10
289.13333333333333
20
167.31428571428569
10
292.33333333333337
20
167.31428571428569
10
292.33333333333337
20
190.51428571428568
42
0.41421356237309503
10
289.33333333333331
20
193.51428571428571
10
241.33333333333331
20
193.51428571428571
42
0.41421356237309503
10
238.33333333333331
20
190.51428571428568
10
238.33333333333331
20
167.31428571428569
10
241.53333333333333
20
167.31428571428569
10
241.53333333333333
20
152.31428571428569
0
LWPOLYLINE
5
137
100
AcDbEntity
8
0
100
AcDbPolyline
90
14
70
1
43
0.0
10
296.66666666666663
20
152.31428571428569
10
296.66666666666663
20
150.71428571428569
10
350.66666666666663
20
150.71428571428569
10
350.66666666666663
20
152.31428571428569
10
347.46666666666664
20
152.31428571428569
10
347.46666666666664
20
167.31428571428569
10
350.66666666666663
20
167.31428571428569
10
350.66666666666663
20
190.51428571428568
42
0.41421356237308815
10
347.66666666666663
20
193.51428571428571
10
299.66666666666663
20
193.51428571428571
42
0.41421356237309159
10
296.66666666666663
20
190.51428571428568
10
296.66666666666663
20
167.31428571428569
10
299.86666666666667
20
167.31428571428569
10
299.86666666666667
20
152.31428571428569
0
LWPOLYLINE
5
138
100
AcDbEntity
8
0
100
AcDbPolyline
90
14
70
1
43
0.0
10
355
20
152.31428571428569
10
355
20
150.71428571428569
10
409
20
150.71428571428569
10
409
20
152.31428571428569
10
405.79999999999995
20
152.31428571428569
10
405.79999999999995
20
167.31428571428569
10
409
20
167.31428571428569
10
409
20
190.51428571428568
42
0.41421356237308815
10
406
20
193.51428571428571
10
358
20
193.51428571428571
42
0.41421356237308815
10
355
20
190.51428571428568
10
355
20
167.31428571428569
10
358.19999999999999
20
167.31428571428569
10
358.19999999999999
20
152.31428571428569
0
LWPOLYLINE
5
139
100
AcDbEntity
8
0
100
AcDbPolyline
90
14
70
1
43
0.0
10
413.33333333333326
20
152.31428571428569
10
413.33333333333326
20
150.71428571428569
10
467.33333333333326
20
150.71428571428569
10
467.33333333333326
20
152.31428571428569
10
464.13333333333327
20
152.31428571428569
10
464.13333333333327
20
167.31428571428569
10
467.33333333333326
20
167.31428571428569
10
467.33333333333326
20
190.51428571428568
42
0.41421356237308815
10
464.33333333333331
20
193.51428571428571
10
416.33333333333326
20
193.51428571428571
42
0.41421356237308815
10
413.33333333333326
20
190.51428571428568
10
413.33333333333326
20
167.31428571428569
10
416.5333333333333
20
167.31428571428569
10
416.5333333333333
20
152.31428571428569
0
LWPOLYLINE
5
140
100
AcDbEntity
8
0
100
AcDbPolyline
90
14
70
1
43
0.0
10
471.66666666666663
20
152.31428571428569
10
471.66666666666663
20
150.71428571428569
10
525.66666666666663
20
150.71428571428569
10
525.66666666666663
20
152.31428571428569
10
522.46666666666658
20
152.31428571428569
10
522.46666666666658
20
167.31428571428569
10
525.66666666666663
20
167.31428571428569
10
525.66666666666663
20
190.51428571428568
42
0.41421356237308815
10
522.66666666666663
20
193.51428571428571
10
474.66666666666663
20
193.51428571428571
42
0.41421356237308815
10
471.66666666666663
20
190.51428571428568
10
471.66666666666663
20
167.31428571428569
10
474.86666666666667
20
167.31428571428569
10
474.86666666666667
20
152.31428571428569
0
LWPOLYLINE
5
141
100
AcDbEntity
8
0
100
AcDbPolyline
90
14
70
1
43
0.0
10
530
20
152.31428571428569
10
530
20
150.71428571428569
10
584
20
150.71428571428569
10
584
20
152.31428571428569
10
580.79999999999995
20
152.31428571428569
10
580.79999999999995
20
167.31428571428569
10
584
20
167.31428571428569
10
584
20
190.51428571428568
42
0.41421356237308815
10
581
20
193.51428571428571
10
533
20
193.51428571428571
42
0.41421356237308815
10
530
20
190.51428571428568
10
530
20
167.31428571428569
10
533.20000000000005
20
167.31428571428569
10
533.20000000000005
20
152.31428571428569
0
LWPOLYLINE
5
142
100
AcDbEntity
8
0
100
AcDbPolyline
90
14
70
1
43
0.0
10
5
20
242.68571428571425
10
5
20
244.28571428571428
10
59
20
244.28571428571428
10
59
20
242.68571428571425
10
55.799999999999997
20
242.68571428571425
10
55.799999999999997
20
227.68571428571425
10
59
20
227.68571428571425
10
59
20
204.48571428571427
42
-0.4142135623730846
10
56
20
201.48571428571429
10
7.9999999999999982
20
201.48571428571429
42
-0.41421356237308898
10
5
20
204.48571428571427
10
5
20
227.68571428571425
10
8.2000000000000028
20
227.68571428571425
10
8.2000000000000028
20
242.68571428571425
0
LWPOLYLINE
5
143
100
AcDbEntity
8
0
100
AcDbPolyline
90
14
70
1
43
0.0
10
63.333333333333329
20
242.68571428571425
10
63.333333333333329
20
244.28571428571428
10
117.33333333333334
20
244.28571428571428
10
117.33333333333334
20
242.68571428571425
10
114.13333333333334
20
242.68571428571425
10
114.13333333333334
20
227.68571428571425
10
117.33333333333334
20
227.68571428571425
10
117.33333333333334
20
204.48571428571427
42
-0.4142135623730846
10
114.33333333333334
20
201.48571428571429
10
66.333333333333329
20
201.48571428571429
42
-0.41421356237308898
10
63.333333333333329
20
204.48571428571427
10
63.333333333333329
20
227.68571428571425
10
66.533333333333331
20
227.68571428571425
10
66.533333333333331
20
242.68571428571425
0
LWPOLYLINE
5
144
100
AcDbEntity
8
0
100
AcDbPolyline
90
14
70
1
43
0.0
10
121.66666666666666
20
242.68571428571425
10
121.66666666666666
20
244.28571428571428
10
175.66666666666666
20
244.28571428571428
10
175.66666666666666
20
242.68571428571425
10
172.46666666666667
20
242.68571428571425
10
172.46666666666667
20
227.68571428571425
10
175.66666666666666
20
227.68571428571425
10
175.66666666666666
20
204.48571428571427
42
-0.4142135623730846
10
172.66666666666666
20
201.48571428571429
10
124.66666666666666
20
201.48571428571429
42
-0.41421356237308815
10
121.66666666666666
20
204.48571428571427
10
121.66666666666666
20
227.68571428571425
10
124.86666666666666
20
227.68571428571425
10
124.86666666666666
20
242.68571428571425
0
LWPOLYLINE
5
145
100
AcDbEntity
8
0
100
AcDbPolyline
90
14
70
1
43
0.0
10
180
20
242.68571428571425
10
180
20
244.28571428571428
10
234
20
244.28571428571428
10
234
20
242.68571428571425
10
230.79999999999998
20
242.68571428571425
10
230.79999999999998
20
227.68571428571425
10
234
20
227.68571428571425
10
234
20
204.48571428571427
42
-0.41421356237308116
10
231
20
201.48571428571429
10
183
20
201.48571428571429
42
-0.41421356237308815
10
180
20
204.48571428571427
10
180
20
227.68571428571425
10
183.19999999999999
20
227.68571428571425
10
183.19999999999999
20
242.68571428571425
0
LWPOLYLINE
5
146
100
AcDbEntity
8
0
100
AcDbPolyline
90
14
70
1
43
0.0
10
238.33333333333331
20
242.68571428571425
10
238.33333333333331
20
244.28571428571428
10
292.33333333333337
20
244.28571428571428
10
292.33333333333337
20
242.68571428571425
10
289.13333333333333
20
242.68571428571425
10
289.13333333333333
20
227.68571428571425
10
292.33333333333337
20
227.68571428571425
10
292.33333333333337
20
204.48571428571427
42
-0.41421356237308815
10
289.33333333333331
20
201.48571428571429
10
241.33333333333331
20
201.48571428571429
42
-0.41421356237309159
10
238.33333333333331
20
204.48571428571427
10
238.33333333333331
20
227.68571428571425
10
241.53333333333333
20
227.68571428571425
10
241.53333333333333
20
242.68571428571425
0
LWPOLYLINE
5
147
100
AcDbEntity
8
0
100
AcDbPolyline
90
14
70
1
43
0.0
10
296.66666666666663
20
242.68571428571425
10
296.66666666666663
20
244.28571428571428
10
350.66666666666663
20
244.28571428571428
10
350.66666666666663
20
242.68571428571425
10
347.46666666666664
20
242.68571428571425
10
347.46666666666664
20
227.68571428571425
10
350.66666666666663
20
227.68571428571425
10
350.66666666666663
20
204.48571428571427
42
-0.41421356237308116
10
347.66666666666663
20
201.48571428571429
10
299.66666666666663
20
201.48571428571429
42
-0.41421356237308815
10
296.66666666666663
20
204.48571428571427
10
296.66666666666663
20
227.68571428571425
10
299.86666666666667
20
227.68571428571425
10
299.86666666666667
20
242.68571428571425
0
LWPOLYLINE
5
148
100
AcDbEntity
8
0
100
AcDbPolyline
90
14
70
1
43
0.0
10
355
20
242.68571428571425
10
355
20
244.28571428571428
10
409
20
244.28571428571428
10
409
20
242.68571428571425
10
405.79999999999995
20
242.68571428571425
10
405.79999999999995
20
227.68571428571425
10
409
20
227.68571428571425
10
409
20
204.48571428571427
42
-0.41421356237308116
10
406
20
201.48571428571429
10
358
20
201.48571428571429
42
-0.4142135623730846
10
355
20
204.48571428571427
10
355
20
227.68571428571425
10
358.19999999999999
20
227.68571428571425
10
358.19999999999999
20
242.68571428571425
0
LWPOLYLINE
5
149
100
AcDbEntity
8
0
100
AcDbPolyline
90
14
70
1
43
0.0
10
413.33333333333326
20
242.68571428571425
10
413.33333333333326
20
244.28571428571428
10
467.33333333333326
20
244.28571428571428
10
467.33333333333326
20
242.68571428571425
10
464.13333333333327
20
242.68571428571425
10
464.13333333333327
20
227.68571428571425
10
467.33333333333326
20
227.68571428571425
10
467.33333333333326
20
204.48571428571427
42
-0.41421356237308116
10
464.33333333333331
20
201.48571428571429
10
416.33333333333326
20
201.48571428571429
42
-0.4142135623730846
10
413.33333333333326
20
204.48571428571427
10
413.33333333333326
20
227.68571428571425
10
416.5333333333333
20
227.68571428571425
10
416.5333333333333
20
242.68571428571425
0
LWPOLYLINE
5
150
100
AcDbEntity
8
0
100
AcDbPolyline
90
14
70
1
43
0.0
10
471.66666666666663
20
242.68571428571425
10
471.66666666666663
20
244.28571428571428
10
525.66666666666663
20
244.28571428571428
10
525.66666666666663
20
242.68571428571425
10
522.46666666666658
20
242.68571428571425
10
522.46666666666658
20
227.68571428571425
10
525.66666666666663
20
227.68571428571425
10
525.66666666666663
20
204.48571428571427
42
-0.41421356237308116
10
522.66666666666663
20
201.48571428571429
10
474.66666666666663
20
201.48571428571429
42
-0.4142135623730846
10
471.66666666666663
20
204.48571428571427
10
471.66666666666663
20
227.68571428571425
10
474.86666666666667
20
227.68571428571425
10
474.86666666666667
20
242.68571428571425
0
LWPOLYLINE
5
151
100
AcDbEntity
8
0
100
AcDbPolyline
90
14
70
1
43
0.0
10
530
20
242.68571428571425
10
530
20
244.28571428571428
10
584
20
244.28571428571428
10
584
20
242.68571428571425
10
580.79999999999995
20
242.68571428571425
10
580.79999999999995
20
227.68571428571425
10
584
20
227.68571428571425
10
584
20
204.48571428571427
42
-0.41421356237308116
10
581
20
201.48571428571429
10
533
20
201.48571428571429
42
-0.4142135623730846
10
530
20
204.48571428571427
10
530
20
227.68571428571425
10
533.20000000000005
20
227.68571428571425
10
533.20000000000005
20
242.68571428571425
0
LWPOLYLINE
5
152
100
AcDbEntity
8
0
100
AcDbPolyline
90
14
70
1
43
0.0
10
5
20
249.45714285714286
10
5
20
247.85714285714283
10
59
20
247.85714285714283
10
59
20
249.45714285714286
10
55.799999999999997
20
249.45714285714286
10
55.799999999999997
20
264.45714285714286
10
59
20
264.45714285714286
10
59
20
287.65714285714284
42
0.41421356237309159
10
56
20
290.65714285714284
10
7.9999999999999982
20
290.65714285714284
42
0.41421356237309243
10
5
20
287.65714285714284
10
5
20
264.45714285714286
10
8.2000000000000028
20
264.45714285714286
10
8.2000000000000028
20
249.45714285714286
0
LWPOLYLINE
5
153
100
AcDbEntity
8
0
100
AcDbPolyline
90
14
70
1
43
0.0
10
63.333333333333329
20
249.45714285714286
10
63.333333333333329
20
247.85714285714283
10
117.33333333333334
20
247.85714285714283
10
117.33333333333334
20
249.45714285714286
10
114.13333333333334
20
249.45714285714286
10
114.13333333333334
20
264.45714285714286
10
117.33333333333334
20
264.45714285714286
10
117.33333333333334
20
287.65714285714284
42
0.41421356237309159
10
114.33333333333334
20
290.65714285714284
10
66.333333333333329
20
290.65714285714284
42
0.41421356237309243
10
63.333333333333329
20
287.65714285714284
10
63.333333333333329
20
264.45714285714286
10
66.533333333333331
20
264.45714285714286
10
66.533333333333331
20
249.45714285714286
0
LWPOLYLINE
5
154
100
AcDbEntity
8
0
100
AcDbPolyline
90
14
70
1
43
0.0
10
121.66666666666666
20
249.45714285714286
10
121.66666666666666
20
247.85714285714283
10
175.66666666666666
20
247.85714285714283
10
175.66666666666666
20
249.45714285714286
10
172.46666666666667
20
249.45714285714286
10
172.46666666666667
20
264.45714285714286
10
175.66666666666666
20
264.45714285714286
10
175.66666666666666
20
287.65714285714284
42
0.41421356237309159
10
172.66666666666666
20
290.65714285714284
10
124.66666666666666
20
290.65714285714284
42
0.41421356237309159
10
121.66666666666666
20
287.65714285714284
10
121.66666666666666
20
264.45714285714286
10
124.86666666666666
20
264.45714285714286
10
124.86666666666666
20
249.45714285714286
0
LWPOLYLINE
5
155
100
AcDbEntity
8
0
100
AcDbPolyline
90
14
70
1
43
0.0
10
180
20
249.45714285714286
10
180
20
247.85714285714283
10
234
20
247.85714285714283
10
234
20
249.45714285714286
10
230.79999999999998
20
249.45714285714286
10
230.79999999999998
20
264.45714285714286
10
234
20
264.45714285714286
10
234
20
287.65714285714284
42
0.41421356237308815
10
231
20
290.65714285714284
10
183
20
290.65714285714284
42
0.41421356237309159
10
180
20
287.65714285714284
10
180
20
264.45714285714286
10
183.19999999999999
20
264.45714285714286
10
183.19999999999999
20
249.45714285714286
0
LWPOLYLINE
5
156
100
AcDbEntity
8
0
100
AcDbPolyline
90
14
70
1
43
0.0
10
238.33333333333331
20
249.45714285714286
10
238.33333333333331
20
247.85714285714283
10
292.33333333333337
20
247.85714285714283
10
292.33333333333337
20
249.45714285714286
10
289.13333333333333
20
249.45714285714286
10
289.13333333333333
20
264.45714285714286
10
292.33333333333337
20
264.45714285714286
10
292.33333333333337
20
287.65714285714284
42
0.41421356237309503
10
289.33333333333331
20
290.65714285714284
10
241.33333333333331
20
290.65714285714284
42
0.41421356237309503
10
238.33333333333331
20
287.65714285714284
10
238.33333333333331
20
264.45714285714286
10
241.53333333333333
20
264.45714285714286
10
241.53333333333333
20
249.45714285714286
0
LWPOLYLINE
5
157
100
AcDbEntity
8
0
100
AcDbPolyline
90
14
70
1
43
0.0
10
296.66666666666663
20
249.45714285714286
10
296.66666666666663
20
247.85714285714283
10
350.66666666666663
20
247.85714285714283
10
350.66666666666663
20
249.45714285714286
10
347.46666666666664
20
249.45714285714286
10
347.46666666666664
20
264.45714285714286
10
350.66666666666663
20
264.45714285714286
10
350.66666666666663
20
287.65714285714284
42
0.41421356237308815
10
347.66666666666663
20
290.65714285714284
10
299.66666666666663
20
290.65714285714284
42
0.41421356237309159
10
296.66666666666663
20
287.65714285714284
10
296.66666666666663
20
264.45714285714286
10
299.86666666666667
20
264.45714285714286
10
299.86666666666667
20
249.45714285714286
0
LWPOLYLINE
5
158
100
AcDbEntity
8
0
100
AcDbPolyline
90
14
70
1
43
0.0
10
355
20
249.45714285714286
10
355
20
247.85714285714283
10
409
20
247.85714285714283
10
409
20
249.45714285714286
10
405.79999999999995
20
249.45714285714286
10
405.79999999999995
20
264.45714285714286
10
409
20
264.45714285714286
10
409
20
287.65714285714284
42
0.41421356237308815
10
406
20
290.65714285714284
10
358
20
290.65714285714284
42
0.41421356237308815
10
355
20
287.65714285714284
10
355
20
264.45714285714286
10
358.19999999999999
20
264.45714285714286
10
358.19999999999999
20
249.45714285714286
0
LWPOLYLINE
5
159
100
AcDbEntity
8
0
100
AcDbPolyline
90
14
70
1
43
0.0
10
413.33333333333326
20
249.45714285714286
10
413.33333333333326
20
247.85714285714283
10
467.33333333333326
20
247.85714285714283
10
467.33333333333326
20
249.45714285714286
10
464.13333333333327
20
249.45714285714286
10
464.13333333333327
20
264.45714285714286
10
467.33333333333326
20
264.45714285714286
10
467.33333333333326
20
287.65714285714284
42
0.41421356237308815
10
464.33333333333331
20
290.65714285714284
10
416.33333333333326
20
290.65714285714284
42
0.41421356237308815
10
413.33333333333326
20
287.65714285714284
10
413.33333333333326
20
264.45714285714286
10
416.5333333333333
20
264.45714285714286
10
416.5333333333333
20
249.45714285714286
0
LWPOLYLINE
5
160
100
AcDbEntity
8
0
100
AcDbPolyline
90
14
70
1
43
0.0
10
471.66666666666663
20
249.45714285714286
10
471.66666666666663
20
247.85714285714283
10
525.66666666666663
20
247.85714285714283
10
525.66666666666663
20
249.45714285714286
10
522.46666666666658
20
249.45714285714286
10
522.46666666666658
20
264.45714285714286
10
525.66666666666663
20
264.45714285714286
10
525.66666666666663
20
287.65714285714284
42
0.41421356237308815
10
522.66666666666663
20
290.65714285714284
10
474.66666666666663
20
290.65714285714284
42
0.41421356237308815
10
471.66666666666663
20
287.65714285714284
10
471.66666666666663
20
264.45714285714286
10
474.86666666666667
20
264.45714285714286
10
474.86666666666667
20
249.45714285714286
0
LWPOLYLINE
5
161
100
AcDbEntity
8
0
100
AcDbPolyline
90
14
70
1
43
0.0
10
530
20
249.45714285714286
10
530
20
247.85714285714283
10
584
20
247.85714285714283
10
584
20
249.45714285714286
10
580.79999999999995
20
249.45714285714286
10
580.79999999999995
20
264.45714285714286
10
584
20
264.45714285714286
10
584
20
287.65714285714284
42
0.41421356237308815
10
581
20
290.65714285714284
10
533
20
290.65714285714284
42
0.41421356237308815
10
530
20
287.65714285714284
10
530
20
264.45714285714286
10
533.20000000000005
20
264.45714285714286
10
533.20000000000005
20
249.45714285714286
0
LWPOLYLINE
5
162
100
AcDbEntity
8
0
100
AcDbPolyline
90
14
70
1
43
0.0
10
5
20
339.82857142857137
10
5
20
341.42857142857139
10
59
20
341.42857142857139
10
59
20
339.82857142857137
10
55.799999999999997
20
339.82857142857137
10
55.799999999999997
20
324.82857142857137
10
59
20
324.82857142857137
10
59
20
301.62857142857138
42
-0.41421356237309159
10
56
20
298.62857142857132
10
7.9999999999999982
20
298.62857142857132
42
-0.41421356237309243
10
5
20
301.62857142857138
10
5
20
324.82857142857137
10
8.2000000000000028
20
324.82857142857137
10
8.2000000000000028
20
339.82857142857137
0
LWPOLYLINE
5
163
100
AcDbEntity
8
0
100
AcDbPolyline
90
14
70
1
43
0.0
10
63.333333333333329
20
339.82857142857137
10
63.333333333333329
20
341.42857142857139
10
117.33333333333334
20
341.42857142857139
10
117.33333333333334
20
339.82857142857137
10
114.13333333333334
20
339.82857142857137
10
114.13333333333334
20
324.82857142857137
10
117.33333333333334
20
324.82857142857137
10
117.33333333333334
20
301.62857142857138
42
-0.41421356237309159
10
114.33333333333334
20
298.62857142857132
10
66.333333333333329
20
298.62857142857132
42
-0.41421356237309243
10
63.333333333333329
20
301.62857142857138
10
63.333333333333329
20
324.82857142857137
10
66.533333333333331
20
324.82857142857137
10
66.533333333333331
20
339.82857142857137
0
LWPOLYLINE
5
164
100
AcDbEntity
8
0
100
AcDbPolyline
90
14
70
1
43
0.0
10
121.66666666666666
20
339.82857142857137
10
121.66666666666666
20
341.42857142857139
10
175.66666666666666
20
341.42857142857139
10
175.66666666666666
20
339.82857142857137
10
172.46666666666667
20
339.82857142857137
10
172.46666666666667
20
324.82857142857137
10
175.66666666666666
20
324.82857142857137
10
175.66666666666666
20
301.62857142857138
42
-0.41421356237309159
10
172.66666666666666
20
298.62857142857132
10
124.66666666666666
20
298.62857142857132
42
-0.41421356237309159
10
121.66666666666666
20
301.62857142857138
10
121.66666666666666
20
324.82857142857137
10
124.86666666666666
20
324.82857142857137
10
124.86666666666666
20
339.82857142857137
0
LWPOLYLINE
5
165
100
AcDbEntity
8
0
100
AcDbPolyline
90
14
70
1
43
0.0
10
180
20
339.82857142857137
10
180
20
341.42857142857139
10
234
20
341.42857142857139
10
234
20
339.82857142857137
10
230.79999999999998
20
339.82857142857137
10
230.79999999999998
20
324.82857142857137
10
234
20
324.82857142857137
10
234
20
301.62857142857138
42
-0.41421356237308815
10
231
20
298.62857142857132
10
183
20
298.62857142857132
42
-0.41421356237309159
10
180
20
301.62857142857138
10
180
20
324.82857142857137
10
183.19999999999999
20
324.82857142857137
10
183.19999999999999
20
339.82857142857137
0
LWPOLYLINE
5
166
100
AcDbEntity
8
0
100
AcDbPolyline
90
14
70
1
43
0.0
10
238.33333333333331
20
339.82857142857137
10
238.33333333333331
20
341.42857142857139
10
292.33333333333337
20
341.42857142857139
10
292.33333333333337
20
339.82857142857137
10
289.13333333333333
20
339.82857142857137
10
289.13333333333333
20
324.82857142857137
10
292.33333333333337
20
324.82857142857137
10
292.33333333333337
20
301.62857142857138
42
-0.41421356237309503
10
289.33333333333331
20
298.62857142857132
10
241.33333333333331
20
298.62857142857132
42
-0.41421356237309503
10
238.33333333333331
20
301.62857142857138
10
238.33333333333331
20
324.82857142857137
10
241.53333333333333
20
324.82857142857137
10
241.53333333333333
20
339.82857142857137
0
LWPOLYLINE
5
167
100
AcDbEntity
8
0
100
AcDbPolyline
90
14
70
1
43
0.0
10
296.66666666666663
20
339.82857142857137
10
296.66666666666663
20
341.42857142857139
10
350.66666666666663
20
341.42857142857139
10
350.66666666666663
20
339.82857142857137
10
347.46666666666664
20
339.82857142857137
10
347.46666666666664
20
324.82857142857137
10
350.66666666666663
20
324.82857142857137
10
350.66666666666663
20
301.62857142857138
42
-0.41421356237308815
10
347.66666666666663
20
298.62857142857132
10
299.66666666666663
20
298.62857142857132
42
-0.41421356237309159
10
296.66666666666663
20
301.62857142857138
10
296.66666666666663
20
324.82857142857137
10
299.86666666666667
20
324.82857142857137
10
299.86666666666667
20
339.82857142857137
0
LWPOLYLINE
5
168
100
AcDbEntity
8
0
100
AcDbPolyline
90
14
70
1
43
0.0
10
355
20
339.82857142857137
10
355
20
341.42857142857139
10
409
20
341.42857142857139
10
409
20
339.82857142857137
10
405.79999999999995
20
339.82857142857137
10
405.79999999999995
20
324.82857142857137
10
409
20
324.82857142857137
10
409
20
301.62857142857138
42
-0.41421356237308815
10
406
20
298.62857142857132
10
358
20
298.62857142857132
42
-0.41421356237308815
10
355
20
301.62857142857138
10
355
20
324.82857142857137
10
358.19999999999999
20
324.82857142857137
10
358.19999999999999
20
339.82857142857137
0
LWPOLYLINE
5
169
100
AcDbEntity
8
0
100
AcDbPolyline
90
14
70
1
43
0.0
10
413.33333333333326
20
339.82857142857137
10
413.33333333333326
20
341.42857142857139
10
467.33333333333326
20
341.42857142857139
10
467.33333333333326
20
339.82857142857137
10
464.13333333333327
20
339.82857142857137
10
464.13333333333327
20
324.82857142857137
10
467.33333333333326
20
324.82857142857137
10
467.33333333333326
20
301.62857142857138
42
-0.41421356237308815
10
464.33333333333331
20
298.62857142857132
10
416.33333333333326
20
298.62857142857132
42
-0.41421356237308815
10
413.33333333333326
20
301.62857142857138
10
413.33333333333326
20
324.82857142857137
10
416.5333333333333
20
324.82857142857137
10
416.5333333333333
20
339.82857142857137
0
LWPOLYLINE
5
170
100
AcDbEntity
8
0
100
AcDbPolyline
90
14
70
1
43
0.0
10
471.66666666666663
20
339.82857142857137
10
471.66666666666663
20
341.42857142857139
10
525.66666666666663
20
341.42857142857139
10
525.66666666666663
20
339.82857142857137
10
522.46666666666658
20
339.82857142857137
10
522.46666666666658
20
324.82857142857137
10
525.66666666666663
20
324.82857142857137
10
525.66666666666663
20
301.62857142857138
42
-0.41421356237308815
10
522.66666666666663
20
298.62857142857132
10
474.66666666666663
20
298.62857142857132
42
-0.41421356237308815
10
471.66666666666663
20
301.62857142857138
10
471.66666666666663
20
324.82857142857137
10
474.86666666666667
20
324.82857142857137
10
474.86666666666667
20
339.82857142857137
0
LWPOLYLINE
5
171
100
AcDbEntity
8
0
100
AcDbPolyline
90
14
70
1
43
0.0
10
530
20
339.82857142857137
10
530
20
341.42857142857139
10
584
20
341.42857142857139
10
584
20
339.82857142857137
10
580.79999999999995
20
339.82857142857137
10
580.79999999999995
20
324.82857142857137
10
584
20
324.82857142857137
10
584
20
301.62857142857138
42
-0.41421356237308815
10
581
20
298.62857142857132
10
533
20
298.62857142857132
42
-0.41421356237308815
10
530
20
301.62857142857138
10
530
20
324.82857142857137
10
533.20000000000005
20
324.82857142857137
10
533.20000000000005
20
339.82857142857137
0
LWPOLYLINE
5
172
100
AcDbEntity
8
0
100
AcDbPolyline
90
14
70
1
43
0.0
10
5
20
346.59999999999997
10
5
20
345
10
59
20
345
10
59
20
346.59999999999997
10
55.799999999999997
20
346.59999999999997
10
55.799999999999997
20
361.59999999999997
10
59
20
361.59999999999997
10
59
20
384.79999999999995
42
0.41421356237309159
10
56
20
387.80000000000001
10
7.9999999999999982
20
387.80000000000001
42
0.41421356237309243
10
5
20
384.79999999999995
10
5
20
361.59999999999997
10
8.2000000000000028
20
361.59999999999997
10
8.2000000000000028
20
346.59999999999997
0
LWPOLYLINE
5
173
100
AcDbEntity
8
0
100
AcDbPolyline
90
14
70
1
43
0.0
10
63.333333333333329
20
346.59999999999997
10
63.333333333333329
20
345
10
117.33333333333334
20
345
10
117.33333333333334
20
346.59999999999997
10
114.13333333333334
20
346.59999999999997
10
114.13333333333334
20
361.59999999999997
10
117.33333333333334
20
361.59999999999997
10
117.33333333333334
20
384.79999999999995
42
0.41421356237309159
10
114.33333333333334
20
387.80000000000001
10
66.333333333333329
20
387.80000000000001
42
0.41421356237309243
10
63.333333333333329
20
384.79999999999995
10
63.333333333333329
20
361.59999999999997
10
66.533333333333331
20
361.59999999999997
10
66.533333333333331
20
346.59999999999997
0
LWPOLYLINE
5
174
100
AcDbEntity
8
0
100
AcDbPolyline
90
14
70
1
43
0.0
10
121.66666666666666
20
346.59999999999997
10
121.66666666666666
20
345
10
175.66666666666666
20
345
10
175.66666666666666
20
346.59999999999997
10
172.46666666666667
20
346.59999999999997
10
172.46666666666667
20
361.59999999999997
10
175.66666666666666
20
361.59999999999997
10
175.66666666666666
20
384.79999999999995
42
0.41421356237309159
10
172.66666666666666
20
387.80000000000001
10
124.66666666666666
20
387.80000000000001
42
0.41421356237309159
10
121.66666666666666
20
384.79999999999995
10
121.66666666666666
20
361.59999999999997
10
124.86666666666666
20
361.59999999999997
10
124.86666666666666
20
346.59999999999997
0
LWPOLYLINE
5
175
100
AcDbEntity
8
0
100
AcDbPolyline
90
14
70
1
43
0.0
10
180
20
346.59999999999997
10
180
20
345
10
234
20
345
10
234
20
346.59999999999997
10
230.79999999999998
20
346.59999999999997
10
230.79999999999998
20
361.59999999999997
10
234
20
361.59999999999997
10
234
20
384.79999999999995
42
0.41421356237308815
10
231
20
387.80000000000001
10
183
20
387.80000000000001
42
0.41421356237309159
10
180
20
384.79999999999995
10
180
20
361.59999999999997
10
183.19999999999999
20
361.59999999999997
10
183.19999999999999
20
346.59999999999997
0
LWPOLYLINE
5
176
100
AcDbEntity
8
0
100
AcDbPolyline
90
14
70
1
43
0.0
10
238.33333333333331
20
346.59999999999997
10
238.33333333333331
20
345
10
292.33333333333337
20
345
10
292.33333333333337
20
346.59999999999997
10
289.13333333333333
20
346.59999999999997
10
289.13333333333333
20
361.59999999999997
10
292.33333333333337
20
361.59999999999997
10
292.33333333333337
20
384.79999999999995
42
0.41421356237309503
10
289.33333333333331
20
387.80000000000001
10
241.33333333333331
20
387.80000000000001
42
0.41421356237309503
10
238.33333333333331
20
384.79999999999995
10
238.33333333333331
20
361.59999999999997
10
241.53333333333333
20
361.59999999999997
10
241.53333333333333
20
346.59999999999997
0
LWPOLYLINE
5
177
100
AcDbEntity
8
0
100
AcDbPolyline
90
14
70
1
43
0.0
10
296.66666666666663
20
346.59999999999997
10
296.66666666666663
20
345
10
350.66666666666663
20
345
10
350.66666666666663
20
346.59999999999997
10
347.46666666666664
20
346.59999999999997
10
347.46666666666664
20
361.59999999999997
10
350.66666666666663
20
361.59999999999997
10
350.66666666666663
20
384.79999999999995
42
0.41421356237308815
10
347.66666666666663
20
387.80000000000001
10
299.66666666666663
20
387.80000000000001
42
0.41421356237309159
10
296.66666666666663
20
384.79999999999995
10
296.66666666666663
20
361.59999999999997
10
299.86666666666667
20
361.59999999999997
10
299.86666666666667
20
346.59999999999997
0
LWPOLYLINE
5
178
100
AcDbEntity
8
0
100
AcDbPolyline
90
14
70
1
43
0.0
10
355
20
346.59999999999997
10
355
20
345
10
409
20
345
10
409
20
346.59999999999997
10
405.79999999999995
20
346.59999999999997
10
405.79999999999995
20
361.59999999999997
10
409
20
361.59999999999997
10
409
20
384.79999999999995
42
0.41421356237308815
10
406
20
387.80000000000001
10
358
20
387.80000000000001
42
0.41421356237308815
10
355
20
384.79999999999995
10
355
20
361.59999999999997
10
358.19999999999999
20
361.59999999999997
10
358.19999999999999
20
346.59999999999997
0
LWPOLYLINE
5
179
100
AcDbEntity
8
0
100
AcDbPolyline
90
14
70
1
43
0.0
10
413.33333333333326
20
346.59999999999997
10
413.33333333333326
20
345
10
467.33333333333326
20
345
10
467.33333333333326
20
346.59999999999997
10
464.13333333333327
20
346.59999999999997
10
464.13333333333327
20
361.59999999999997
10
467.33333333333326
20
361.59999999999997
10
467.33333333333326
20
384.79999999999995
42
0.41421356237308815
10
464.33333333333331
20
387.80000000000001
10
416.33333333333326
20
387.80000000000001
42
0.41421356237308815
10
413.33333333333326
20
384.79999999999995
10
413.33333333333326
20
361.59999999999997
10
416.5333333333333
20
361.59999999999997
10
416.5333333333333
20
346.59999999999997
0
LWPOLYLINE
5
180
100
AcDbEntity
8
0
100
AcDbPolyline
90
14
70
1
43
0.0
10
471.66666666666663
20
346.59999999999997
10
471.66666666666663
20
345
10
525.66666666666663
20
345
10
525.66666666666663
20
346.59999999999997
10
522.46666666666658
20
346.59999999999997
10
522.46666666666658
20
361.59999999999997
10
525.66666666666663
20
361.59999999999997
10
525.66666666666663
20
384.79999999999995
42
0.41421356237308815
10
522.66666666666663
20
387.80000000000001
10
474.66666666666663
20
387.80000000000001
42
0.41421356237308815
10
471.66666666666663
20
384.79999999999995
10
471.66666666666663
20
361.59999999999997
10
474.86666666666667
20
361.59999999999997
10
474.86666666666667
20
346.59999999999997
0
LWPOLYLINE
5
181
100
AcDbEntity
8
0
100
AcDbPolyline
90
14
70
1
43
0.0
10
530
20
346.59999999999997
10
530
20
345
10
584
20
345
10
584
20
346.59999999999997
10
580.79999999999995
20
346.59999999999997
10
580.79999999999995
20
361.59999999999997
10
584
20
361.59999999999997
10
584
20
384.79999999999995
42
0.41421356237308815
10
581
20
387.80000000000001
10
533
20
387.80000000000001
42
0.41421356237308815
10
530
20
384.79999999999995
10
530
20
361.59999999999997
10
533.20000000000005
20
361.59999999999997
10
533.20000000000005
20
346.59999999999997
0
ENDSEC
0
SECTION
2
OBJECTS
0
DICTIONARY
5
C
100
AcDbDictionary
3
ACAD_GROUP
350
D
3
ACAD_MLINESTYLE
350
17
0
DICTIONARY
5
D
100
AcDbDictionary
0
DICTIONARY
5
1A
330
C
100
AcDbDictionary
0
DICTIONARY
5
17
100
AcDbDictionary
0
ENDSEC
0
EOF
