<?xml version="1.0" encoding="UTF-8"?>
<svg width="16px" height="16px" viewBox="0 0 16 16" version="1.1" xmlns="http://www.w3.org/2000/svg" xmlns:xlink="http://www.w3.org/1999/xlink">
    <!-- Generator: Sketch 52.3 (67297) - http://www.bohemiancoding.com/sketch -->
    <title>Slice 1</title>
    <desc>Created with Sketch.</desc>
    <g id="Page-1" stroke="none" stroke-width="1" fill="none" fill-rule="evenodd">
        <g id="content-pdf-tiny" transform="translate(0.000000, 4.000000)" fill="#F25123">
            <path d="M2.016,5.06328 L1.312,5.06328 L1.312,7.0599 L0,7.0599 L0,0.93994 L2.128,0.93994 C3.456,0.93994 4.30073,1.51594 4.30073,2.93194 C4.30073,4.41994 3.384,5.06328 2.016,5.06328 Z M1.31201,4.05684 L2.10401,4.05684 C2.78401,4.05684 3.17601,3.64397 3.17601,2.93197 C3.17601,2.17997 2.78401,2.04502 2.12001,2.04502 L1.31201,2.04502 L1.31201,4.05684 Z M5.25933,7.0599 L5.25933,0.93994 L7.34733,0.93994 C9.15533,0.93994 9.92317,2.19567 9.92317,3.98697 C9.92317,5.77828 9.17133,7.0599 7.37933,7.0599 L5.25933,7.0599 Z M6.50313,5.92899 L7.32322,5.92899 C8.37922,5.92899 8.59688,5.11188 8.59688,3.987 C8.59688,2.86213 8.33122,2.04502 7.32322,2.04502 L6.46313,2.04502 L6.50313,5.92899 Z M12.5219,4.77441 L12.5219,7.0599 L11.2703,7.0599 L11.2703,0.93994 L15.0113,0.93994 L15.0113,2.04499 L12.5219,2.04499 L12.5219,3.79041 L14.8673,3.79041 L14.8673,4.77441 L12.5219,4.77441 Z" id="Shape"></path>
        </g>
    </g>
</svg>
