<svg xmlns="http://www.w3.org/2000/svg" width="179mm" height="175mm" viewBox="-1 -174 179 175" version="1.1">
<title>OpenSCAD Model</title>
<path d="M 146.396,-44.8661 L 146.396,-40.8661 L 143.176,-40.8661 L 143.176,-44.8661 M 4.61,-44.8661 L 4.61,-40.8661 L 1.38998,-40.8661 L 1.38998,-44.8661 M -0.0899963,-44.8661 L -0.0899963,-18.41 L 3.42142,-18.41 L 3.94669,-18.3687 L 4.45549,-18.2465 L 4.93889,-18.0463 L 5.38507,-17.7728 L 5.78299,-17.433 L 6.12285,-17.0351 L 6.39626,-16.5889 L 6.5965,-16.1055 L 6.71866,-15.5967 L 6.75972,-15.075 L 6.71866,-14.5533 L 6.5965,-14.0445 L 6.39626,-13.5611 L 6.12285,-13.1149 L 5.78299,-12.717 L 5.38507,-12.3772 L 4.93889,-12.1037 L 4.45549,-11.9035 L 3.94669,-11.7813 L 3.42142,-11.74 L 1.24646,-11.74 L 1.04034,-11.7238 L 0.835861,-11.6747 L 0.641556,-11.5942 L 0.462219,-11.4843 L 0.302292,-11.3477 L 0.16571,-11.1878 L 0.0558167,-11.0085 L -0.0246582,-10.8141 L -0.073761,-10.6097 L -0.0899963,-10.4035 L -0.0899963,0.0899963 L 147.876,0.0899963 M 89.6961,-38.1377 L 89.2667,-38.2772 L 88.8757,-38.5029 L 88.5402,-38.805 L 88.2749,-39.1703 L 88.0912,-39.5827 L 87.9974,-40.0242 L 87.9974,-40.4757 L 88.0912,-40.9173 L 88.2749,-41.3297 L 88.5402,-41.695 L 88.8757,-41.9971 L 89.2667,-42.2228 L 89.6961,-42.3623 L 90.1451,-42.4095 L 90.594,-42.3623 L 91.0234,-42.2228 L 91.4144,-41.9971 L 91.7499,-41.695 L 92.0153,-41.3297 L 92.1989,-40.9173 L 92.2927,-40.4757 L 92.2927,-40.0242 L 92.1989,-39.5827 L 92.0153,-39.1703 L 91.7499,-38.805 L 91.4144,-38.5029 L 91.0234,-38.2772 L 90.594,-38.1377 L 90.1451,-38.0905 L 89.6961,-38.1377 M 140.326,-36.8893 L 140.326,-40.0938 L 143.246,-40.0938 L 143.246,-36.8893 L 140.326,-36.8893 M 4.54001,-36.8893 L 4.54001,-40.0938 L 7.45999,-40.0938 L 7.45999,-36.8893 L 4.54001,-36.8893 M 80.6486,-8.34 L 79.877,-8.40074 L 79.1279,-8.58058 L 78.4161,-8.8754 L 77.7592,-9.27795 L 77.1734,-9.77832 L 76.673,-10.3642 L 76.2705,-11.0211 L 75.9756,-11.7328 L 75.7958,-12.4819 L 75.7351,-13.2536 L 75.7351,-32.2464 L 75.7958,-33.0181 L 75.9756,-33.7672 L 76.2705,-34.4789 L 76.673,-35.1358 L 77.1734,-35.7217 L 77.7592,-36.222 L 78.4161,-36.6246 L 79.1279,-36.9194 L 79.877,-37.0993 L 80.6486,-37.16 L 105.641,-37.16 L 106.413,-37.0993 L 107.162,-36.9194 L 107.874,-36.6246 L 108.531,-36.222 L 109.117,-35.7217 L 109.617,-35.1358 L 110.02,-34.4789 L 110.314,-33.7672 L 110.494,-33.0181 L 110.555,-32.2464 L 110.555,-13.2536 L 110.494,-12.4819 L 110.314,-11.7328 L 110.02,-11.0211 L 109.617,-10.3642 L 109.117,-9.77832 L 108.531,-9.27795 L 107.874,-8.8754 L 107.162,-8.58058 L 106.413,-8.40074 L 105.641,-8.34 L 80.6486,-8.34 M 141.56,-29.7749 L 141.118,-29.8687 L 140.706,-30.0523 L 140.341,-30.3177 L 140.039,-30.6532 L 139.813,-31.0442 L 139.673,-31.4736 L 139.626,-31.9225 L 139.673,-32.3715 L 139.813,-32.8009 L 140.039,-33.1919 L 140.341,-33.5274 L 140.706,-33.7927 L 141.118,-33.9764 L 141.56,-34.0702 L 142.011,-34.0702 L 142.453,-33.9764 L 142.865,-33.7927 L 143.231,-33.5274 L 143.533,-33.1919 L 143.758,-32.8009 L 143.898,-32.3715 L 143.945,-31.9225 L 143.898,-31.4736 L 143.758,-31.0442 L 143.533,-30.6532 L 143.231,-30.3177 L 142.865,-30.0523 L 142.453,-29.8687 L 142.011,-29.7749 L 141.56,-29.7749 M 5.77426,-29.7749 L 5.33269,-29.8687 L 4.92029,-30.0523 L 4.55501,-30.3177 L 4.25293,-30.6532 L 4.02722,-31.0442 L 3.8877,-31.4736 L 3.8405,-31.9225 L 3.8877,-32.3715 L 4.02722,-32.8009 L 4.25293,-33.1919 L 4.55501,-33.5274 L 4.92029,-33.7927 L 5.33269,-33.9764 L 5.77426,-34.0702 L 6.22574,-34.0702 L 6.66731,-33.9764 L 7.07971,-33.7927 L 7.44499,-33.5274 L 7.74707,-33.1919 L 7.97278,-32.8009 L 8.1123,-32.3715 L 8.1595,-31.9225 L 8.1123,-31.4736 L 7.97278,-31.0442 L 7.74707,-30.6532 L 7.44499,-30.3177 L 7.07971,-30.0523 L 6.66731,-29.8687 L 6.22574,-29.7749 L 5.77426,-29.7749 M 54.4549,-12.4981 L 54.3493,-12.5451 L 54.2719,-12.631 L 54.2347,-12.7456 L 54.2347,-30.1465 L 54.2483,-30.2759 L 54.3061,-30.376 L 54.3996,-30.4439 L 54.5127,-30.468 L 54.6257,-30.4439 L 54.7193,-30.376 L 54.777,-30.2759 L 54.7906,-30.1465 L 54.7906,-12.7456 L 54.7534,-12.631 L 54.676,-12.5451 L 54.5704,-12.4981 L 54.4549,-12.4981 M 62.6997,-9.27168 L 62.2703,-9.41121 L 61.8793,-9.63692 L 61.5438,-9.939 L 61.2785,-10.3043 L 61.0948,-10.7167 L 61.001,-11.1582 L 61.001,-27.2657 L 61.0948,-27.7073 L 61.2785,-28.1197 L 61.5438,-28.485 L 61.8793,-28.7871 L 62.2703,-29.0128 L 62.6997,-29.1523 L 63.1487,-29.1995 L 63.5976,-29.1523 L 64.027,-29.0128 L 64.418,-28.7871 L 64.7535,-28.485 L 65.0188,-28.1197 L 65.2025,-27.7073 L 65.2963,-27.2657 L 65.2963,-11.1582 L 65.2025,-10.7167 L 65.0188,-10.3043 L 64.7535,-9.939 L 64.418,-9.63692 L 64.027,-9.41121 L 63.5976,-9.27168 L 63.1487,-9.22449 L 62.6997,-9.27168 M 124.29,-26.09 L 124.2,-26.0994 L 124.119,-26.1259 L 124.045,-26.1687 L 123.981,-26.226 L 123.931,-26.2952 L 123.896,-26.3735 L 123.878,-26.4572 L 123.878,-27.5428 L 123.896,-27.6265 L 123.931,-27.7047 L 123.981,-27.774 L 124.045,-27.8313 L 124.119,-27.8741 L 124.2,-27.9005 L 124.29,-27.91 L 126.281,-27.91 L 126.371,-27.9005 L 126.452,-27.8741 L 126.526,-27.8313 L 126.59,-27.774 L 126.64,-27.7047 L 126.675,-27.6265 L 126.693,-27.5428 L 126.693,-26.4572 L 126.675,-26.3735 L 126.64,-26.2952 L 126.59,-26.226 L 126.526,-26.1687 L 126.452,-26.1259 L 126.371,-26.0994 L 126.281,-26.09 L 124.29,-26.09 M 140.326,-23.7513 L 140.326,-26.9558 L 143.246,-26.9558 L 143.246,-23.7513 L 140.326,-23.7513 M 4.54001,-23.7513 L 4.54001,-26.9558 L 7.45999,-26.9558 L 7.45999,-23.7513 L 4.54001,-23.7513 M 124.29,-17.59 L 124.2,-17.5995 L 124.119,-17.6259 L 124.045,-17.6687 L 123.981,-17.726 L 123.931,-17.7953 L 123.896,-17.8735 L 123.878,-17.9572 L 123.878,-19.0428 L 123.896,-19.1265 L 123.931,-19.2048 L 123.981,-19.274 L 124.045,-19.3313 L 124.119,-19.3741 L 124.2,-19.4006 L 124.29,-19.41 L 126.281,-19.41 L 126.371,-19.4006 L 126.452,-19.3741 L 126.526,-19.3313 L 126.59,-19.274 L 126.64,-19.2048 L 126.675,-19.1265 L 126.693,-19.0428 L 126.693,-17.9572 L 126.675,-17.8735 L 126.64,-17.7953 L 126.59,-17.726 L 126.526,-17.6687 L 126.452,-17.6259 L 126.371,-17.5995 L 126.281,-17.59 L 124.29,-17.59 M 26.2072,-5.09274 L 26.1235,-5.11053 L 26.0452,-5.14539 L 25.976,-5.19566 L 25.9187,-5.25932 L 25.8759,-5.33344 L 25.8494,-5.41487 L 25.84,-5.50478 L 25.84,-7.49522 L 25.8494,-7.58513 L 25.8759,-7.66656 L 25.9187,-7.74068 L 25.976,-7.80434 L 26.0452,-7.85461 L 26.1235,-7.88947 L 26.2072,-7.90726 L 27.2928,-7.90726 L 27.3765,-7.88947 L 27.4547,-7.85464 L 27.524,-7.80431 L 27.5813,-7.74068 L 27.6241,-7.66656 L 27.6505,-7.58511 L 27.66,-7.49522 L 27.66,-5.50478 L 27.6505,-5.41489 L 27.6241,-5.33344 L 27.5813,-5.25932 L 27.524,-5.19569 L 27.4547,-5.14536 L 27.3765,-5.11053 L 27.2928,-5.09274 L 26.2072,-5.09274 M 17.7072,-5.09274 L 17.6235,-5.11053 L 17.5453,-5.14536 L 17.476,-5.19569 L 17.4187,-5.25932 L 17.3759,-5.33344 L 17.3495,-5.41489 L 17.34,-5.50478 L 17.34,-7.49522 L 17.3495,-7.58511 L 17.3759,-7.66656 L 17.4187,-7.74068 L 17.476,-7.80431 L 17.5453,-7.85464 L 17.6235,-7.88947 L 17.7072,-7.90726 L 18.7928,-7.90726 L 18.8765,-7.88947 L 18.9548,-7.85461 L 19.024,-7.80434 L 19.0813,-7.74068 L 19.1241,-7.66656 L 19.1506,-7.58513 L 19.16,-7.49522 L 19.16,-5.50478 L 19.1506,-5.41487 L 19.1241,-5.33344 L 19.0813,-5.25932 L 19.024,-5.19566 L 18.9548,-5.14539 L 18.8765,-5.11053 L 18.7928,-5.09274 L 17.7072,-5.09274 M 89.6961,-3.1377 L 89.2667,-3.27722 L 88.8757,-3.50293 L 88.5402,-3.80501 L 88.2749,-4.17029 L 88.0912,-4.58269 L 87.9974,-5.02426 L 87.9974,-5.47575 L 88.0912,-5.91733 L 88.2749,-6.32973 L 88.5402,-6.69501 L 88.8757,-6.99709 L 89.2667,-7.22279 L 89.6961,-7.36232 L 90.1451,-7.4095 L 90.594,-7.36232 L 91.0234,-7.22279 L 91.4144,-6.99709 L 91.7499,-6.69501 L 92.0153,-6.32973 L 92.1989,-5.91733 L 92.2927,-5.47575 L 92.2927,-5.02426 L 92.1989,-4.58269 L 92.0153,-4.17029 L 91.7499,-3.80501 L 91.4144,-3.50293 L 91.0234,-3.27722 L 90.594,-3.1377 L 90.1451,-3.0905 L 89.6961,-3.1377" stroke="#0000ff" fill="none" stroke-width="0.1"/>
<path d="M 137.959,-41.7761 L 136.501,-42.5054 L 136.501,-41.0467 L 137.959,-41.7761" stroke="none" fill="#000000" stroke-width="0.5"/><path d="M 146.396,-71.3221 L 146.396,-67.3221 L 143.176,-67.3221 L 143.176,-71.3221 M 4.61,-71.3221 L 4.61,-67.3221 L 1.38998,-67.3221 L 1.38998,-71.3221 M -0.0899963,-71.3221 L -0.0899963,-44.8661 L 147.876,-44.8661 M 140.326,-63.3454 L 140.326,-66.5499 L 143.246,-66.5499 L 143.246,-63.3454 L 140.326,-63.3454 M 4.54001,-63.3454 L 4.54001,-66.5499 L 7.45999,-66.5499 L 7.45999,-63.3454 L 4.54001,-63.3454 M 121.954,-47.3372 L 121.287,-47.9376 L 120.922,-48.7574 L 120.922,-63.6547 L 121.287,-64.4745 L 121.954,-65.0749 L 122.808,-65.3522 L 123.7,-65.2584 L 124.477,-64.8098 L 125.005,-64.0838 L 125.193,-63.1966 L 125.193,-49.2155 L 125.005,-48.3284 L 124.477,-47.6024 L 123.7,-47.1537 L 122.808,-47.0599 L 121.954,-47.3372 M 141.56,-56.2309 L 141.118,-56.3248 L 140.706,-56.5084 L 140.341,-56.7738 L 140.039,-57.1093 L 139.813,-57.5002 L 139.673,-57.9297 L 139.626,-58.3786 L 139.673,-58.8276 L 139.813,-59.257 L 140.039,-59.6479 L 140.341,-59.9834 L 140.706,-60.2488 L 141.118,-60.4324 L 141.56,-60.5263 L 142.011,-60.5263 L 142.453,-60.4324 L 142.865,-60.2488 L 143.231,-59.9834 L 143.533,-59.6479 L 143.758,-59.257 L 143.898,-58.8276 L 143.945,-58.3786 L 143.898,-57.9297 L 143.758,-57.5002 L 143.533,-57.1093 L 143.231,-56.7738 L 142.865,-56.5084 L 142.453,-56.3248 L 142.011,-56.2309 L 141.56,-56.2309 M 5.77426,-56.2309 L 5.33269,-56.3248 L 4.92029,-56.5084 L 4.55501,-56.7738 L 4.25293,-57.1093 L 4.02722,-57.5002 L 3.8877,-57.9297 L 3.8405,-58.3786 L 3.8877,-58.8276 L 4.02722,-59.257 L 4.25293,-59.6479 L 4.55501,-59.9834 L 4.92029,-60.2488 L 5.33269,-60.4324 L 5.77426,-60.5263 L 6.22574,-60.5263 L 6.66731,-60.4324 L 7.07971,-60.2488 L 7.44499,-59.9834 L 7.74707,-59.6479 L 7.97278,-59.257 L 8.1123,-58.8276 L 8.1595,-58.3786 L 8.1123,-57.9297 L 7.97278,-57.5002 L 7.74707,-57.1093 L 7.44499,-56.7738 L 7.07971,-56.5084 L 6.66731,-56.3248 L 6.22574,-56.2309 L 5.77426,-56.2309 M 140.326,-50.2073 L 140.326,-53.4118 L 143.246,-53.4118 L 143.246,-50.2073 L 140.326,-50.2073 M 4.54001,-50.2073 L 4.54001,-53.4118 L 7.45999,-53.4118 L 7.45999,-50.2073 L 4.54001,-50.2073 M 65.4148,-47.0584 L 64.9732,-47.1523 L 64.5608,-47.3359 L 64.1955,-47.6012 L 63.8934,-47.9367 L 63.6677,-48.3277 L 63.5282,-48.7571 L 63.481,-49.2061 L 63.5282,-49.655 L 63.6677,-50.0844 L 63.8934,-50.4754 L 64.1955,-50.8109 L 64.5608,-51.0763 L 64.9732,-51.2599 L 65.4148,-51.3537 L 65.8663,-51.3537 L 66.3078,-51.2599 L 66.7202,-51.0763 L 67.0855,-50.8109 L 67.3876,-50.4754 L 67.6133,-50.0844 L 67.7528,-49.655 L 67.8,-49.2061 L 67.7528,-48.7571 L 67.6133,-48.3277 L 67.3876,-47.9367 L 67.0855,-47.6012 L 66.7202,-47.3359 L 66.3078,-47.1523 L 65.8663,-47.0584 L 65.4148,-47.0584" stroke="#0000ff" fill="none" stroke-width="0.1"/><path d="M 10.582,-67.4516 L 10.6633,-67.4644 L 10.7426,-67.4857 L 10.8192,-67.5151 L 10.8925,-67.5524 L 10.9613,-67.5971 L 11.0252,-67.6489 L 11.0832,-67.7069 L 11.135,-67.7708 L 11.1797,-67.8397 L 11.217,-67.9128 L 11.2465,-67.9897 L 11.2677,-68.0688 L 11.2806,-68.1502 L 11.2849,-68.2321 L 11.2806,-68.3141 L 11.2677,-68.3954 L 11.2465,-68.4747 L 11.217,-68.5513 L 11.1797,-68.6245 L 11.135,-68.6935 L 11.0833,-68.7573 L 11.0251,-68.8154 L 10.9613,-68.8672 L 10.8925,-68.9118 L 10.8192,-68.9492 L 10.7425,-68.9786 L 10.6633,-68.9998 L 10.582,-69.0127 L 10.5,-69.017 L 10.418,-69.0127 L 10.3367,-68.9998 L 10.2574,-68.9786 L 10.1808,-68.9492 L 10.1076,-68.9119 L 10.0387,-68.8671 L 9.97484,-68.8154 L 9.9167,-68.7573 L 9.86499,-68.6935 L 9.82025,-68.6245 L 9.78296,-68.5513 L 9.75352,-68.4747 L 9.7323,-68.3954 L 9.71942,-68.3141 L 9.71512,-68.2321 L 9.71942,-68.1502 L 9.7323,-68.0688 L 9.75349,-67.9897 L 9.78302,-67.9128 L 9.82025,-67.8397 L 9.86501,-67.7708 L 9.91675,-67.7069 L 9.97476,-67.6489 L 10.0387,-67.5972 L 10.1076,-67.5524 L 10.1808,-67.5151 L 10.2574,-67.4857 L 10.3367,-67.4644 L 10.418,-67.4516 L 10.5,-67.4473 L 10.582,-67.4516" stroke="none" fill="#000000" stroke-width="0.5"/><path d="M -0.0899963,-154.102 L -0.0899963,-71.3222 L 147.876,-71.3222 M 140.326,-122.752 L 140.326,-142.672 L 143.246,-142.672 L 143.246,-122.752 L 140.326,-122.752 M 4.54001,-122.752 L 4.54001,-142.672 L 7.45999,-142.672 L 7.45999,-122.752 L 4.54001,-122.752 M 19.335,-86.9021 L 19.335,-142.622 L 121.355,-142.622 L 121.355,-86.9021 L 19.335,-86.9021 M 5.55106,-110.6 L 5.12163,-110.739 L 4.73068,-110.965 L 4.39519,-111.267 L 4.12981,-111.632 L 3.9462,-112.045 L 3.85233,-112.486 L 3.85233,-112.938 L 3.9462,-113.379 L 4.12981,-113.792 L 4.39519,-114.157 L 4.73068,-114.459 L 5.12163,-114.685 L 5.55106,-114.824 L 6,-114.872 L 6.44894,-114.824 L 6.87837,-114.685 L 7.26932,-114.459 L 7.60481,-114.157 L 7.87019,-113.792 L 8.0538,-113.379 L 8.14767,-112.938 L 8.14767,-112.486 L 8.0538,-112.045 L 7.87019,-111.632 L 7.60481,-111.267 L 7.26932,-110.965 L 6.87837,-110.739 L 6.44894,-110.6 L 6,-110.553 L 5.55106,-110.6 M 141.337,-110.6 L 140.907,-110.739 L 140.516,-110.965 L 140.181,-111.267 L 139.915,-111.632 L 139.732,-112.045 L 139.638,-112.486 L 139.638,-112.938 L 139.732,-113.379 L 139.915,-113.792 L 140.181,-114.157 L 140.516,-114.459 L 140.907,-114.685 L 141.337,-114.824 L 141.786,-114.872 L 142.235,-114.824 L 142.664,-114.685 L 143.055,-114.459 L 143.39,-114.157 L 143.656,-113.792 L 143.839,-113.379 L 143.933,-112.938 L 143.933,-112.486 L 143.839,-112.045 L 143.656,-111.632 L 143.39,-111.267 L 143.055,-110.965 L 142.664,-110.739 L 142.235,-110.6 L 141.786,-110.553 L 141.337,-110.6 M 140.326,-82.7522 L 140.326,-102.672 L 143.246,-102.672 L 143.246,-82.7522 L 140.326,-82.7522 M 4.54001,-82.7522 L 4.54001,-102.672 L 7.45999,-102.672 L 7.45999,-82.7522 L 4.54001,-82.7522" stroke="#0000ff" fill="none" stroke-width="0.1"/><path d="M 137.368,-138.932 L 137.449,-138.944 L 137.528,-138.966 L 137.605,-138.995 L 137.678,-139.032 L 137.747,-139.077 L 137.811,-139.129 L 137.869,-139.187 L 137.921,-139.251 L 137.965,-139.32 L 138.003,-139.393 L 138.032,-139.47 L 138.053,-139.549 L 138.066,-139.63 L 138.07,-139.712 L 138.066,-139.794 L 138.053,-139.875 L 138.032,-139.955 L 138.003,-140.031 L 137.965,-140.105 L 137.921,-140.173 L 137.869,-140.237 L 137.811,-140.295 L 137.747,-140.347 L 137.678,-140.392 L 137.605,-140.429 L 137.528,-140.459 L 137.449,-140.48 L 137.368,-140.493 L 137.286,-140.497 L 137.204,-140.493 L 137.122,-140.48 L 137.043,-140.459 L 136.966,-140.429 L 136.893,-140.392 L 136.824,-140.347 L 136.76,-140.295 L 136.702,-140.237 L 136.651,-140.173 L 136.606,-140.105 L 136.569,-140.031 L 136.539,-139.955 L 136.518,-139.875 L 136.505,-139.794 L 136.501,-139.712 L 136.505,-139.63 L 136.518,-139.549 L 136.539,-139.47 L 136.569,-139.393 L 136.606,-139.32 L 136.651,-139.251 L 136.702,-139.187 L 136.76,-139.129 L 136.824,-139.077 L 136.893,-139.032 L 136.966,-138.995 L 137.043,-138.966 L 137.122,-138.944 L 137.204,-138.932 L 137.286,-138.927 L 137.368,-138.932 M 137.959,-85.7121 L 136.501,-86.4415 L 136.501,-84.9828 L 137.959,-85.7121 M 144.645,-75.5621 L 143.526,-76.495 L 143.526,-76.0346 L 140.376,-76.0346 L 140.376,-75.0896 L 143.526,-75.0896 L 143.526,-74.6293 L 144.645,-75.5621" stroke="none" fill="#000000" stroke-width="0.5"/><path d="M 156.551,-69.09 L 159.228,-69.09 L 159.228,-72.27 L 157.878,-72.27 L 157.878,-75.49 L 159.228,-75.49 L 159.228,-79.09 L 163.548,-79.09 L 163.548,-75.49 L 164.898,-75.49 L 164.898,-72.27 L 163.548,-72.27 L 163.548,-69.09 L 166.225,-69.09 L 166.225,-66.09 L 169.689,-66.09 L 169.689,-69.09 L 177.332,-69.09 L 177.332,-89.27 L 174.332,-89.27 L 174.332,-97.02 L 171.152,-97.02 L 171.152,-95.67 L 167.932,-95.67 L 167.932,-97.02 L 164.332,-97.02 L 164.332,-101.34 L 167.932,-101.34 L 167.932,-102.69 L 171.152,-102.69 L 171.152,-101.34 L 174.332,-101.34 L 174.332,-109.09 L 177.332,-109.09 L 177.332,-129.27 L 169.689,-129.27 L 169.689,-132.27 L 166.225,-132.27 L 166.225,-129.27 L 163.548,-129.27 L 163.548,-126.09 L 164.898,-126.09 L 164.898,-122.87 L 163.548,-122.87 L 163.548,-119.27 L 159.228,-119.27 L 159.228,-122.87 L 157.878,-122.87 L 157.878,-126.09 L 159.228,-126.09 L 159.228,-129.27 L 156.551,-129.27 L 156.551,-132.27 L 153.087,-132.27 L 153.087,-129.27 L 147.876,-129.27 M 147.876,-69.09 L 153.087,-69.09 L 153.087,-66.09 L 156.551,-66.09 L 156.551,-69.09 M 153.417,-97.0677 L 152.987,-97.2072 L 152.596,-97.4329 L 152.261,-97.735 L 151.995,-98.1003 L 151.812,-98.5127 L 151.718,-98.9542 L 151.718,-99.4057 L 151.812,-99.8473 L 151.995,-100.26 L 152.261,-100.625 L 152.596,-100.927 L 152.987,-101.153 L 153.417,-101.292 L 153.866,-101.339 L 154.315,-101.292 L 154.744,-101.153 L 155.135,-100.927 L 155.47,-100.625 L 155.736,-100.26 L 155.919,-99.8473 L 156.013,-99.4057 L 156.013,-98.9542 L 155.919,-98.5127 L 155.736,-98.1003 L 155.47,-97.735 L 155.135,-97.4329 L 154.744,-97.2072 L 154.315,-97.0677 L 153.866,-97.0205 L 153.417,-97.0677" stroke="#0000ff" fill="none" stroke-width="0.1"/><path d="M 156.551,-2.91 L 159.228,-2.91 L 159.228,-6.09 L 157.878,-6.09 L 157.878,-9.31 L 159.228,-9.31 L 159.228,-12.91 L 163.548,-12.91 L 163.548,-9.31 L 164.898,-9.31 L 164.898,-6.09 L 163.548,-6.09 L 163.548,-2.91 L 166.225,-2.91 L 166.225,0.0899963 L 169.689,0.0899963 L 169.689,-2.91 L 177.332,-2.91 L 177.332,-23.09 L 174.332,-23.09 L 174.332,-30.84 L 171.152,-30.84 L 171.152,-29.49 L 167.932,-29.49 L 167.932,-30.84 L 164.332,-30.84 L 164.332,-35.16 L 167.932,-35.16 L 167.932,-36.51 L 171.152,-36.51 L 171.152,-35.16 L 174.332,-35.16 L 174.332,-42.91 L 177.332,-42.91 L 177.332,-63.09 L 169.689,-63.09 L 169.689,-66.09 M 166.225,-66.09 L 166.225,-63.09 L 163.548,-63.09 L 163.548,-59.91 L 164.898,-59.91 L 164.898,-56.69 L 163.548,-56.69 L 163.548,-53.09 L 159.228,-53.09 L 159.228,-56.69 L 157.878,-56.69 L 157.878,-59.91 L 159.228,-59.91 L 159.228,-63.09 L 156.551,-63.09 L 156.551,-66.09 M 153.087,-66.09 L 153.087,-63.09 L 147.876,-63.09 M 147.876,-154.102 L 147.876,0.0899963 M 147.876,-2.91 L 153.087,-2.91 L 153.087,0.0899963 L 156.551,0.0899963 L 156.551,-2.91 M 153.417,-30.8877 L 152.987,-31.0272 L 152.596,-31.2529 L 152.261,-31.555 L 151.995,-31.9203 L 151.812,-32.3327 L 151.718,-32.7743 L 151.718,-33.2258 L 151.812,-33.6673 L 151.995,-34.0797 L 152.261,-34.445 L 152.596,-34.7471 L 152.987,-34.9728 L 153.417,-35.1123 L 153.866,-35.1595 L 154.315,-35.1123 L 154.744,-34.9728 L 155.135,-34.7471 L 155.47,-34.445 L 155.736,-34.0797 L 155.919,-33.6673 L 156.013,-33.2258 L 156.013,-32.7743 L 155.919,-32.3327 L 155.736,-31.9203 L 155.47,-31.555 L 155.135,-31.2529 L 154.744,-31.0272 L 154.315,-30.8877 L 153.866,-30.8405 L 153.417,-30.8877" stroke="#0000ff" fill="none" stroke-width="0.1"/><path d="M 150.348,-54.65 L 150.149,-54.6734 L 150.318,-54.9389 L 150.346,-55.1169 L 150.304,-55.3218 L 150.179,-55.4768 L 149.979,-55.5801 L 149.706,-55.617 L 149.703,-55.617 L 149.426,-55.5794 L 149.224,-55.474 L 149.099,-55.3184 L 149.057,-55.1201 L 149.088,-54.9599 L 149.294,-54.678 L 149.026,-54.678 L 148.857,-54.7031 L 148.716,-54.7876 L 148.628,-54.9243 L 148.6,-55.0988 L 148.657,-55.329 L 148.746,-55.4303 L 148.641,-55.5023 L 148.606,-55.4673 L 148.54,-55.352 L 148.495,-55.2158 L 148.48,-55.0765 L 148.497,-54.8981 L 148.546,-54.7484 L 148.624,-54.6301 L 148.729,-54.5428 L 148.86,-54.4876 L 149.022,-54.468 L 150.348,-54.468 L 150.348,-54.65 M 149.369,-54.678 L 149.229,-54.8267 L 149.188,-55.0222 L 149.223,-55.1866 L 149.331,-55.3134 L 149.49,-55.387 L 149.684,-55.4095 L 149.899,-55.387 L 150.066,-55.3132 L 150.177,-55.1857 L 150.214,-55.0192 L 150.172,-54.8263 L 150.032,-54.678 L 149.369,-54.678 M 152.189,-55.3761 L 152.808,-54.7895 L 152.989,-54.6398 L 153.139,-54.546 L 153.27,-54.4959 L 153.392,-54.48 L 153.594,-54.516 L 153.735,-54.618 L 153.826,-54.7861 L 153.859,-55.027 L 153.84,-55.1923 L 153.786,-55.3369 L 153.7,-55.4546 L 153.588,-55.5424 L 153.455,-55.5969 L 153.397,-55.6041 L 153.397,-55.3941 L 153.469,-55.3838 L 153.605,-55.3099 L 153.698,-55.188 L 153.728,-55.0339 L 153.703,-54.8891 L 153.623,-54.7764 L 153.503,-54.7088 L 153.356,-54.688 L 153.232,-54.7078 L 153.111,-54.7634 L 152.986,-54.8493 L 152.847,-54.9668 L 152.196,-55.577 L 152.056,-55.577 L 152.056,-54.416 L 152.189,-54.416 L 152.189,-55.3761 M 156.347,-54.9401 L 156.308,-55.0853 L 156.023,-55.3512 L 156.348,-55.3692 L 156.348,-55.561 L 155.056,-55.561 L 155.056,-55.352 L 155.946,-55.352 L 156.103,-55.2016 L 156.148,-54.9812 L 156.145,-54.9224 L 156.345,-54.9192 L 156.347,-54.9401 M 156.01,-53.5494 L 156.194,-53.6581 L 156.307,-53.828 L 156.347,-54.0632 L 156.327,-54.2262 L 156.268,-54.3689 L 156.174,-54.4859 L 156.046,-54.5741 L 155.887,-54.6297 L 155.7,-54.6491 L 155.675,-54.6491 L 155.415,-54.6035 L 155.223,-54.4742 L 155.099,-54.2753 L 155.056,-54.0152 L 155.071,-53.8632 L 155.117,-53.7256 L 155.188,-53.6115 L 155.23,-53.5725 L 155.319,-53.6512 L 155.236,-53.7525 L 155.187,-53.9902 L 155.214,-54.1564 L 155.298,-54.2937 L 155.426,-54.3899 L 155.687,-54.4663 L 155.687,-53.5101 L 155.742,-53.5101 L 156.01,-53.5494 M 155.772,-53.7111 L 155.772,-54.4614 L 156.013,-54.3905 L 156.123,-54.313 L 156.193,-54.1991 L 156.215,-54.063 L 156.195,-53.9227 L 156.13,-53.8087 L 156.023,-53.7353 L 155.897,-53.7111 L 155.772,-53.7111 M 153.462,-52.926 L 153.682,-53.0382 L 153.813,-53.2113 L 153.858,-53.4563 L 153.812,-53.7006 L 153.681,-53.8741 L 153.456,-53.9853 L 153.12,-54.0254 L 152.777,-54.0254 L 152.454,-53.9828 L 152.233,-53.8714 L 152.102,-53.6984 L 152.057,-53.4534 L 152.103,-53.2061 L 152.236,-53.033 L 152.462,-52.9229 L 152.796,-52.8833 L 153.14,-52.8833 L 153.462,-52.926 M 152.718,-53.0914 L 152.507,-53.1107 L 152.338,-53.1692 L 152.224,-53.2856 L 152.186,-53.4537 L 152.225,-53.6232 L 152.344,-53.7409 L 152.519,-53.7999 L 152.738,-53.8174 L 153.213,-53.8174 L 153.42,-53.7965 L 153.583,-53.7352 L 153.692,-53.6189 L 153.728,-53.4562 L 153.691,-53.2892 L 153.577,-53.1707 L 153.404,-53.1094 L 153.183,-53.0914 L 152.718,-53.0914 M 150.875,-53.7689 L 150.908,-53.7914 L 150.931,-53.8294 L 150.94,-53.8872 L 150.931,-53.9458 L 150.908,-53.9836 L 150.876,-54.0056 L 150.832,-54.0137 L 150.786,-54.0052 L 150.753,-53.9821 L 150.73,-53.9442 L 150.721,-53.8872 L 150.73,-53.8301 L 150.753,-53.7922 L 150.786,-53.7692 L 150.832,-53.7607 L 150.875,-53.7689 M 150.348,-53.9922 L 149.056,-53.9922 L 149.056,-53.7822 L 150.348,-53.7822 L 150.348,-53.9922 M 149.195,-52.772 L 149.207,-52.87 L 149.255,-52.9546 L 149.34,-52.9973 L 149.43,-53.0074 L 150.243,-53.0074 L 150.243,-52.7584 L 150.348,-52.7584 L 150.348,-53.0074 L 150.732,-53.0074 L 150.732,-53.2154 L 150.348,-53.2154 L 150.348,-53.4285 L 150.243,-53.4285 L 150.243,-53.2154 L 149.39,-53.2154 L 149.139,-53.1272 L 149.057,-52.8781 L 149.064,-52.7835 L 149.072,-52.7444 L 149.196,-52.7444 L 149.195,-52.772 M 156.348,-52.3551 L 155.103,-52.6939 L 156.348,-53.0327 L 156.348,-53.245 L 155.056,-52.8141 L 155.056,-52.5728 L 156.348,-52.1427 L 156.348,-52.3551 M 152.189,-52.2629 L 152.808,-51.6762 L 152.989,-51.5266 L 153.139,-51.4327 L 153.27,-51.3826 L 153.392,-51.3667 L 153.594,-51.4027 L 153.735,-51.5047 L 153.826,-51.6728 L 153.859,-51.9137 L 153.84,-52.079 L 153.786,-52.2236 L 153.7,-52.3414 L 153.588,-52.4292 L 153.455,-52.4836 L 153.397,-52.4909 L 153.397,-52.2808 L 153.469,-52.2706 L 153.605,-52.1966 L 153.698,-52.0747 L 153.728,-51.9206 L 153.703,-51.7758 L 153.623,-51.6632 L 153.503,-51.5955 L 153.356,-51.5747 L 153.232,-51.5945 L 153.111,-51.6501 L 152.986,-51.736 L 152.847,-51.8535 L 152.196,-52.4637 L 152.056,-52.4637 L 152.056,-51.3027 L 152.189,-51.3027 L 152.189,-52.2629 M 150.233,-51.4154 L 150.344,-51.7056 L 150.308,-51.8725 L 150.068,-52.1764 L 150.924,-52.1764 L 150.924,-52.3844 L 149.056,-52.3844 L 149.056,-52.1764 L 150.028,-52.1764 L 150.171,-52.0309 L 150.213,-51.8431 L 150.193,-51.7007 L 150.125,-51.5925 L 150.014,-51.5327 L 149.884,-51.5164 L 149.056,-51.5164 L 149.056,-51.3084 L 149.878,-51.3084 L 150.233,-51.4154 M 155.219,-51.729 L 155.255,-51.7543 L 155.279,-51.7942 L 155.288,-51.8494 L 155.279,-51.9035 L 155.255,-51.9435 L 155.219,-51.9681 L 155.172,-51.9769 L 155.124,-51.9681 L 155.09,-51.9438 L 155.066,-51.9044 L 155.057,-51.8494 L 155.066,-51.7928 L 155.09,-51.7531 L 155.124,-51.7289 L 155.171,-51.7201 L 155.219,-51.729 M 150.348,-50.0009 L 149.378,-50.0009 L 149.231,-50.1511 L 149.186,-50.3687 L 149.266,-50.59 L 149.491,-50.6589 L 150.348,-50.6589 L 150.348,-50.8669 L 149.497,-50.8669 L 149.293,-50.8379 L 149.162,-50.7641 L 149.085,-50.6476 L 149.057,-50.4762 L 149.093,-50.2861 L 149.313,-49.9977 L 149.056,-49.9814 L 149.056,-49.7909 L 150.348,-49.7909 L 150.348,-50.0009 M 153.568,-50.8161 L 153.438,-50.8161 L 153.589,-50.3521 L 152.056,-50.3521 L 152.056,-50.1441 L 153.833,-50.1441 L 153.568,-50.8161 M 156.86,-50.6016 L 156.726,-50.6016 L 156.726,-49.5789 L 155.056,-50.3369 L 155.056,-50.126 L 156.751,-49.4006 L 156.86,-49.4006 L 156.86,-50.6016 M 149.991,-48.2455 L 150.189,-48.3431 L 150.306,-48.4901 L 150.346,-48.6885 L 150.314,-48.8484 L 150.101,-49.1313 L 150.924,-49.1313 L 150.924,-49.3403 L 149.056,-49.3403 L 149.056,-49.1609 L 149.28,-49.1361 L 149.089,-48.8629 L 149.057,-48.6862 L 149.097,-48.487 L 149.214,-48.3413 L 149.411,-48.245 L 149.694,-48.2103 L 149.704,-48.2103 L 149.991,-48.2455 M 149.553,-48.4257 L 149.421,-48.4515 L 149.245,-48.5716 L 149.186,-48.781 L 149.234,-48.9891 L 149.391,-49.1313 L 150.01,-49.1313 L 150.166,-48.9911 L 150.214,-48.7876 L 150.181,-48.6248 L 150.078,-48.5036 L 149.92,-48.4375 L 149.718,-48.4181 L 149.553,-48.4257 M 152.9,-49.3354 L 152.767,-49.3354 L 152.767,-48.7594 L 152.9,-48.7594 L 152.9,-49.3354 M 156.568,-48.903 L 156.438,-48.903 L 156.589,-48.439 L 155.056,-48.439 L 155.056,-48.231 L 156.833,-48.231 L 156.568,-48.903 M 153.462,-47.2044 L 153.682,-47.3165 L 153.813,-47.4896 L 153.858,-47.7346 L 153.812,-47.9789 L 153.681,-48.1524 L 153.456,-48.2636 L 153.12,-48.3037 L 152.777,-48.3037 L 152.454,-48.2612 L 152.233,-48.1497 L 152.102,-47.9767 L 152.057,-47.7318 L 152.103,-47.4844 L 152.236,-47.3113 L 152.462,-47.2013 L 152.796,-47.1617 L 153.14,-47.1617 L 153.462,-47.2044 M 152.718,-47.3697 L 152.507,-47.3891 L 152.338,-47.4475 L 152.224,-47.5639 L 152.186,-47.732 L 152.225,-47.9015 L 152.344,-48.0193 L 152.519,-48.0783 L 152.738,-48.0957 L 153.213,-48.0957 L 153.42,-48.0748 L 153.583,-48.0135 L 153.692,-47.8972 L 153.728,-47.7345 L 153.691,-47.5675 L 153.577,-47.449 L 153.404,-47.3877 L 153.183,-47.3697 L 152.718,-47.3697 M 149.219,-47.5435 L 149.255,-47.5688 L 149.279,-47.6086 L 149.288,-47.6638 L 149.279,-47.718 L 149.255,-47.7579 L 149.219,-47.7825 L 149.172,-47.7914 L 149.124,-47.7826 L 149.09,-47.7582 L 149.066,-47.7189 L 149.057,-47.6638 L 149.066,-47.6073 L 149.09,-47.5676 L 149.124,-47.5433 L 149.171,-47.5345 L 149.219,-47.5435 M 156.462,-46.343 L 156.682,-46.4552 L 156.813,-46.6283 L 156.858,-46.8733 L 156.812,-47.1176 L 156.681,-47.291 L 156.456,-47.4023 L 156.12,-47.4424 L 155.777,-47.4424 L 155.454,-47.3998 L 155.233,-47.2884 L 155.102,-47.1154 L 155.057,-46.8704 L 155.103,-46.623 L 155.236,-46.45 L 155.462,-46.3399 L 155.796,-46.3003 L 156.14,-46.3003 L 156.462,-46.343 M 155.718,-46.5083 L 155.507,-46.5277 L 155.338,-46.5862 L 155.224,-46.7026 L 155.186,-46.8707 L 155.225,-47.0401 L 155.344,-47.1579 L 155.519,-47.2169 L 155.738,-47.2343 L 156.213,-47.2343 L 156.42,-47.2135 L 156.583,-47.1522 L 156.692,-47.0358 L 156.728,-46.8732 L 156.691,-46.7062 L 156.577,-46.5877 L 156.404,-46.5264 L 156.183,-46.5083 L 155.718,-46.5083 M 149.393,-46.1937 L 149.36,-46.201 L 149.264,-46.2767 L 149.206,-46.384 L 149.187,-46.512 L 149.218,-46.6713 L 149.317,-46.7934 L 149.475,-46.8583 L 149.678,-46.8769 L 149.725,-46.8769 L 149.926,-46.8579 L 150.084,-46.7924 L 150.184,-46.6721 L 150.215,-46.5142 L 150.192,-46.3804 L 150.122,-46.2714 L 150.014,-46.1994 L 149.973,-46.1914 L 149.973,-46.0098 L 150.073,-46.0291 L 150.218,-46.1314 L 150.313,-46.2912 L 150.346,-46.5049 L 150.303,-46.7496 L 150.179,-46.9292 L 149.983,-47.0439 L 149.712,-47.0849 L 149.7,-47.0849 L 149.42,-47.0434 L 149.222,-46.9274 L 149.099,-46.7474 L 149.056,-46.4998 L 149.071,-46.3633 L 149.113,-46.2386 L 149.18,-46.1351 L 149.268,-46.0578 L 149.371,-46.009 L 149.393,-46.0058 L 149.393,-46.1937 M 153.86,-46.793 L 153.726,-46.793 L 153.726,-45.7703 L 152.056,-46.5283 L 152.056,-46.3174 L 153.751,-45.592 L 153.86,-45.592 L 153.86,-46.793 M 155.393,-45.0336 L 155.36,-45.0408 L 155.264,-45.1165 L 155.206,-45.2238 L 155.187,-45.3518 L 155.218,-45.5112 L 155.317,-45.6333 L 155.475,-45.6981 L 155.678,-45.7167 L 155.725,-45.7167 L 155.926,-45.6978 L 156.084,-45.6323 L 156.184,-45.5119 L 156.215,-45.354 L 156.192,-45.2202 L 156.122,-45.1112 L 156.014,-45.0392 L 155.973,-45.0312 L 155.973,-44.8496 L 156.073,-44.8689 L 156.218,-44.9712 L 156.313,-45.131 L 156.346,-45.3448 L 156.303,-45.5894 L 156.179,-45.7691 L 155.983,-45.8838 L 155.712,-45.9247 L 155.7,-45.9247 L 155.42,-45.8832 L 155.222,-45.7673 L 155.099,-45.5872 L 155.056,-45.3396 L 155.071,-45.2031 L 155.113,-45.0784 L 155.18,-44.9749 L 155.268,-44.8976 L 155.371,-44.8489 L 155.393,-44.8456 L 155.393,-45.0336 M 149.773,-44.4755 L 150.017,-44.5318 L 150.195,-44.656 L 150.308,-44.8383 L 150.347,-45.0759 L 150.327,-45.2459 L 150.268,-45.3922 L 150.175,-45.5091 L 150.049,-45.5959 L 149.894,-45.6507 L 149.71,-45.6698 L 149.704,-45.6698 L 149.426,-45.6268 L 149.226,-45.5061 L 149.1,-45.319 L 149.057,-45.0708 L 149.1,-44.823 L 149.226,-44.6365 L 149.424,-44.5157 L 149.693,-44.473 L 149.773,-44.4755 M 149.494,-44.7027 L 149.327,-44.7772 L 149.221,-44.9052 L 149.187,-45.0707 L 149.221,-45.2392 L 149.328,-45.3672 L 149.488,-45.4402 L 149.687,-45.4623 L 149.904,-45.4405 L 150.071,-45.3681 L 150.18,-45.2409 L 150.216,-45.0739 L 150.18,-44.9054 L 150.073,-44.7776 L 149.912,-44.7031 L 149.715,-44.6803 L 149.494,-44.7027 M 152.9,-45.1704 L 152.767,-45.1704 L 152.767,-44.5944 L 152.9,-44.5944 L 152.9,-45.1704 M 156.86,-44.5167 L 156.726,-44.5167 L 156.726,-43.494 L 155.056,-44.252 L 155.056,-44.0411 L 156.751,-43.3157 L 156.86,-43.3157 L 156.86,-44.5167 M 153.462,-43.0393 L 153.682,-43.1514 L 153.813,-43.3246 L 153.858,-43.5696 L 153.812,-43.8139 L 153.681,-43.9873 L 153.456,-44.0986 L 153.12,-44.1386 L 152.777,-44.1386 L 152.454,-44.0961 L 152.233,-43.9847 L 152.102,-43.8117 L 152.057,-43.5667 L 152.103,-43.3193 L 152.236,-43.1463 L 152.462,-43.0362 L 152.796,-42.9966 L 153.14,-42.9966 L 153.462,-43.0393 M 152.718,-43.2046 L 152.507,-43.224 L 152.338,-43.2825 L 152.224,-43.3989 L 152.186,-43.567 L 152.225,-43.7364 L 152.344,-43.8542 L 152.519,-43.9132 L 152.738,-43.9306 L 153.213,-43.9306 L 153.42,-43.9097 L 153.583,-43.8485 L 153.692,-43.7321 L 153.728,-43.5695 L 153.691,-43.4025 L 153.577,-43.284 L 153.404,-43.2226 L 153.183,-43.2046 L 152.718,-43.2046 M 150.103,-42.1981 L 150.24,-42.2678 L 150.318,-42.378 L 150.346,-42.5463 L 150.3,-42.7577 L 150.091,-42.9926 L 150.301,-43.1825 L 150.346,-43.3731 L 150.306,-43.5693 L 150.075,-43.8686 L 150.348,-43.8861 L 150.348,-44.0757 L 149.056,-44.0757 L 149.056,-43.8666 L 150.021,-43.8666 L 150.169,-43.7274 L 150.213,-43.5421 L 150.194,-43.4046 L 150.129,-43.2999 L 150.019,-43.2436 L 149.89,-43.2287 L 149.056,-43.2287 L 149.056,-43.0207 L 149.987,-43.0217 L 150.159,-42.891 L 150.213,-42.6958 L 150.194,-42.5542 L 150.127,-42.4504 L 150.018,-42.3953 L 149.891,-42.3806 L 149.056,-42.3806 L 149.056,-42.1716 L 149.883,-42.1716 L 150.103,-42.1981 M 155.884,-41.7747 L 156.066,-41.8715 L 156.18,-42.016 L 156.218,-42.2068 L 156.185,-42.3888 L 155.932,-42.7634 L 156.399,-42.616 L 156.576,-42.4633 L 156.683,-42.2475 L 156.713,-42.035 L 156.856,-42.035 L 156.828,-42.2661 L 156.737,-42.4858 L 156.594,-42.6644 L 156.401,-42.7969 L 156.162,-42.8795 L 155.88,-42.908 L 155.753,-42.908 L 155.457,-42.864 L 155.24,-42.7396 L 155.103,-42.551 L 155.057,-42.3048 L 155.075,-42.1495 L 155.13,-42.0113 L 155.219,-41.8978 L 155.336,-41.813 L 155.48,-41.7589 L 155.64,-41.7407 L 155.884,-41.7747 M 155.466,-41.9691 L 155.322,-42.0419 L 155.22,-42.162 L 155.186,-42.3162 L 155.224,-42.4822 L 155.336,-42.6069 L 155.499,-42.677 L 155.693,-42.698 L 155.842,-42.698 L 155.95,-42.6308 L 156.024,-42.5441 L 156.072,-42.4394 L 156.089,-42.3209 L 156.056,-42.1664 L 155.956,-42.0435 L 155.811,-41.9694 L 155.638,-41.9462 L 155.466,-41.9691 M 152.884,-41.4427 L 153.066,-41.5395 L 153.18,-41.6839 L 153.218,-41.8748 L 153.185,-42.0567 L 152.932,-42.4314 L 153.399,-42.284 L 153.576,-42.1313 L 153.683,-41.9155 L 153.713,-41.703 L 153.856,-41.703 L 153.828,-41.934 L 153.737,-42.1538 L 153.594,-42.3323 L 153.401,-42.4649 L 153.162,-42.5475 L 152.88,-42.576 L 152.753,-42.576 L 152.457,-42.532 L 152.24,-42.4075 L 152.103,-42.2189 L 152.057,-41.9728 L 152.075,-41.8174 L 152.13,-41.6792 L 152.219,-41.5658 L 152.336,-41.481 L 152.48,-41.4269 L 152.64,-41.4087 L 152.884,-41.4427 M 152.466,-41.637 L 152.322,-41.7099 L 152.22,-41.8299 L 152.186,-41.9841 L 152.224,-42.1502 L 152.336,-42.2749 L 152.499,-42.345 L 152.693,-42.366 L 152.842,-42.366 L 152.95,-42.2987 L 153.024,-42.2121 L 153.072,-42.1074 L 153.089,-41.9888 L 153.056,-41.8344 L 152.956,-41.7114 L 152.811,-41.6373 L 152.638,-41.6142 L 152.466,-41.637 M 150.86,-41.198 L 148.864,-41.8584 L 148.864,-41.76 L 150.86,-41.0986 L 150.86,-41.198 M 156.924,-40.4764 L 156.099,-40.4764 L 156.314,-40.7611 L 156.346,-40.9172 L 156.305,-41.1137 L 156.183,-41.2623 L 155.983,-41.361 L 155.711,-41.3957 L 155.425,-41.3602 L 155.22,-41.2593 L 155.098,-41.1108 L 155.057,-40.9182 L 155.089,-40.7477 L 155.279,-40.4753 L 155.056,-40.4478 L 155.056,-40.2664 L 156.924,-40.2664 L 156.924,-40.4764 M 155.391,-40.4764 L 155.235,-40.6192 L 155.187,-40.8195 L 155.223,-40.9824 L 155.33,-41.1026 L 155.489,-41.1688 L 155.69,-41.1894 L 156.073,-41.1072 L 156.217,-40.829 L 156.166,-40.617 L 156.01,-40.4764 L 155.391,-40.4764 M 149.578,-39.7909 L 149.705,-39.9849 L 149.734,-40.0796 L 149.763,-40.2104 L 149.794,-40.3424 L 149.838,-40.4464 L 149.91,-40.5221 L 150.01,-40.5501 L 150.113,-40.5271 L 150.191,-40.4608 L 150.238,-40.3651 L 150.251,-40.2519 L 150.235,-40.1243 L 150.177,-40.0223 L 150.087,-39.959 L 150.07,-39.9558 L 150.07,-39.7549 L 150.122,-39.7668 L 150.237,-39.8648 L 150.318,-40.0285 L 150.347,-40.251 L 150.319,-40.4585 L 150.239,-40.6142 L 150.127,-40.7086 L 150.006,-40.7365 L 149.796,-40.6354 L 149.65,-40.2842 L 149.617,-40.1501 L 149.572,-40.0387 L 149.499,-39.9541 L 149.39,-39.9222 L 149.284,-39.9479 L 149.205,-40.0202 L 149.162,-40.1211 L 149.15,-40.2421 L 149.166,-40.3742 L 149.219,-40.4882 L 149.314,-40.5691 L 149.354,-40.5792 L 149.354,-40.7715 L 149.348,-40.7706 L 149.257,-40.7227 L 149.175,-40.6439 L 149.111,-40.5373 L 149.07,-40.4045 L 149.056,-40.2508 L 149.083,-40.0295 L 149.161,-39.8635 L 149.27,-39.7631 L 149.4,-39.7319 L 149.578,-39.7909 M 149.393,-38.4877 L 149.36,-38.4949 L 149.264,-38.5706 L 149.206,-38.6779 L 149.187,-38.8059 L 149.218,-38.9653 L 149.317,-39.0874 L 149.475,-39.1522 L 149.678,-39.1708 L 149.725,-39.1708 L 149.926,-39.1519 L 150.084,-39.0864 L 150.184,-38.966 L 150.215,-38.8082 L 150.192,-38.6743 L 150.122,-38.5653 L 150.014,-38.4933 L 149.973,-38.4854 L 149.973,-38.3037 L 150.073,-38.323 L 150.218,-38.4253 L 150.313,-38.5851 L 150.346,-38.7989 L 150.303,-39.0435 L 150.179,-39.2232 L 149.983,-39.3379 L 149.712,-39.3788 L 149.7,-39.3788 L 149.42,-39.3373 L 149.222,-39.2214 L 149.099,-39.0413 L 149.056,-38.7937 L 149.071,-38.6572 L 149.113,-38.5325 L 149.18,-38.429 L 149.268,-38.3517 L 149.371,-38.303 L 149.393,-38.2997 L 149.393,-38.4877 M 149.773,-36.7694 L 150.017,-36.8258 L 150.195,-36.9499 L 150.308,-37.1322 L 150.347,-37.3699 L 150.327,-37.5398 L 150.268,-37.6861 L 150.175,-37.8031 L 150.049,-37.8899 L 149.894,-37.9446 L 149.71,-37.9638 L 149.704,-37.9638 L 149.426,-37.9208 L 149.226,-37.8 L 149.1,-37.6129 L 149.057,-37.3647 L 149.1,-37.117 L 149.226,-36.9304 L 149.424,-36.8096 L 149.693,-36.767 L 149.773,-36.7694 M 149.494,-36.9967 L 149.327,-37.0711 L 149.221,-37.1992 L 149.187,-37.3647 L 149.221,-37.5332 L 149.328,-37.6611 L 149.488,-37.7341 L 149.687,-37.7563 L 149.904,-37.7344 L 150.071,-37.6621 L 150.18,-37.5348 L 150.216,-37.3679 L 150.18,-37.1994 L 150.073,-37.0716 L 149.912,-36.997 L 149.715,-36.9742 L 149.494,-36.9967 M 149.195,-35.8492 L 149.207,-35.9471 L 149.255,-36.0317 L 149.34,-36.0745 L 149.43,-36.0846 L 150.243,-36.0846 L 150.243,-35.8356 L 150.348,-35.8356 L 150.348,-36.0846 L 150.732,-36.0846 L 150.732,-36.2926 L 150.348,-36.2926 L 150.348,-36.5056 L 150.243,-36.5056 L 150.243,-36.2926 L 149.39,-36.2926 L 149.139,-36.2043 L 149.057,-35.9552 L 149.064,-35.8607 L 149.072,-35.8216 L 149.196,-35.8216 L 149.195,-35.8492 M 149.195,-34.9322 L 149.207,-35.0301 L 149.255,-35.1147 L 149.34,-35.1575 L 149.43,-35.1676 L 150.243,-35.1676 L 150.243,-34.9186 L 150.348,-34.9186 L 150.348,-35.1676 L 150.732,-35.1676 L 150.732,-35.3756 L 150.348,-35.3756 L 150.348,-35.5886 L 150.243,-35.5886 L 150.243,-35.3756 L 149.39,-35.3756 L 149.139,-35.2874 L 149.057,-35.0383 L 149.064,-34.9437 L 149.072,-34.9046 L 149.196,-34.9046 L 149.195,-34.9322 M 149.991,-33.4408 L 150.189,-33.5384 L 150.306,-33.6855 L 150.346,-33.8838 L 150.314,-34.0437 L 150.101,-34.3266 L 150.924,-34.3266 L 150.924,-34.5356 L 149.056,-34.5356 L 149.056,-34.3562 L 149.28,-34.3314 L 149.089,-34.0582 L 149.057,-33.8815 L 149.097,-33.6823 L 149.214,-33.5366 L 149.411,-33.4403 L 149.694,-33.4056 L 149.704,-33.4056 L 149.991,-33.4408 M 149.553,-33.621 L 149.421,-33.6468 L 149.245,-33.7669 L 149.186,-33.9763 L 149.234,-34.1844 L 149.391,-34.3266 L 150.01,-34.3266 L 150.166,-34.1864 L 150.214,-33.9829 L 150.181,-33.8201 L 150.078,-33.699 L 149.92,-33.6328 L 149.718,-33.6134 L 149.553,-33.621 M 150.01,-31.9605 L 150.194,-32.0693 L 150.307,-32.2391 L 150.347,-32.4743 L 150.327,-32.6374 L 150.268,-32.78 L 150.174,-32.897 L 150.046,-32.9853 L 149.887,-33.0408 L 149.7,-33.0603 L 149.675,-33.0603 L 149.415,-33.0147 L 149.223,-32.8854 L 149.099,-32.6865 L 149.056,-32.4263 L 149.071,-32.2743 L 149.117,-32.1367 L 149.188,-32.0227 L 149.23,-31.9837 L 149.319,-32.0623 L 149.236,-32.1636 L 149.187,-32.4014 L 149.214,-32.5676 L 149.298,-32.7048 L 149.426,-32.801 L 149.687,-32.8774 L 149.687,-31.9213 L 149.742,-31.9213 L 150.01,-31.9605 M 149.772,-32.1223 L 149.772,-32.8725 L 150.013,-32.8017 L 150.123,-32.7241 L 150.193,-32.6102 L 150.215,-32.4742 L 150.195,-32.3338 L 150.13,-32.2198 L 150.023,-32.1464 L 149.897,-32.1223 L 149.772,-32.1223 M 149.189,-31.3643 L 150.238,-30.5855 L 150.348,-30.5855 L 150.348,-31.5705 L 150.214,-31.5705 L 150.214,-30.8186 L 149.172,-31.5915 L 149.056,-31.5915 L 149.056,-30.5645 L 149.189,-30.5645 L 149.189,-31.3643 M 150.568,-30.0866 L 150.438,-30.0866 L 150.589,-29.6226 L 149.056,-29.6226 L 149.056,-29.4146 L 150.833,-29.4146 L 150.568,-30.0866 M 150.86,-28.0759 L 148.864,-28.7364 L 148.864,-28.6379 L 150.86,-27.9766 L 150.86,-28.0759 M 149.578,-26.6688 L 149.705,-26.8629 L 149.734,-26.9575 L 149.763,-27.0883 L 149.794,-27.2203 L 149.838,-27.3243 L 149.91,-27.4 L 150.01,-27.428 L 150.113,-27.405 L 150.191,-27.3387 L 150.238,-27.243 L 150.251,-27.1298 L 150.235,-27.0022 L 150.177,-26.9003 L 150.087,-26.8369 L 150.07,-26.8337 L 150.07,-26.6328 L 150.122,-26.6447 L 150.237,-26.7428 L 150.318,-26.9064 L 150.347,-27.129 L 150.319,-27.3364 L 150.239,-27.4922 L 150.127,-27.5865 L 150.006,-27.6145 L 149.796,-27.5133 L 149.65,-27.1622 L 149.617,-27.028 L 149.572,-26.9166 L 149.499,-26.8321 L 149.39,-26.8001 L 149.284,-26.8258 L 149.205,-26.8982 L 149.162,-26.9991 L 149.15,-27.1201 L 149.166,-27.2521 L 149.219,-27.3661 L 149.314,-27.447 L 149.354,-27.4571 L 149.354,-27.6494 L 149.348,-27.6485 L 149.257,-27.6006 L 149.175,-27.5218 L 149.111,-27.4152 L 149.07,-27.2824 L 149.056,-27.1287 L 149.083,-26.9074 L 149.161,-26.7415 L 149.27,-26.6411 L 149.4,-26.6098 L 149.578,-26.6688 M 149.987,-25.1025 L 150.186,-25.199 L 150.305,-25.3453 L 150.346,-25.5461 L 150.317,-25.7165 L 150.139,-25.9877 L 150.348,-26.0083 L 150.348,-26.1967 L 148.48,-26.1967 L 148.48,-25.9877 L 149.294,-25.9877 L 149.088,-25.7046 L 149.057,-25.5427 L 149.098,-25.3498 L 149.22,-25.2028 L 149.42,-25.1033 L 149.694,-25.0677 L 149.703,-25.0677 L 149.987,-25.1025 M 149.328,-25.3563 L 149.184,-25.6323 L 149.231,-25.8453 L 149.381,-25.9877 L 150.024,-25.9877 L 150.17,-25.8468 L 150.214,-25.6466 L 150.178,-25.4834 L 150.069,-25.3627 L 149.911,-25.2956 L 149.711,-25.2747 L 149.328,-25.3563 M 150.988,-24.6494 L 149.056,-24.6494 L 149.056,-24.4394 L 150.988,-24.4394 L 150.988,-24.6494 M 150.875,-23.7064 L 150.908,-23.7289 L 150.931,-23.7669 L 150.94,-23.8247 L 150.931,-23.8833 L 150.908,-23.9211 L 150.876,-23.9431 L 150.832,-23.9512 L 150.786,-23.9427 L 150.753,-23.9196 L 150.73,-23.8817 L 150.721,-23.8247 L 150.73,-23.7676 L 150.753,-23.7297 L 150.786,-23.7067 L 150.832,-23.6982 L 150.875,-23.7064 M 150.348,-23.9297 L 149.056,-23.9297 L 149.056,-23.7197 L 150.348,-23.7197 L 150.348,-23.9297 M 149.195,-22.7095 L 149.207,-22.8075 L 149.255,-22.8921 L 149.34,-22.9348 L 149.43,-22.9449 L 150.243,-22.9449 L 150.243,-22.6959 L 150.348,-22.6959 L 150.348,-22.9449 L 150.732,-22.9449 L 150.732,-23.1529 L 150.348,-23.1529 L 150.348,-23.366 L 150.243,-23.366 L 150.243,-23.1529 L 149.39,-23.1529 L 149.139,-23.0647 L 149.057,-22.8156 L 149.064,-22.721 L 149.072,-22.6819 L 149.196,-22.6819 L 149.195,-22.7095 M 150.977,-21.4365 L 150.987,-21.6926 L 150.956,-21.9212 L 150.872,-22.0766 L 150.739,-22.1708 L 150.542,-22.207 L 150.348,-22.207 L 150.348,-22.423 L 150.243,-22.423 L 150.243,-22.207 L 149.056,-22.207 L 149.056,-21.9969 L 150.243,-21.9969 L 150.243,-21.7079 L 150.348,-21.7079 L 150.348,-21.9969 L 150.553,-21.9969 L 150.78,-21.9088 L 150.852,-21.655 L 150.848,-21.5344 L 150.829,-21.339 L 149.056,-21.339 L 149.056,-21.129 L 150.952,-21.129 L 150.977,-21.4365 M 149.101,-19.6371 L 149.296,-19.6538 L 149.917,-19.6538 L 150.106,-19.6882 L 150.234,-19.7825 L 150.317,-19.9354 L 150.347,-20.1501 L 150.334,-20.2998 L 150.294,-20.4326 L 150.235,-20.5391 L 150.159,-20.6149 L 150.077,-20.6593 L 150.077,-20.4512 L 150.094,-20.4475 L 150.178,-20.3792 L 150.226,-20.2817 L 150.24,-20.1669 L 150.222,-20.0393 L 150.157,-19.9381 L 150.057,-19.8795 L 149.947,-19.8628 L 149.772,-19.8628 L 149.772,-20.1269 L 149.743,-20.3946 L 149.665,-20.5733 L 149.551,-20.6729 L 149.391,-20.7069 L 149.262,-20.6799 L 149.156,-20.5985 L 149.082,-20.4694 L 149.057,-20.3053 L 149.089,-20.135 L 149.273,-19.8743 L 149.058,-19.8338 L 149.056,-19.8331 L 149.056,-19.6224 L 149.101,-19.6371 M 149.365,-19.8628 L 149.275,-19.9358 L 149.218,-20.0198 L 149.183,-20.116 L 149.172,-20.2202 L 149.187,-20.327 L 149.237,-20.4192 L 149.32,-20.4814 L 149.415,-20.5003 L 149.47,-20.4977 L 149.666,-20.3788 L 149.725,-20.1084 L 149.725,-19.8628 L 149.365,-19.8628 M 149.987,-18.1025 L 150.186,-18.199 L 150.305,-18.3453 L 150.346,-18.5461 L 150.317,-18.7165 L 150.139,-18.9877 L 150.348,-19.0083 L 150.348,-19.1967 L 148.48,-19.1967 L 148.48,-18.9877 L 149.294,-18.9877 L 149.088,-18.7046 L 149.057,-18.5427 L 149.098,-18.3498 L 149.22,-18.2028 L 149.42,-18.1033 L 149.694,-18.0677 L 149.703,-18.0677 L 149.987,-18.1025 M 149.328,-18.3563 L 149.184,-18.6323 L 149.231,-18.8453 L 149.381,-18.9877 L 150.024,-18.9877 L 150.17,-18.8468 L 150.214,-18.6466 L 150.178,-18.4834 L 150.069,-18.3627 L 149.911,-18.2956 L 149.711,-18.2747 L 149.328,-18.3563" stroke="none" fill="#000000" stroke-width="0.5"/><path d="M 47.1067,-52.1921 L 62.19,-52.1921 L 62.19,-54.6421 L 65.19,-54.6421 L 65.19,-62.8221 L 62.19,-62.8221 L 62.19,-68.3221 L 46.9767,-68.3221 L 46.9767,-65.2721 L 32.1233,-65.2721 L 32.1233,-68.3221 L 16.91,-68.3221 L 16.91,-62.8221 L 13.91,-62.8221 L 13.91,-61.8221 L 10.91,-61.8221 L 10.91,-55.6421 L 13.91,-55.6421 L 13.91,-54.6421 L 16.91,-54.6421 L 16.91,-52.1921 L 31.9933,-52.1921 L 31.9933,-49.1421 L 47.1067,-49.1421 L 47.1067,-52.1921" stroke="#0000ff" fill="none" stroke-width="0.1"/><path d="M 18.1233,-157.152 L 32.9767,-157.152 L 32.9767,-154.102 M 48.19,-154.102 L 48.19,-159.602 L 51.19,-159.602 L 51.19,-160.602 L 54.19,-160.602 M 54.19,-166.782 L 51.19,-166.782 L 51.19,-167.782 L 48.19,-167.782 L 48.19,-170.232 L 33.1067,-170.232 L 33.1067,-173.282 L 17.9933,-173.282 L 17.9933,-170.232 L 2.91,-170.232 L 2.91,-167.782 L -0.0899963,-167.782 L -0.0899963,-159.602 L 2.91,-159.602 L 2.91,-154.102 M 18.1233,-154.102 L 18.1233,-157.152" stroke="#0000ff" fill="none" stroke-width="0.1"/><path d="M 72.4033,-157.152 L 87.2567,-157.152 L 87.2567,-154.102 M 102.47,-154.102 L 102.47,-159.602 L 105.47,-159.602 L 105.47,-160.602 L 108.47,-160.602 M 108.47,-166.782 L 105.47,-166.782 L 105.47,-167.782 L 102.47,-167.782 L 102.47,-170.232 L 87.3867,-170.232 L 87.3867,-173.282 L 72.2733,-173.282 L 72.2733,-170.232 L 57.19,-170.232 L 57.19,-167.782 L 54.19,-167.782 L 54.19,-159.602 L 57.19,-159.602 L 57.19,-154.102 M 72.4033,-154.102 L 72.4033,-157.152" stroke="#0000ff" fill="none" stroke-width="0.1"/><path d="M 126.683,-157.152 L 141.537,-157.152 L 141.537,-154.102 M -0.0899963,-154.102 L 156.75,-154.102 L 156.75,-159.602 L 159.75,-159.602 L 159.75,-160.602 L 162.75,-160.602 L 162.75,-166.782 L 159.75,-166.782 L 159.75,-167.782 L 156.75,-167.782 L 156.75,-170.232 L 141.667,-170.232 L 141.667,-173.282 L 126.553,-173.282 L 126.553,-170.232 L 111.47,-170.232 L 111.47,-167.782 L 108.47,-167.782 L 108.47,-159.602 L 111.47,-159.602 L 111.47,-154.102 M 126.683,-154.102 L 126.683,-157.152" stroke="#0000ff" fill="none" stroke-width="0.1"/><path d="M 150.656,-139.47 L 153.876,-139.47 L 153.876,-134.032 L 170.256,-134.032 L 170.256,-139.47 L 173.476,-139.47 L 173.476,-129.27 M 176.256,-129.27 L 176.256,-143.45 L 147.876,-143.45 M 150.656,-129.27 L 150.656,-139.47" stroke="#0000ff" fill="none" stroke-width="0.1"/><path d="M 176.256,-171.83 L 162.076,-171.83 L 162.076,-169.05 L 172.276,-169.05 L 172.276,-165.83 L 166.838,-165.83 L 166.838,-149.45 L 172.276,-149.45 L 172.276,-146.23 L 162.076,-146.23 L 162.076,-143.45 M 176.256,-143.45 L 176.256,-171.83" stroke="#0000ff" fill="none" stroke-width="0.1"/><path d="M 47.9929,-90.7592 L 50.4881,-91.1544 L 52.9283,-91.8082 L 55.2867,-92.7135 L 57.5377,-93.8604 L 59.6564,-95.2364 L 61.6197,-96.8262 L 63.406,-98.6125 L 64.9958,-100.576 L 66.3718,-102.695 L 67.5187,-104.945 L 68.424,-107.304 L 69.0779,-109.744 L 69.4731,-112.239 L 69.6053,-114.762 L 69.4731,-117.285 L 69.0779,-119.78 L 68.424,-122.22 L 67.5187,-124.579 L 66.3718,-126.83 L 64.9958,-128.948 L 63.406,-130.912 L 61.6197,-132.698 L 59.6564,-134.288 L 57.5377,-135.664 L 55.2867,-136.811 L 52.9283,-137.716 L 50.4881,-138.37 L 47.9929,-138.765 L 45.4701,-138.897 L 42.9473,-138.765 L 40.4521,-138.37 L 38.0119,-137.716 L 35.6534,-136.811 L 33.4025,-135.664 L 31.2838,-134.288 L 29.3205,-132.698 L 27.5341,-130.912 L 25.9443,-128.948 L 24.5684,-126.83 L 23.4215,-124.579 L 22.5162,-122.22 L 21.8623,-119.78 L 21.4671,-117.285 L 21.3349,-114.762 L 21.4671,-112.239 L 21.8623,-109.744 L 22.5162,-107.304 L 23.4215,-104.945 L 24.5684,-102.695 L 25.9443,-100.576 L 27.5341,-98.6125 L 29.3205,-96.8262 L 31.2838,-95.2364 L 33.4025,-93.8604 L 35.6534,-92.7135 L 38.0119,-91.8082 L 40.4521,-91.1544 L 42.9473,-90.7592 L 45.4701,-90.627 L 47.9929,-90.7592 M 44.9161,-135.448 L 44.5737,-135.756 L 44.3863,-136.177 L 44.3863,-136.638 L 44.5737,-137.058 L 44.9161,-137.367 L 45.3543,-137.509 L 45.8125,-137.461 L 46.2115,-137.231 L 46.4823,-136.858 L 46.5781,-136.407 L 46.4823,-135.957 L 46.2115,-135.584 L 45.8125,-135.353 L 45.3543,-135.305 L 44.9161,-135.448 M 41.53,-135.181 L 41.1877,-135.489 L 41.0003,-135.91 L 41.0003,-136.371 L 41.1877,-136.792 L 41.53,-137.1 L 41.9683,-137.243 L 42.4264,-137.194 L 42.8254,-136.964 L 43.0963,-136.591 L 43.192,-136.141 L 43.0963,-135.69 L 42.8254,-135.317 L 42.4264,-135.087 L 41.9683,-135.039 L 41.53,-135.181 M 48.3021,-135.181 L 47.9597,-135.489 L 47.7723,-135.91 L 47.7723,-136.371 L 47.9597,-136.792 L 48.3021,-137.1 L 48.7403,-137.243 L 49.1985,-137.194 L 49.5975,-136.964 L 49.8683,-136.591 L 49.9641,-136.141 L 49.8683,-135.69 L 49.5975,-135.317 L 49.1985,-135.087 L 48.7403,-135.039 L 48.3021,-135.181 M 38.2274,-134.388 L 37.885,-134.697 L 37.6976,-135.117 L 37.6976,-135.578 L 37.885,-135.999 L 38.2274,-136.307 L 38.6656,-136.45 L 39.1238,-136.402 L 39.5228,-136.171 L 39.7936,-135.798 L 39.8894,-135.348 L 39.7936,-134.897 L 39.5228,-134.524 L 39.1238,-134.294 L 38.6656,-134.246 L 38.2274,-134.388 M 51.6048,-134.388 L 51.2624,-134.697 L 51.075,-135.117 L 51.075,-135.578 L 51.2624,-135.999 L 51.6048,-136.307 L 52.043,-136.45 L 52.5012,-136.402 L 52.9001,-136.171 L 53.171,-135.798 L 53.2668,-135.348 L 53.171,-134.897 L 52.9001,-134.524 L 52.5012,-134.294 L 52.043,-134.246 L 51.6048,-134.388 M 35.0894,-133.088 L 34.747,-133.397 L 34.5596,-133.818 L 34.5596,-134.278 L 34.747,-134.699 L 35.0894,-135.008 L 35.5276,-135.15 L 35.9858,-135.102 L 36.3848,-134.871 L 36.6556,-134.499 L 36.7514,-134.048 L 36.6556,-133.597 L 36.3848,-133.225 L 35.9858,-132.994 L 35.5276,-132.946 L 35.0894,-133.088 M 54.7427,-133.088 L 54.4003,-133.397 L 54.213,-133.818 L 54.213,-134.278 L 54.4003,-134.699 L 54.7427,-135.008 L 55.1809,-135.15 L 55.6391,-135.102 L 56.0381,-134.871 L 56.3089,-134.499 L 56.4047,-134.048 L 56.3089,-133.597 L 56.0381,-133.225 L 55.6391,-132.994 L 55.1809,-132.946 L 54.7427,-133.088 M 32.1934,-131.314 L 31.851,-131.622 L 31.6637,-132.043 L 31.6637,-132.504 L 31.851,-132.925 L 32.1934,-133.233 L 32.6316,-133.375 L 33.0898,-133.327 L 33.4888,-133.097 L 33.7596,-132.724 L 33.8554,-132.273 L 33.7596,-131.823 L 33.4888,-131.45 L 33.0898,-131.22 L 32.6316,-131.171 L 32.1934,-131.314 M 57.6387,-131.314 L 57.2963,-131.622 L 57.1089,-132.043 L 57.1089,-132.504 L 57.2963,-132.925 L 57.6387,-133.233 L 58.0769,-133.375 L 58.5351,-133.327 L 58.9341,-133.097 L 59.2049,-132.724 L 59.3007,-132.273 L 59.2049,-131.823 L 58.9341,-131.45 L 58.5351,-131.22 L 58.0769,-131.171 L 57.6387,-131.314 M 29.6107,-129.108 L 29.2683,-129.416 L 29.0809,-129.837 L 29.0809,-130.298 L 29.2683,-130.719 L 29.6107,-131.027 L 30.0489,-131.169 L 30.5071,-131.121 L 30.9061,-130.891 L 31.1769,-130.518 L 31.2727,-130.068 L 31.1769,-129.617 L 30.9061,-129.244 L 30.5071,-129.014 L 30.0489,-128.966 L 29.6107,-129.108 M 60.2214,-129.108 L 59.8791,-129.416 L 59.6917,-129.837 L 59.6917,-130.298 L 59.8791,-130.719 L 60.2214,-131.027 L 60.6597,-131.169 L 61.1178,-131.121 L 61.5168,-130.891 L 61.7877,-130.518 L 61.8834,-130.068 L 61.7877,-129.617 L 61.5168,-129.244 L 61.1178,-129.014 L 60.6596,-128.966 L 60.2214,-129.108 M 27.4048,-126.525 L 27.0625,-126.834 L 26.8751,-127.254 L 26.8751,-127.715 L 27.0625,-128.136 L 27.4048,-128.444 L 27.843,-128.587 L 28.3013,-128.539 L 28.7002,-128.308 L 28.9711,-127.935 L 29.0668,-127.485 L 28.9711,-127.034 L 28.7002,-126.661 L 28.3013,-126.431 L 27.8431,-126.383 L 27.4048,-126.525 M 62.4273,-126.525 L 62.0849,-126.834 L 61.8975,-127.254 L 61.8975,-127.715 L 62.0849,-128.136 L 62.4273,-128.444 L 62.8655,-128.587 L 63.3237,-128.539 L 63.7227,-128.308 L 63.9935,-127.935 L 64.0893,-127.485 L 63.9935,-127.034 L 63.7227,-126.661 L 63.3237,-126.431 L 62.8655,-126.383 L 62.4273,-126.525 M 25.6302,-123.629 L 25.2878,-123.938 L 25.1004,-124.358 L 25.1004,-124.819 L 25.2878,-125.24 L 25.6302,-125.548 L 26.0684,-125.691 L 26.5266,-125.643 L 26.9256,-125.412 L 27.1964,-125.039 L 27.2922,-124.589 L 27.1964,-124.138 L 26.9256,-123.765 L 26.5266,-123.535 L 26.0684,-123.487 L 25.6302,-123.629 M 64.202,-123.629 L 63.8596,-123.938 L 63.6722,-124.358 L 63.6722,-124.819 L 63.8596,-125.24 L 64.202,-125.548 L 64.6402,-125.691 L 65.0984,-125.643 L 65.4973,-125.412 L 65.7682,-125.039 L 65.864,-124.589 L 65.7682,-124.138 L 65.4973,-123.765 L 65.0984,-123.535 L 64.6402,-123.487 L 64.202,-123.629 M 41.5901,-121.382 L 41.5901,-124.142 L 49.3501,-124.142 L 49.3501,-121.382 L 41.5901,-121.382 M 24.3304,-120.491 L 23.988,-120.8 L 23.8006,-121.22 L 23.8006,-121.681 L 23.988,-122.102 L 24.3304,-122.41 L 24.7686,-122.553 L 25.2268,-122.505 L 25.6258,-122.274 L 25.8966,-121.901 L 25.9924,-121.451 L 25.8966,-121 L 25.6258,-120.627 L 25.2268,-120.397 L 24.7686,-120.349 L 24.3304,-120.491 M 65.5017,-120.491 L 65.1594,-120.8 L 64.972,-121.22 L 64.972,-121.681 L 65.1594,-122.102 L 65.5017,-122.41 L 65.94,-122.553 L 66.3981,-122.505 L 66.7971,-122.274 L 67.068,-121.901 L 67.1637,-121.451 L 67.068,-121 L 66.7971,-120.627 L 66.3981,-120.397 L 65.94,-120.349 L 65.5017,-120.491 M 23.5375,-117.189 L 23.1951,-117.497 L 23.0077,-117.918 L 23.0077,-118.379 L 23.1951,-118.799 L 23.5375,-119.108 L 23.9757,-119.25 L 24.4339,-119.202 L 24.8329,-118.972 L 25.1037,-118.599 L 25.1995,-118.148 L 25.1037,-117.698 L 24.8329,-117.325 L 24.4339,-117.094 L 23.9757,-117.046 L 23.5375,-117.189 M 66.2946,-117.189 L 65.9523,-117.497 L 65.7649,-117.918 L 65.7649,-118.379 L 65.9523,-118.799 L 66.2946,-119.108 L 66.7329,-119.25 L 67.1911,-119.202 L 67.59,-118.972 L 67.8609,-118.599 L 67.9566,-118.148 L 67.8609,-117.698 L 67.59,-117.325 L 67.1911,-117.094 L 66.7328,-117.046 L 66.2946,-117.189 M 52.0901,-110.882 L 52.0901,-118.642 L 54.8501,-118.642 L 54.8501,-110.882 L 52.0901,-110.882 M 36.0901,-110.882 L 36.0901,-118.642 L 38.8501,-118.642 L 38.8501,-110.882 L 36.0901,-110.882 M 45.1781,-112.451 L 44.8907,-112.506 L 44.6124,-112.596 L 44.3477,-112.721 L 44.1007,-112.877 L 44.0601,-112.911 L 44.0601,-114.435 L 40.5601,-114.435 L 40.5601,-115.089 L 44.0601,-115.089 L 44.0601,-116.613 L 44.1007,-116.647 L 44.3477,-116.804 L 44.6124,-116.928 L 44.8907,-117.019 L 45.1781,-117.074 L 45.4701,-117.092 L 45.7621,-117.074 L 46.0494,-117.019 L 46.3278,-116.928 L 46.5925,-116.804 L 46.8394,-116.647 L 46.8801,-116.613 L 46.8801,-115.089 L 50.3801,-115.089 L 50.3801,-114.435 L 46.8801,-114.435 L 46.8801,-112.911 L 46.8394,-112.877 L 46.5925,-112.721 L 46.3278,-112.596 L 46.0494,-112.506 L 45.7621,-112.451 L 45.4701,-112.432 L 45.1781,-112.451 M 60.51,-113.14 L 59.9312,-113.661 L 59.6144,-114.373 L 59.6144,-115.152 L 59.9312,-115.863 L 60.51,-116.384 L 61.2507,-116.625 L 62.0253,-116.543 L 62.6998,-116.154 L 63.1576,-115.524 L 63.3195,-114.762 L 63.1576,-114 L 62.6998,-113.37 L 62.0253,-112.981 L 61.2507,-112.899 L 60.51,-113.14 M 23.271,-113.803 L 22.9286,-114.111 L 22.7412,-114.532 L 22.7412,-114.992 L 22.9286,-115.413 L 23.271,-115.722 L 23.7092,-115.864 L 24.1674,-115.816 L 24.5664,-115.586 L 24.8372,-115.213 L 24.933,-114.762 L 24.8372,-114.311 L 24.5664,-113.939 L 24.1674,-113.708 L 23.7092,-113.66 L 23.271,-113.803 M 66.5611,-113.803 L 66.2188,-114.111 L 66.0314,-114.532 L 66.0314,-114.992 L 66.2188,-115.413 L 66.5611,-115.722 L 66.9994,-115.864 L 67.4575,-115.816 L 67.8565,-115.586 L 68.1273,-115.213 L 68.2231,-114.762 L 68.1273,-114.311 L 67.8565,-113.939 L 67.4575,-113.708 L 66.9994,-113.66 L 66.5611,-113.803 M 23.5375,-110.417 L 23.1951,-110.725 L 23.0077,-111.146 L 23.0077,-111.606 L 23.1951,-112.027 L 23.5375,-112.336 L 23.9757,-112.478 L 24.4339,-112.43 L 24.8329,-112.2 L 25.1037,-111.827 L 25.1995,-111.376 L 25.1037,-110.925 L 24.8329,-110.553 L 24.4339,-110.322 L 23.9757,-110.274 L 23.5375,-110.417 M 66.2946,-110.417 L 65.9523,-110.725 L 65.7649,-111.146 L 65.7649,-111.606 L 65.9523,-112.027 L 66.2946,-112.336 L 66.7328,-112.478 L 67.1911,-112.43 L 67.59,-112.2 L 67.8609,-111.827 L 67.9566,-111.376 L 67.8609,-110.925 L 67.59,-110.553 L 67.1911,-110.322 L 66.7329,-110.274 L 66.2946,-110.417 M 24.3304,-107.114 L 23.988,-107.422 L 23.8006,-107.843 L 23.8006,-108.304 L 23.988,-108.725 L 24.3304,-109.033 L 24.7686,-109.175 L 25.2268,-109.127 L 25.6258,-108.897 L 25.8966,-108.524 L 25.9924,-108.073 L 25.8966,-107.623 L 25.6258,-107.25 L 25.2268,-107.02 L 24.7686,-106.972 L 24.3304,-107.114 M 65.5017,-107.114 L 65.1594,-107.422 L 64.972,-107.843 L 64.972,-108.304 L 65.1594,-108.725 L 65.5017,-109.033 L 65.94,-109.175 L 66.3981,-109.127 L 66.7971,-108.897 L 67.068,-108.524 L 67.1637,-108.073 L 67.068,-107.623 L 66.7971,-107.25 L 66.3981,-107.02 L 65.94,-106.972 L 65.5017,-107.114 M 41.5901,-105.382 L 41.5901,-108.142 L 49.3501,-108.142 L 49.3501,-105.382 L 41.5901,-105.382 M 25.6302,-103.976 L 25.2878,-104.284 L 25.1004,-104.705 L 25.1004,-105.166 L 25.2878,-105.587 L 25.6302,-105.895 L 26.0684,-106.037 L 26.5266,-105.989 L 26.9256,-105.759 L 27.1964,-105.386 L 27.2922,-104.935 L 27.1964,-104.485 L 26.9256,-104.112 L 26.5266,-103.882 L 26.0684,-103.834 L 25.6302,-103.976 M 64.202,-103.976 L 63.8596,-104.284 L 63.6722,-104.705 L 63.6722,-105.166 L 63.8596,-105.587 L 64.202,-105.895 L 64.6402,-106.037 L 65.0984,-105.989 L 65.4973,-105.759 L 65.7682,-105.386 L 65.864,-104.935 L 65.7682,-104.485 L 65.4973,-104.112 L 65.0984,-103.882 L 64.6402,-103.834 L 64.202,-103.976 M 27.4048,-101.08 L 27.0625,-101.388 L 26.8751,-101.809 L 26.8751,-102.27 L 27.0625,-102.691 L 27.4048,-102.999 L 27.8431,-103.141 L 28.3013,-103.093 L 28.7002,-102.863 L 28.9711,-102.49 L 29.0668,-102.039 L 28.9711,-101.589 L 28.7002,-101.216 L 28.3013,-100.986 L 27.843,-100.938 L 27.4048,-101.08 M 62.4273,-101.08 L 62.0849,-101.388 L 61.8975,-101.809 L 61.8975,-102.27 L 62.0849,-102.691 L 62.4273,-102.999 L 62.8655,-103.141 L 63.3237,-103.093 L 63.7227,-102.863 L 63.9935,-102.49 L 64.0893,-102.039 L 63.9935,-101.589 L 63.7227,-101.216 L 63.3237,-100.986 L 62.8655,-100.938 L 62.4273,-101.08 M 29.6107,-98.4972 L 29.2683,-98.8055 L 29.0809,-99.2264 L 29.0809,-99.6871 L 29.2683,-100.108 L 29.6107,-100.416 L 30.0489,-100.559 L 30.5071,-100.511 L 30.9061,-100.28 L 31.1769,-99.9074 L 31.2727,-99.4568 L 31.1769,-99.0061 L 30.9061,-98.6334 L 30.5071,-98.403 L 30.0489,-98.3548 L 29.6107,-98.4972 M 60.2214,-98.4972 L 59.8791,-98.8055 L 59.6917,-99.2264 L 59.6917,-99.6871 L 59.8791,-100.108 L 60.2214,-100.416 L 60.6596,-100.559 L 61.1178,-100.511 L 61.5168,-100.28 L 61.7877,-99.9074 L 61.8834,-99.4568 L 61.7877,-99.0061 L 61.5168,-98.6334 L 61.1178,-98.403 L 60.6597,-98.3548 L 60.2214,-98.4972 M 32.1934,-96.2914 L 31.851,-96.5997 L 31.6637,-97.0206 L 31.6637,-97.4813 L 31.851,-97.9022 L 32.1934,-98.2104 L 32.6316,-98.3528 L 33.0898,-98.3047 L 33.4888,-98.0743 L 33.7596,-97.7016 L 33.8554,-97.2509 L 33.7596,-96.8003 L 33.4888,-96.4275 L 33.0898,-96.1971 L 32.6316,-96.149 L 32.1934,-96.2914 M 57.6387,-96.2914 L 57.2963,-96.5997 L 57.1089,-97.0206 L 57.1089,-97.4813 L 57.2963,-97.9022 L 57.6387,-98.2104 L 58.0769,-98.3528 L 58.5351,-98.3047 L 58.9341,-98.0743 L 59.2049,-97.7016 L 59.3007,-97.2509 L 59.2049,-96.8003 L 58.9341,-96.4275 L 58.5351,-96.1971 L 58.0769,-96.149 L 57.6387,-96.2914 M 35.0894,-94.5167 L 34.747,-94.825 L 34.5596,-95.2459 L 34.5596,-95.7066 L 34.747,-96.1275 L 35.0894,-96.4358 L 35.5276,-96.5782 L 35.9858,-96.53 L 36.3848,-96.2996 L 36.6556,-95.9269 L 36.7514,-95.4762 L 36.6556,-95.0256 L 36.3848,-94.6528 L 35.9858,-94.4225 L 35.5276,-94.3743 L 35.0894,-94.5167 M 54.7427,-94.5167 L 54.4003,-94.825 L 54.213,-95.2459 L 54.213,-95.7066 L 54.4003,-96.1275 L 54.7427,-96.4358 L 55.1809,-96.5782 L 55.6391,-96.53 L 56.0381,-96.2996 L 56.3089,-95.9269 L 56.4047,-95.4762 L 56.3089,-95.0256 L 56.0381,-94.6528 L 55.6391,-94.4225 L 55.1809,-94.3743 L 54.7427,-94.5167 M 38.2274,-93.2169 L 37.885,-93.5252 L 37.6976,-93.9461 L 37.6976,-94.4068 L 37.885,-94.8277 L 38.2274,-95.136 L 38.6656,-95.2784 L 39.1238,-95.2302 L 39.5228,-94.9998 L 39.7936,-94.6271 L 39.8894,-94.1765 L 39.7936,-93.7258 L 39.5228,-93.3531 L 39.1238,-93.1227 L 38.6656,-93.0745 L 38.2274,-93.2169 M 51.6048,-93.2169 L 51.2624,-93.5252 L 51.075,-93.9461 L 51.075,-94.4068 L 51.2624,-94.8277 L 51.6048,-95.136 L 52.043,-95.2784 L 52.5012,-95.2302 L 52.9001,-94.9998 L 53.171,-94.6271 L 53.2668,-94.1765 L 53.171,-93.7258 L 52.9001,-93.3531 L 52.5012,-93.1227 L 52.043,-93.0745 L 51.6048,-93.2169 M 41.53,-92.424 L 41.1877,-92.7323 L 41.0003,-93.1532 L 41.0003,-93.6139 L 41.1877,-94.0348 L 41.53,-94.3431 L 41.9683,-94.4855 L 42.4264,-94.4373 L 42.8254,-94.207 L 43.0963,-93.8342 L 43.192,-93.3836 L 43.0963,-92.9329 L 42.8254,-92.5602 L 42.4264,-92.3298 L 41.9683,-92.2816 L 41.53,-92.424 M 48.3021,-92.424 L 47.9597,-92.7323 L 47.7723,-93.1532 L 47.7723,-93.6139 L 47.9597,-94.0348 L 48.3021,-94.3431 L 48.7403,-94.4855 L 49.1985,-94.4373 L 49.5975,-94.207 L 49.8683,-93.8342 L 49.9641,-93.3836 L 49.8683,-92.9329 L 49.5975,-92.5602 L 49.1985,-92.3298 L 48.7403,-92.2816 L 48.3021,-92.424 M 44.9161,-92.1575 L 44.5737,-92.4658 L 44.3863,-92.8867 L 44.3863,-93.3474 L 44.5737,-93.7683 L 44.9161,-94.0766 L 45.3543,-94.219 L 45.8125,-94.1708 L 46.2115,-93.9405 L 46.4823,-93.5677 L 46.5781,-93.1171 L 46.4823,-92.6664 L 46.2115,-92.2937 L 45.8125,-92.0633 L 45.3543,-92.0152 L 44.9161,-92.1575" stroke="#0000ff" fill="none" stroke-width="0.1"/><path d="M 98.083,-90.7592 L 100.578,-91.1544 L 103.018,-91.8082 L 105.377,-92.7135 L 107.628,-93.8604 L 109.747,-95.2364 L 111.71,-96.8262 L 113.496,-98.6125 L 115.086,-100.576 L 116.462,-102.695 L 117.609,-104.945 L 118.514,-107.304 L 119.168,-109.744 L 119.563,-112.239 L 119.695,-114.762 L 119.563,-117.285 L 119.168,-119.78 L 118.514,-122.22 L 117.609,-124.579 L 116.462,-126.83 L 115.086,-128.948 L 113.496,-130.912 L 111.71,-132.698 L 109.747,-134.288 L 107.628,-135.664 L 105.377,-136.811 L 103.018,-137.716 L 100.578,-138.37 L 98.083,-138.765 L 95.5602,-138.897 L 93.0374,-138.765 L 90.5423,-138.37 L 88.1021,-137.716 L 85.7436,-136.811 L 83.4926,-135.664 L 81.3739,-134.288 L 79.4106,-132.698 L 77.6243,-130.912 L 76.0345,-128.948 L 74.6585,-126.83 L 73.5116,-124.579 L 72.6063,-122.22 L 71.9525,-119.78 L 71.5573,-117.285 L 71.425,-114.762 L 71.5573,-112.239 L 71.9525,-109.744 L 72.6063,-107.304 L 73.5116,-104.945 L 74.6585,-102.695 L 76.0345,-100.576 L 77.6243,-98.6125 L 79.4106,-96.8262 L 81.3739,-95.2364 L 83.4926,-93.8604 L 85.7436,-92.7135 L 88.1021,-91.8082 L 90.5423,-91.1544 L 93.0374,-90.7592 L 95.5602,-90.627 L 98.083,-90.7592 M 95.0062,-135.448 L 94.6638,-135.756 L 94.4765,-136.177 L 94.4765,-136.638 L 94.6638,-137.058 L 95.0062,-137.367 L 95.4444,-137.509 L 95.9026,-137.461 L 96.3016,-137.231 L 96.5724,-136.858 L 96.6682,-136.407 L 96.5724,-135.957 L 96.3016,-135.584 L 95.9026,-135.353 L 95.4444,-135.305 L 95.0062,-135.448 M 91.6202,-135.181 L 91.2778,-135.489 L 91.0904,-135.91 L 91.0904,-136.371 L 91.2778,-136.792 L 91.6202,-137.1 L 92.0584,-137.243 L 92.5166,-137.194 L 92.9156,-136.964 L 93.1864,-136.591 L 93.2822,-136.141 L 93.1864,-135.69 L 92.9156,-135.317 L 92.5166,-135.087 L 92.0584,-135.039 L 91.6202,-135.181 M 98.3922,-135.181 L 98.0499,-135.489 L 97.8625,-135.91 L 97.8625,-136.371 L 98.0499,-136.792 L 98.3922,-137.1 L 98.8305,-137.243 L 99.2887,-137.194 L 99.6876,-136.964 L 99.9585,-136.591 L 100.054,-136.141 L 99.9585,-135.69 L 99.6876,-135.317 L 99.2887,-135.087 L 98.8305,-135.039 L 98.3922,-135.181 M 88.3175,-134.388 L 87.9751,-134.697 L 87.7878,-135.117 L 87.7878,-135.578 L 87.9751,-135.999 L 88.3175,-136.307 L 88.7558,-136.45 L 89.2139,-136.402 L 89.6129,-136.171 L 89.8837,-135.798 L 89.9795,-135.348 L 89.8837,-134.897 L 89.6129,-134.524 L 89.2139,-134.294 L 88.7558,-134.246 L 88.3175,-134.388 M 101.695,-134.388 L 101.353,-134.697 L 101.165,-135.117 L 101.165,-135.578 L 101.353,-135.999 L 101.695,-136.307 L 102.133,-136.45 L 102.591,-136.402 L 102.99,-136.171 L 103.261,-135.798 L 103.357,-135.348 L 103.261,-134.897 L 102.99,-134.524 L 102.591,-134.294 L 102.133,-134.246 L 101.695,-134.388 M 85.1796,-133.088 L 84.8372,-133.397 L 84.6498,-133.818 L 84.6498,-134.278 L 84.8372,-134.699 L 85.1796,-135.008 L 85.6178,-135.15 L 86.076,-135.102 L 86.475,-134.871 L 86.7458,-134.499 L 86.8416,-134.048 L 86.7458,-133.597 L 86.475,-133.225 L 86.076,-132.994 L 85.6178,-132.946 L 85.1796,-133.088 M 104.833,-133.088 L 104.49,-133.397 L 104.303,-133.818 L 104.303,-134.278 L 104.49,-134.699 L 104.833,-135.008 L 105.271,-135.15 L 105.729,-135.102 L 106.128,-134.871 L 106.399,-134.499 L 106.495,-134.048 L 106.399,-133.597 L 106.128,-133.225 L 105.729,-132.994 L 105.271,-132.946 L 104.833,-133.088 M 82.2836,-131.314 L 81.9412,-131.622 L 81.7538,-132.043 L 81.7538,-132.504 L 81.9412,-132.925 L 82.2836,-133.233 L 82.7218,-133.375 L 83.18,-133.327 L 83.579,-133.097 L 83.8498,-132.724 L 83.9456,-132.273 L 83.8498,-131.823 L 83.579,-131.45 L 83.18,-131.22 L 82.7218,-131.171 L 82.2836,-131.314 M 107.729,-131.314 L 107.386,-131.622 L 107.199,-132.043 L 107.199,-132.504 L 107.386,-132.925 L 107.729,-133.233 L 108.167,-133.375 L 108.625,-133.327 L 109.024,-133.097 L 109.295,-132.724 L 109.391,-132.273 L 109.295,-131.823 L 109.024,-131.45 L 108.625,-131.22 L 108.167,-131.171 L 107.729,-131.314 M 79.7009,-129.108 L 79.3585,-129.416 L 79.1711,-129.837 L 79.1711,-130.298 L 79.3585,-130.719 L 79.7009,-131.027 L 80.1391,-131.169 L 80.5972,-131.121 L 80.9962,-130.891 L 81.2671,-130.518 L 81.3628,-130.068 L 81.2671,-129.617 L 80.9962,-129.244 L 80.5972,-129.014 L 80.1391,-128.966 L 79.7009,-129.108 M 110.312,-129.108 L 109.969,-129.416 L 109.782,-129.837 L 109.782,-130.298 L 109.969,-130.719 L 110.312,-131.027 L 110.75,-131.169 L 111.208,-131.121 L 111.607,-130.891 L 111.878,-130.518 L 111.974,-130.068 L 111.878,-129.617 L 111.607,-129.244 L 111.208,-129.014 L 110.75,-128.966 L 110.312,-129.108 M 77.495,-126.525 L 77.1526,-126.834 L 76.9652,-127.254 L 76.9652,-127.715 L 77.1526,-128.136 L 77.495,-128.444 L 77.9332,-128.587 L 78.3914,-128.539 L 78.7904,-128.308 L 79.0612,-127.935 L 79.157,-127.485 L 79.0612,-127.034 L 78.7904,-126.661 L 78.3914,-126.431 L 77.9332,-126.383 L 77.495,-126.525 M 112.517,-126.525 L 112.175,-126.834 L 111.988,-127.254 L 111.988,-127.715 L 112.175,-128.136 L 112.517,-128.444 L 112.956,-128.587 L 113.414,-128.539 L 113.813,-128.308 L 114.084,-127.935 L 114.179,-127.485 L 114.084,-127.034 L 113.813,-126.661 L 113.414,-126.431 L 112.956,-126.383 L 112.517,-126.525 M 75.7203,-123.629 L 75.3779,-123.938 L 75.1906,-124.358 L 75.1906,-124.819 L 75.3779,-125.24 L 75.7203,-125.548 L 76.1585,-125.691 L 76.6167,-125.643 L 77.0157,-125.412 L 77.2865,-125.039 L 77.3823,-124.589 L 77.2865,-124.138 L 77.0157,-123.765 L 76.6167,-123.535 L 76.1585,-123.487 L 75.7203,-123.629 M 114.292,-123.629 L 113.95,-123.938 L 113.762,-124.358 L 113.762,-124.819 L 113.95,-125.24 L 114.292,-125.548 L 114.73,-125.691 L 115.189,-125.643 L 115.587,-125.412 L 115.858,-125.039 L 115.954,-124.589 L 115.858,-124.138 L 115.587,-123.765 L 115.189,-123.535 L 114.73,-123.487 L 114.292,-123.629 M 92.6802,-121.382 L 92.6802,-124.142 L 98.4402,-124.142 L 98.4402,-121.382 L 92.6802,-121.382 M 74.4205,-120.491 L 74.0782,-120.8 L 73.8908,-121.22 L 73.8908,-121.681 L 74.0782,-122.102 L 74.4205,-122.41 L 74.8587,-122.553 L 75.3169,-122.505 L 75.7159,-122.274 L 75.9868,-121.901 L 76.0825,-121.451 L 75.9868,-121 L 75.7159,-120.627 L 75.3169,-120.397 L 74.8587,-120.349 L 74.4205,-120.491 M 115.592,-120.491 L 115.25,-120.8 L 115.062,-121.22 L 115.062,-121.681 L 115.25,-122.102 L 115.592,-122.41 L 116.03,-122.553 L 116.488,-122.505 L 116.887,-122.274 L 117.158,-121.901 L 117.254,-121.451 L 117.158,-121 L 116.887,-120.627 L 116.488,-120.397 L 116.03,-120.349 L 115.592,-120.491 M 73.6276,-117.189 L 73.2853,-117.497 L 73.0979,-117.918 L 73.0979,-118.379 L 73.2853,-118.799 L 73.6276,-119.108 L 74.0659,-119.25 L 74.524,-119.202 L 74.923,-118.972 L 75.1939,-118.599 L 75.2896,-118.148 L 75.1939,-117.698 L 74.923,-117.325 L 74.524,-117.094 L 74.0658,-117.046 L 73.6276,-117.189 M 116.385,-117.189 L 116.042,-117.497 L 115.855,-117.918 L 115.855,-118.379 L 116.042,-118.799 L 116.385,-119.108 L 116.823,-119.25 L 117.281,-119.202 L 117.68,-118.972 L 117.951,-118.599 L 118.047,-118.148 L 117.951,-117.698 L 117.68,-117.325 L 117.281,-117.094 L 116.823,-117.046 L 116.385,-117.189 M 93.5415,-111.266 L 91.5227,-114.762 L 93.5415,-118.259 L 97.579,-118.259 L 99.5977,-114.762 L 97.579,-111.266 L 93.5415,-111.266 M 102.18,-111.882 L 102.18,-117.642 L 104.94,-117.642 L 104.94,-111.882 L 102.18,-111.882 M 86.1802,-111.882 L 86.1802,-117.642 L 88.9402,-117.642 L 88.9402,-111.882 L 86.1802,-111.882 M 73.3611,-113.803 L 73.0188,-114.111 L 72.8314,-114.532 L 72.8314,-114.992 L 73.0188,-115.413 L 73.3611,-115.722 L 73.7994,-115.864 L 74.2576,-115.816 L 74.6565,-115.586 L 74.9274,-115.213 L 75.0231,-114.762 L 74.9274,-114.311 L 74.6565,-113.939 L 74.2576,-113.708 L 73.7994,-113.66 L 73.3611,-113.803 M 116.651,-113.803 L 116.309,-114.111 L 116.122,-114.532 L 116.122,-114.992 L 116.309,-115.413 L 116.651,-115.722 L 117.09,-115.864 L 117.548,-115.816 L 117.947,-115.586 L 118.217,-115.213 L 118.313,-114.762 L 118.217,-114.311 L 117.947,-113.939 L 117.548,-113.708 L 117.09,-113.66 L 116.651,-113.803 M 73.6276,-110.417 L 73.2853,-110.725 L 73.0979,-111.146 L 73.0979,-111.606 L 73.2853,-112.027 L 73.6276,-112.336 L 74.0658,-112.478 L 74.524,-112.43 L 74.923,-112.2 L 75.1939,-111.827 L 75.2896,-111.376 L 75.1939,-110.925 L 74.923,-110.553 L 74.524,-110.322 L 74.0659,-110.274 L 73.6276,-110.417 M 116.385,-110.417 L 116.042,-110.725 L 115.855,-111.146 L 115.855,-111.606 L 116.042,-112.027 L 116.385,-112.336 L 116.823,-112.478 L 117.281,-112.43 L 117.68,-112.2 L 117.951,-111.827 L 118.047,-111.376 L 117.951,-110.925 L 117.68,-110.553 L 117.281,-110.322 L 116.823,-110.274 L 116.385,-110.417 M 74.4205,-107.114 L 74.0782,-107.422 L 73.8908,-107.843 L 73.8908,-108.304 L 74.0782,-108.725 L 74.4205,-109.033 L 74.8587,-109.175 L 75.3169,-109.127 L 75.7159,-108.897 L 75.9868,-108.524 L 76.0825,-108.073 L 75.9868,-107.623 L 75.7159,-107.25 L 75.3169,-107.02 L 74.8587,-106.972 L 74.4205,-107.114 M 115.592,-107.114 L 115.25,-107.422 L 115.062,-107.843 L 115.062,-108.304 L 115.25,-108.725 L 115.592,-109.033 L 116.03,-109.175 L 116.488,-109.127 L 116.887,-108.897 L 117.158,-108.524 L 117.254,-108.073 L 117.158,-107.623 L 116.887,-107.25 L 116.488,-107.02 L 116.03,-106.972 L 115.592,-107.114 M 92.6802,-105.382 L 92.6802,-108.142 L 98.4402,-108.142 L 98.4402,-105.382 L 92.6802,-105.382 M 75.7203,-103.976 L 75.3779,-104.284 L 75.1906,-104.705 L 75.1906,-105.166 L 75.3779,-105.587 L 75.7203,-105.895 L 76.1585,-106.037 L 76.6167,-105.989 L 77.0157,-105.759 L 77.2865,-105.386 L 77.3823,-104.935 L 77.2865,-104.485 L 77.0157,-104.112 L 76.6167,-103.882 L 76.1585,-103.834 L 75.7203,-103.976 M 114.292,-103.976 L 113.95,-104.284 L 113.762,-104.705 L 113.762,-105.166 L 113.95,-105.587 L 114.292,-105.895 L 114.73,-106.037 L 115.189,-105.989 L 115.587,-105.759 L 115.858,-105.386 L 115.954,-104.935 L 115.858,-104.485 L 115.587,-104.112 L 115.189,-103.882 L 114.73,-103.834 L 114.292,-103.976 M 77.495,-101.08 L 77.1526,-101.388 L 76.9652,-101.809 L 76.9652,-102.27 L 77.1526,-102.691 L 77.495,-102.999 L 77.9332,-103.141 L 78.3914,-103.093 L 78.7904,-102.863 L 79.0612,-102.49 L 79.157,-102.039 L 79.0612,-101.589 L 78.7904,-101.216 L 78.3914,-100.986 L 77.9332,-100.938 L 77.495,-101.08 M 112.517,-101.08 L 112.175,-101.388 L 111.988,-101.809 L 111.988,-102.27 L 112.175,-102.691 L 112.517,-102.999 L 112.956,-103.141 L 113.414,-103.093 L 113.813,-102.863 L 114.084,-102.49 L 114.179,-102.039 L 114.084,-101.589 L 113.813,-101.216 L 113.414,-100.986 L 112.956,-100.938 L 112.517,-101.08 M 79.7009,-98.4972 L 79.3585,-98.8055 L 79.1711,-99.2264 L 79.1711,-99.6871 L 79.3585,-100.108 L 79.7009,-100.416 L 80.1391,-100.559 L 80.5972,-100.511 L 80.9962,-100.28 L 81.2671,-99.9074 L 81.3628,-99.4568 L 81.2671,-99.0061 L 80.9962,-98.6334 L 80.5972,-98.403 L 80.1391,-98.3548 L 79.7009,-98.4972 M 110.312,-98.4972 L 109.969,-98.8055 L 109.782,-99.2264 L 109.782,-99.6871 L 109.969,-100.108 L 110.312,-100.416 L 110.75,-100.559 L 111.208,-100.511 L 111.607,-100.28 L 111.878,-99.9074 L 111.974,-99.4568 L 111.878,-99.0061 L 111.607,-98.6334 L 111.208,-98.403 L 110.75,-98.3548 L 110.312,-98.4972 M 82.2836,-96.2914 L 81.9412,-96.5997 L 81.7538,-97.0206 L 81.7538,-97.4813 L 81.9412,-97.9022 L 82.2836,-98.2104 L 82.7218,-98.3528 L 83.18,-98.3047 L 83.579,-98.0743 L 83.8498,-97.7016 L 83.9456,-97.2509 L 83.8498,-96.8003 L 83.579,-96.4275 L 83.18,-96.1971 L 82.7218,-96.149 L 82.2836,-96.2914 M 107.729,-96.2914 L 107.386,-96.5997 L 107.199,-97.0206 L 107.199,-97.4813 L 107.386,-97.9022 L 107.729,-98.2104 L 108.167,-98.3528 L 108.625,-98.3047 L 109.024,-98.0743 L 109.295,-97.7016 L 109.391,-97.2509 L 109.295,-96.8003 L 109.024,-96.4275 L 108.625,-96.1971 L 108.167,-96.149 L 107.729,-96.2914 M 85.1796,-94.5167 L 84.8372,-94.825 L 84.6498,-95.2459 L 84.6498,-95.7066 L 84.8372,-96.1275 L 85.1796,-96.4358 L 85.6178,-96.5782 L 86.076,-96.53 L 86.475,-96.2996 L 86.7458,-95.9269 L 86.8416,-95.4762 L 86.7458,-95.0256 L 86.475,-94.6528 L 86.076,-94.4225 L 85.6178,-94.3743 L 85.1796,-94.5167 M 104.833,-94.5167 L 104.49,-94.825 L 104.303,-95.2459 L 104.303,-95.7066 L 104.49,-96.1275 L 104.833,-96.4358 L 105.271,-96.5782 L 105.729,-96.53 L 106.128,-96.2996 L 106.399,-95.9269 L 106.495,-95.4762 L 106.399,-95.0256 L 106.128,-94.6528 L 105.729,-94.4225 L 105.271,-94.3743 L 104.833,-94.5167 M 88.3175,-93.2169 L 87.9751,-93.5252 L 87.7878,-93.9461 L 87.7878,-94.4068 L 87.9751,-94.8277 L 88.3175,-95.136 L 88.7558,-95.2784 L 89.2139,-95.2302 L 89.6129,-94.9998 L 89.8837,-94.6271 L 89.9795,-94.1765 L 89.8837,-93.7258 L 89.6129,-93.3531 L 89.2139,-93.1227 L 88.7558,-93.0745 L 88.3175,-93.2169 M 101.695,-93.2169 L 101.353,-93.5252 L 101.165,-93.9461 L 101.165,-94.4068 L 101.353,-94.8277 L 101.695,-95.136 L 102.133,-95.2784 L 102.591,-95.2302 L 102.99,-94.9998 L 103.261,-94.6271 L 103.357,-94.1765 L 103.261,-93.7258 L 102.99,-93.3531 L 102.591,-93.1227 L 102.133,-93.0745 L 101.695,-93.2169 M 91.6202,-92.424 L 91.2778,-92.7323 L 91.0904,-93.1532 L 91.0904,-93.6139 L 91.2778,-94.0348 L 91.6202,-94.3431 L 92.0584,-94.4855 L 92.5166,-94.4373 L 92.9156,-94.207 L 93.1864,-93.8342 L 93.2822,-93.3836 L 93.1864,-92.9329 L 92.9156,-92.5602 L 92.5166,-92.3298 L 92.0584,-92.2816 L 91.6202,-92.424 M 98.3922,-92.424 L 98.0499,-92.7323 L 97.8625,-93.1532 L 97.8625,-93.6139 L 98.0499,-94.0348 L 98.3922,-94.3431 L 98.8305,-94.4855 L 99.2887,-94.4373 L 99.6876,-94.207 L 99.9585,-93.8342 L 100.054,-93.3836 L 99.9585,-92.9329 L 99.6876,-92.5602 L 99.2887,-92.3298 L 98.8305,-92.2816 L 98.3922,-92.424 M 95.0062,-92.1575 L 94.6638,-92.4658 L 94.4765,-92.8867 L 94.4765,-93.3474 L 94.6638,-93.7683 L 95.0062,-94.0766 L 95.4444,-94.219 L 95.9026,-94.1708 L 96.3016,-93.9405 L 96.5724,-93.5677 L 96.6682,-93.1171 L 96.5724,-92.6664 L 96.3016,-92.2937 L 95.9026,-92.0633 L 95.4444,-92.0152 L 95.0062,-92.1575" stroke="#0000ff" fill="none" stroke-width="0.1"/><path d="M 95.6661,-132.009 L 95.7675,-132.042 L 95.8597,-132.095 L 95.9388,-132.166 L 96.0015,-132.253 L 96.0448,-132.35 L 96.0669,-132.454 L 96.0669,-134.06 L 96.0448,-134.165 L 96.0015,-134.262 L 95.9388,-134.348 L 95.8597,-134.419 L 95.7675,-134.473 L 95.6661,-134.506 L 95.5602,-134.517 L 95.4543,-134.506 L 95.353,-134.473 L 95.2607,-134.419 L 95.1816,-134.348 L 95.119,-134.262 L 95.0757,-134.165 L 95.0535,-134.06 L 95.0535,-132.454 L 95.0757,-132.35 L 95.119,-132.253 L 95.1816,-132.166 L 95.2607,-132.095 L 95.353,-132.042 L 95.4543,-132.009 L 95.5602,-131.998 L 95.6661,-132.009 M 45.576,-95.0187 L 45.6773,-95.0516 L 45.7696,-95.1049 L 45.8487,-95.1761 L 45.9113,-95.2623 L 45.9547,-95.3596 L 45.9768,-95.4638 L 45.9768,-97.0703 L 45.9547,-97.1745 L 45.9113,-97.2718 L 45.8487,-97.358 L 45.7696,-97.4292 L 45.6773,-97.4825 L 45.576,-97.5154 L 45.4701,-97.5266 L 45.3642,-97.5154 L 45.2628,-97.4825 L 45.1705,-97.4292 L 45.0915,-97.358 L 45.0288,-97.2718 L 44.9855,-97.1745 L 44.9634,-97.0703 L 44.9634,-95.4638 L 44.9855,-95.3596 L 45.0288,-95.2623 L 45.0915,-95.1761 L 45.1705,-95.1049 L 45.2629,-95.0516 L 45.3641,-95.0187 L 45.4701,-95.0076 L 45.576,-95.0187" stroke="none" fill="#000000" stroke-width="0.5"/><path d="M 89.1851,-11.39 L 97.1051,-11.39 L 97.1051,-8.34 M 102.735,-8.34 L 102.735,-13.97 L 99.6851,-13.97 L 99.6851,-21.89 L 102.735,-21.89 L 102.735,-27.52 L 97.1051,-27.52 L 97.1051,-24.47 L 89.1851,-24.47 L 89.1851,-27.52 L 83.5551,-27.52 L 83.5551,-21.89 L 86.6051,-21.89 L 86.6051,-13.97 L 83.5551,-13.97 L 83.5551,-8.34 M 89.1851,-8.34 L 89.1851,-11.39 M 92.9193,-15.7823 L 92.4778,-15.8762 L 92.0654,-16.0598 L 91.7001,-16.3252 L 91.398,-16.6607 L 91.1723,-17.0516 L 91.0328,-17.481 L 90.9856,-17.93 L 91.0328,-18.3789 L 91.1723,-18.8084 L 91.398,-19.1993 L 91.7001,-19.5348 L 92.0654,-19.8002 L 92.4778,-19.9838 L 92.9193,-20.0777 L 93.3708,-20.0777 L 93.8124,-19.9838 L 94.2248,-19.8002 L 94.5901,-19.5348 L 94.8921,-19.1993 L 95.1178,-18.8084 L 95.2574,-18.3789 L 95.3046,-17.93 L 95.2574,-17.481 L 95.1178,-17.0516 L 94.8921,-16.6607 L 94.5901,-16.3252 L 94.2248,-16.0598 L 93.8124,-15.8762 L 93.3708,-15.7823 L 92.9193,-15.7823" stroke="#0000ff" fill="none" stroke-width="0.1"/><path d="M 84.8571,-31.48 L 101.433,-31.48 L 101.433,-29.88 L 103.613,-29.88 L 103.613,-35.0771 L 103.512,-35.7162 L 103.215,-36.2991 L 102.752,-36.7617 L 102.169,-37.0588 L 101.53,-37.16 M 84.76,-37.16 L 84.1209,-37.0588 L 83.5379,-36.7617 L 83.0753,-36.2991 L 82.7783,-35.7162 L 82.6771,-35.0771 L 82.6771,-29.88 L 84.8571,-29.88 L 84.8571,-31.48" stroke="#0000ff" fill="none" stroke-width="0.1"/></svg>