<svg xmlns="http://www.w3.org/2000/svg" width="179mm" height="175mm" viewBox="-1 -174 179 175" version="1.1">
<title>OpenSCAD Model</title>
<path d="M 146.436,-44.8261 L 146.436,-40.8261 L 143.136,-40.8261 L 143.136,-44.8261 M 4.64999,-44.8261 L 4.64999,-40.8261 L 1.34999,-40.8261 L 1.34999,-44.8261 M -0.0500031,-44.8261 L -0.0500031,-18.45 L 3.423,-18.45 L 3.95299,-18.4083 L 4.4679,-18.2847 L 4.95711,-18.082 L 5.40866,-17.8053 L 5.81137,-17.4614 L 6.1553,-17.0587 L 6.43201,-16.6071 L 6.63466,-16.1179 L 6.75829,-15.603 L 6.79984,-15.075 L 6.75829,-14.547 L 6.63466,-14.0321 L 6.43201,-13.5429 L 6.1553,-13.0913 L 5.81137,-12.6886 L 5.40866,-12.3447 L 4.95711,-12.068 L 4.4679,-11.8653 L 3.95299,-11.7417 L 3.423,-11.7 L 1.24803,-11.7 L 1.04663,-11.6841 L 0.848251,-11.6365 L 0.659775,-11.5584 L 0.485809,-11.4518 L 0.330673,-11.3193 L 0.198181,-11.1642 L 0.091568,-10.9902 L 0.013504,-10.8018 L -0.0341187,-10.6034 L -0.0500031,-10.402 L -0.0500031,0.0500031 L 147.836,0.0500031 M 89.6877,-38.0983 L 89.2504,-38.2404 L 88.8521,-38.4704 L 88.5103,-38.7781 L 88.2401,-39.1501 L 88.053,-39.5703 L 87.9574,-40.02 L 87.9574,-40.48 L 88.053,-40.9297 L 88.2401,-41.3499 L 88.5103,-41.7219 L 88.8521,-42.0296 L 89.2504,-42.2596 L 89.6877,-42.4016 L 90.1451,-42.4497 L 90.6024,-42.4016 L 91.0397,-42.2596 L 91.438,-42.0296 L 91.7798,-41.7219 L 92.05,-41.3499 L 92.2371,-40.9297 L 92.3327,-40.48 L 92.3327,-40.02 L 92.2371,-39.5703 L 92.05,-39.1501 L 91.7798,-38.7781 L 91.438,-38.4704 L 91.0397,-38.2404 L 90.6024,-38.0983 L 90.1451,-38.0503 L 89.6877,-38.0983 M 140.286,-36.8493 L 140.286,-40.1338 L 143.286,-40.1338 L 143.286,-36.8493 L 140.286,-36.8493 M 4.50002,-36.8493 L 4.50002,-40.1338 L 7.49998,-40.1338 L 7.49998,-36.8493 L 4.50002,-36.8493 M 80.647,-8.3 L 79.8707,-8.36111 L 79.1155,-8.54242 L 78.3979,-8.83965 L 77.7356,-9.2455 L 77.145,-9.74994 L 76.6406,-10.3406 L 76.2347,-11.0029 L 75.9375,-11.7204 L 75.7562,-12.4756 L 75.6951,-13.252 L 75.6951,-32.248 L 75.7562,-33.0244 L 75.9375,-33.7796 L 76.2347,-34.4971 L 76.6406,-35.1594 L 77.145,-35.7501 L 77.7356,-36.2545 L 78.3979,-36.6604 L 79.1155,-36.9576 L 79.8707,-37.1389 L 80.647,-37.2 L 105.643,-37.2 L 106.419,-37.1389 L 107.175,-36.9576 L 107.892,-36.6604 L 108.554,-36.2545 L 109.145,-35.7501 L 109.65,-35.1594 L 110.055,-34.4971 L 110.353,-33.7796 L 110.534,-33.0244 L 110.595,-32.248 L 110.595,-13.252 L 110.534,-12.4756 L 110.353,-11.7204 L 110.055,-11.0029 L 109.65,-10.3406 L 109.145,-9.74994 L 108.554,-9.2455 L 107.892,-8.83965 L 107.175,-8.54242 L 106.419,-8.36111 L 105.643,-8.3 L 80.647,-8.3 M 141.556,-29.7349 L 141.106,-29.8305 L 140.686,-30.0175 L 140.314,-30.2878 L 140.006,-30.6296 L 139.776,-31.0278 L 139.634,-31.4652 L 139.586,-31.9225 L 139.634,-32.3799 L 139.776,-32.8172 L 140.006,-33.2155 L 140.314,-33.5573 L 140.686,-33.8276 L 141.106,-34.0146 L 141.556,-34.1102 L 142.016,-34.1102 L 142.465,-34.0146 L 142.885,-33.8276 L 143.257,-33.5573 L 143.565,-33.2155 L 143.795,-32.8172 L 143.937,-32.3799 L 143.985,-31.9225 L 143.937,-31.4652 L 143.795,-31.0278 L 143.565,-30.6296 L 143.257,-30.2878 L 142.885,-30.0175 L 142.465,-29.8305 L 142.016,-29.7349 L 141.556,-29.7349 M 5.77003,-29.7349 L 5.32031,-29.8305 L 4.9001,-30.0175 L 4.52811,-30.2878 L 4.22038,-30.6296 L 3.99045,-31.0278 L 3.84836,-31.4652 L 3.80028,-31.9225 L 3.84836,-32.3799 L 3.99045,-32.8172 L 4.22038,-33.2155 L 4.52811,-33.5573 L 4.90016,-33.8276 L 5.32024,-34.0146 L 5.77003,-34.1102 L 6.22997,-34.1102 L 6.67976,-34.0146 L 7.09984,-33.8276 L 7.47189,-33.5573 L 7.77962,-33.2155 L 8.00955,-32.8172 L 8.15164,-32.3799 L 8.19972,-31.9225 L 8.15164,-31.4652 L 8.00955,-31.0278 L 7.77962,-30.6296 L 7.47189,-30.2878 L 7.0999,-30.0175 L 6.67969,-29.8305 L 6.22997,-29.7349 L 5.77003,-29.7349 M 54.4464,-12.4581 L 54.3252,-12.512 L 54.2365,-12.6106 L 54.1947,-12.7392 L 54.1947,-30.1487 L 54.2094,-30.2885 L 54.2757,-30.4034 L 54.383,-30.4813 L 54.5126,-30.5089 L 54.6423,-30.4813 L 54.7496,-30.4034 L 54.8159,-30.2885 L 54.8306,-30.1487 L 54.8306,-12.7392 L 54.7888,-12.6106 L 54.7001,-12.512 L 54.5789,-12.4581 L 54.4464,-12.4581 M 62.6913,-9.23235 L 62.254,-9.37444 L 61.8557,-9.60437 L 61.5139,-9.91209 L 61.2437,-10.2841 L 61.0566,-10.7043 L 60.961,-11.154 L 60.961,-27.2699 L 61.0566,-27.7197 L 61.2437,-28.1399 L 61.5139,-28.5119 L 61.8557,-28.8196 L 62.254,-29.0495 L 62.6913,-29.1916 L 63.1487,-29.2397 L 63.606,-29.1916 L 64.0433,-29.0495 L 64.4416,-28.8196 L 64.7834,-28.5119 L 65.0536,-28.1399 L 65.2407,-27.7197 L 65.3363,-27.2699 L 65.3363,-11.154 L 65.2407,-10.7043 L 65.0536,-10.2841 L 64.7834,-9.91209 L 64.4416,-9.60437 L 64.0433,-9.37444 L 63.606,-9.23235 L 63.1487,-9.18427 L 62.6913,-9.23235 M 124.288,-26.05 L 124.192,-26.0601 L 124.103,-26.0891 L 124.021,-26.1362 L 123.951,-26.199 L 123.896,-26.2752 L 123.858,-26.361 L 123.838,-26.4529 L 123.838,-27.547 L 123.858,-27.639 L 123.896,-27.7248 L 123.951,-27.8009 L 124.021,-27.8638 L 124.103,-27.9108 L 124.192,-27.9399 L 124.288,-27.95 L 126.283,-27.95 L 126.379,-27.9399 L 126.468,-27.9108 L 126.55,-27.8638 L 126.62,-27.8009 L 126.675,-27.7248 L 126.713,-27.639 L 126.733,-27.547 L 126.733,-26.4529 L 126.713,-26.361 L 126.675,-26.2752 L 126.62,-26.199 L 126.55,-26.1362 L 126.468,-26.0891 L 126.379,-26.0601 L 126.283,-26.05 L 124.288,-26.05 M 140.286,-23.7113 L 140.286,-26.9958 L 143.286,-26.9958 L 143.286,-23.7113 L 140.286,-23.7113 M 4.50002,-23.7113 L 4.50002,-26.9958 L 7.49998,-26.9958 L 7.49998,-23.7113 L 4.50002,-23.7113 M 124.288,-17.55 L 124.192,-17.5601 L 124.103,-17.5892 L 124.021,-17.6362 L 123.951,-17.6991 L 123.896,-17.7752 L 123.858,-17.861 L 123.838,-17.953 L 123.838,-19.0471 L 123.858,-19.139 L 123.896,-19.2248 L 123.951,-19.301 L 124.021,-19.3638 L 124.103,-19.4109 L 124.192,-19.4399 L 124.288,-19.45 L 126.283,-19.45 L 126.379,-19.4399 L 126.468,-19.4109 L 126.55,-19.3638 L 126.62,-19.301 L 126.675,-19.2248 L 126.713,-19.139 L 126.733,-19.0471 L 126.733,-17.953 L 126.713,-17.861 L 126.675,-17.7752 L 126.62,-17.6991 L 126.55,-17.6362 L 126.468,-17.5892 L 126.379,-17.5601 L 126.283,-17.55 L 124.288,-17.55 M 26.2029,-5.05275 L 26.111,-5.07228 L 26.0252,-5.11052 L 25.949,-5.16582 L 25.8862,-5.23561 L 25.8391,-5.31711 L 25.8101,-5.40652 L 25.8,-5.50262 L 25.8,-7.49738 L 25.8101,-7.59348 L 25.8391,-7.68289 L 25.8862,-7.76439 L 25.949,-7.83418 L 26.0252,-7.88948 L 26.111,-7.92772 L 26.2029,-7.94725 L 27.297,-7.94725 L 27.389,-7.92772 L 27.4748,-7.88948 L 27.5509,-7.83418 L 27.6138,-7.76439 L 27.6608,-7.68289 L 27.6899,-7.59348 L 27.7,-7.49738 L 27.7,-5.50262 L 27.6899,-5.40652 L 27.6608,-5.31711 L 27.6138,-5.23561 L 27.5509,-5.16582 L 27.4748,-5.11052 L 27.389,-5.07228 L 27.297,-5.05275 L 26.2029,-5.05275 M 17.703,-5.05275 L 17.611,-5.07228 L 17.5252,-5.11052 L 17.4491,-5.16582 L 17.3862,-5.23561 L 17.3392,-5.31711 L 17.3101,-5.40652 L 17.3,-5.50262 L 17.3,-7.49738 L 17.3101,-7.59348 L 17.3392,-7.68289 L 17.3862,-7.76439 L 17.4491,-7.83418 L 17.5252,-7.88948 L 17.611,-7.92772 L 17.703,-7.94725 L 18.7971,-7.94725 L 18.889,-7.92772 L 18.9748,-7.88948 L 19.051,-7.83418 L 19.1138,-7.76439 L 19.1609,-7.68289 L 19.1899,-7.59348 L 19.2,-7.49738 L 19.2,-5.50262 L 19.1899,-5.40652 L 19.1609,-5.31711 L 19.1138,-5.23561 L 19.051,-5.16582 L 18.9748,-5.11052 L 18.889,-5.07228 L 18.7971,-5.05275 L 17.703,-5.05275 M 89.6877,-3.09836 L 89.2504,-3.24045 L 88.8521,-3.47038 L 88.5103,-3.77811 L 88.2401,-4.1501 L 88.053,-4.57031 L 87.9574,-5.02003 L 87.9574,-5.47998 L 88.053,-5.9297 L 88.2401,-6.3499 L 88.5103,-6.72191 L 88.8521,-7.02963 L 89.2504,-7.25957 L 89.6877,-7.40166 L 90.1451,-7.44972 L 90.6024,-7.40166 L 91.0397,-7.25957 L 91.438,-7.02963 L 91.7798,-6.72191 L 92.05,-6.3499 L 92.2371,-5.9297 L 92.3327,-5.47998 L 92.3327,-5.02003 L 92.2371,-4.57031 L 92.05,-4.1501 L 91.7798,-3.77811 L 91.438,-3.47038 L 91.0397,-3.24045 L 90.6024,-3.09836 L 90.1451,-3.05028 L 89.6877,-3.09836" stroke="#0000ff" fill="none" stroke-width="0.1"/>
<path d="M 138.049,-41.7761 L 136.461,-42.5702 L 136.461,-40.982 L 138.049,-41.7761" stroke="none" fill="#000000" stroke-width="0.5"/><path d="M 146.436,-71.2021 L 146.436,-67.2021 L 143.136,-67.2021 L 143.136,-71.2021 M 4.64999,-71.2021 L 4.64999,-67.2021 L 1.34999,-67.2021 L 1.34999,-71.2021 M -0.0500031,-71.2021 L -0.0500031,-44.8261 L 147.836,-44.8261 M 140.286,-63.2254 L 140.286,-66.5099 L 143.286,-66.5099 L 143.286,-63.2254 L 140.286,-63.2254 M 4.50002,-63.2254 L 4.50002,-66.5099 L 7.49998,-66.5099 L 7.49998,-63.2254 L 4.50002,-63.2254 M 121.934,-47.2218 L 121.254,-47.8336 L 120.882,-48.6689 L 120.882,-63.5832 L 121.254,-64.4185 L 121.934,-65.0303 L 122.803,-65.3129 L 123.713,-65.2173 L 124.505,-64.7601 L 125.042,-64.0204 L 125.233,-63.1208 L 125.233,-49.1313 L 125.042,-48.2317 L 124.505,-47.492 L 123.713,-47.0348 L 122.803,-46.9392 L 121.934,-47.2218 M 141.556,-56.1109 L 141.106,-56.2065 L 140.686,-56.3936 L 140.314,-56.6639 L 140.006,-57.0056 L 139.776,-57.4039 L 139.634,-57.8412 L 139.586,-58.2986 L 139.634,-58.756 L 139.776,-59.1933 L 140.006,-59.5916 L 140.314,-59.9333 L 140.686,-60.2036 L 141.106,-60.3907 L 141.556,-60.4863 L 142.016,-60.4863 L 142.465,-60.3907 L 142.885,-60.2036 L 143.257,-59.9333 L 143.565,-59.5916 L 143.795,-59.1933 L 143.937,-58.756 L 143.985,-58.2986 L 143.937,-57.8412 L 143.795,-57.4039 L 143.565,-57.0056 L 143.257,-56.6639 L 142.885,-56.3936 L 142.465,-56.2065 L 142.016,-56.1109 L 141.556,-56.1109 M 5.77003,-56.1109 L 5.32031,-56.2065 L 4.9001,-56.3936 L 4.52811,-56.6639 L 4.22038,-57.0056 L 3.99045,-57.4039 L 3.84836,-57.8412 L 3.80028,-58.2986 L 3.84836,-58.756 L 3.99045,-59.1933 L 4.22038,-59.5916 L 4.52811,-59.9333 L 4.90016,-60.2036 L 5.32024,-60.3907 L 5.77003,-60.4863 L 6.22997,-60.4863 L 6.67976,-60.3907 L 7.09984,-60.2036 L 7.47189,-59.9333 L 7.77962,-59.5916 L 8.00955,-59.1933 L 8.15164,-58.756 L 8.19972,-58.2986 L 8.15164,-57.8412 L 8.00955,-57.4039 L 7.77962,-57.0056 L 7.47189,-56.6639 L 7.0999,-56.3936 L 6.67969,-56.2065 L 6.22997,-56.1109 L 5.77003,-56.1109 M 140.286,-50.0873 L 140.286,-53.3718 L 143.286,-53.3718 L 143.286,-50.0873 L 140.286,-50.0873 M 4.50002,-50.0873 L 4.50002,-53.3718 L 7.49998,-53.3718 L 7.49998,-50.0873 L 4.50002,-50.0873 M 65.4105,-46.9384 L 64.9608,-47.034 L 64.5406,-47.2211 L 64.1686,-47.4913 L 63.8609,-47.8331 L 63.631,-48.2314 L 63.4889,-48.6687 L 63.4408,-49.1261 L 63.4889,-49.5834 L 63.631,-50.0208 L 63.8609,-50.419 L 64.1686,-50.7608 L 64.5406,-51.0311 L 64.9608,-51.2181 L 65.4105,-51.3137 L 65.8705,-51.3137 L 66.3202,-51.2181 L 66.7404,-51.0311 L 67.1124,-50.7608 L 67.4201,-50.419 L 67.6501,-50.0208 L 67.7922,-49.5834 L 67.8402,-49.1261 L 67.7922,-48.6687 L 67.6501,-48.2314 L 67.4201,-47.8331 L 67.1124,-47.4913 L 66.7404,-47.2211 L 66.3202,-47.034 L 65.8705,-46.9384 L 65.4105,-46.9384" stroke="#0000ff" fill="none" stroke-width="0.1"/><path d="M 10.5862,-67.3317 L 10.6715,-67.3452 L 10.7549,-67.3676 L 10.8355,-67.3985 L 10.9125,-67.4377 L 10.9849,-67.4848 L 11.0519,-67.539 L 11.113,-67.6001 L 11.1674,-67.6673 L 11.2144,-67.7397 L 11.2536,-67.8167 L 11.2845,-67.8972 L 11.3069,-67.9807 L 11.3204,-68.0659 L 11.3249,-68.1521 L 11.3204,-68.2384 L 11.3069,-68.3236 L 11.2845,-68.4071 L 11.2536,-68.4876 L 11.2144,-68.5647 L 11.1673,-68.6371 L 11.1131,-68.7041 L 11.0519,-68.7652 L 10.9849,-68.8195 L 10.9125,-68.8665 L 10.8355,-68.9058 L 10.7549,-68.9367 L 10.6715,-68.959 L 10.5862,-68.9725 L 10.5,-68.9771 L 10.4137,-68.9725 L 10.3285,-68.959 L 10.2451,-68.9367 L 10.1646,-68.9058 L 10.0875,-68.8665 L 10.015,-68.8195 L 9.94806,-68.7652 L 9.8869,-68.7041 L 9.83266,-68.6371 L 9.78561,-68.5647 L 9.74634,-68.4876 L 9.71544,-68.4071 L 9.69308,-68.3236 L 9.67958,-68.2384 L 9.67506,-68.1521 L 9.67958,-68.0659 L 9.69308,-67.9807 L 9.71544,-67.8972 L 9.74635,-67.8167 L 9.78558,-67.7397 L 9.8326,-67.6673 L 9.88696,-67.6001 L 9.94806,-67.539 L 10.015,-67.4848 L 10.0875,-67.4378 L 10.1646,-67.3985 L 10.2451,-67.3676 L 10.3285,-67.3452 L 10.4137,-67.3317 L 10.5,-67.3272 L 10.5862,-67.3317" stroke="none" fill="#000000" stroke-width="0.5"/><path d="M -0.0500031,-153.902 L -0.0500031,-71.2021 L 147.836,-71.2021 M 140.286,-122.552 L 140.286,-142.552 L 143.286,-142.552 L 143.286,-122.552 L 140.286,-122.552 M 4.50002,-122.552 L 4.50002,-142.552 L 7.49998,-142.552 L 7.49998,-122.552 L 4.50002,-122.552 M 19.295,-86.7021 L 19.295,-142.502 L 121.395,-142.502 L 121.395,-86.7021 L 19.295,-86.7021 M 5.54263,-110.4 L 5.10532,-110.543 L 4.70705,-110.773 L 4.36528,-111.08 L 4.09502,-111.452 L 3.90794,-111.872 L 3.81233,-112.322 L 3.81233,-112.782 L 3.90794,-113.232 L 4.09502,-113.652 L 4.36528,-114.024 L 4.70705,-114.332 L 5.10532,-114.562 L 5.54263,-114.704 L 6,-114.752 L 6.45737,-114.704 L 6.89468,-114.562 L 7.29295,-114.332 L 7.63472,-114.024 L 7.90498,-113.652 L 8.09206,-113.232 L 8.18767,-112.782 L 8.18767,-112.322 L 8.09206,-111.872 L 7.90498,-111.452 L 7.63472,-111.08 L 7.29295,-110.773 L 6.89468,-110.543 L 6.45737,-110.4 L 6,-110.352 L 5.54263,-110.4 M 141.328,-110.4 L 140.891,-110.543 L 140.493,-110.773 L 140.151,-111.08 L 139.881,-111.452 L 139.694,-111.872 L 139.598,-112.322 L 139.598,-112.782 L 139.694,-113.232 L 139.881,-113.652 L 140.151,-114.024 L 140.493,-114.332 L 140.891,-114.562 L 141.328,-114.704 L 141.786,-114.752 L 142.243,-114.704 L 142.68,-114.562 L 143.079,-114.332 L 143.42,-114.024 L 143.691,-113.652 L 143.878,-113.232 L 143.973,-112.782 L 143.973,-112.322 L 143.878,-111.872 L 143.691,-111.452 L 143.42,-111.08 L 143.079,-110.773 L 142.68,-110.543 L 142.243,-110.4 L 141.786,-110.352 L 141.328,-110.4 M 140.286,-82.5522 L 140.286,-102.552 L 143.286,-102.552 L 143.286,-82.5522 L 140.286,-82.5522 M 4.50002,-82.5522 L 4.50002,-102.552 L 7.49998,-102.552 L 7.49998,-82.5522 L 4.50002,-82.5522" stroke="#0000ff" fill="none" stroke-width="0.1"/><path d="M 137.372,-138.732 L 137.457,-138.745 L 137.541,-138.768 L 137.621,-138.798 L 137.698,-138.838 L 137.77,-138.885 L 137.838,-138.939 L 137.899,-139 L 137.953,-139.067 L 138,-139.14 L 138.039,-139.217 L 138.07,-139.297 L 138.092,-139.381 L 138.106,-139.466 L 138.111,-139.552 L 138.106,-139.638 L 138.092,-139.724 L 138.07,-139.807 L 138.039,-139.888 L 138,-139.965 L 137.953,-140.037 L 137.899,-140.104 L 137.838,-140.165 L 137.771,-140.219 L 137.698,-140.267 L 137.621,-140.306 L 137.541,-140.337 L 137.457,-140.359 L 137.372,-140.373 L 137.286,-140.377 L 137.199,-140.373 L 137.114,-140.359 L 137.031,-140.337 L 136.95,-140.306 L 136.873,-140.267 L 136.801,-140.22 L 136.734,-140.165 L 136.673,-140.104 L 136.618,-140.037 L 136.571,-139.965 L 136.532,-139.888 L 136.501,-139.807 L 136.479,-139.724 L 136.465,-139.638 L 136.461,-139.552 L 136.465,-139.466 L 136.479,-139.381 L 136.501,-139.297 L 136.532,-139.217 L 136.571,-139.14 L 136.618,-139.067 L 136.673,-139 L 136.734,-138.939 L 136.801,-138.885 L 136.873,-138.838 L 136.95,-138.798 L 137.031,-138.768 L 137.114,-138.745 L 137.199,-138.732 L 137.286,-138.727 L 137.372,-138.732 M 138.049,-85.5521 L 136.461,-86.3462 L 136.461,-84.758 L 138.049,-85.5521 M 144.707,-75.4021 L 143.486,-76.4204 L 143.486,-75.9146 L 140.336,-75.9146 L 140.336,-74.8896 L 143.486,-74.8896 L 143.486,-74.3839 L 144.707,-75.4021" stroke="none" fill="#000000" stroke-width="0.5"/><path d="M 156.431,-69.05 L 159.108,-69.05 L 159.108,-72.15 L 157.758,-72.15 L 157.758,-75.45 L 159.108,-75.45 L 159.108,-79.05 L 163.508,-79.05 L 163.508,-75.45 L 164.858,-75.45 L 164.858,-72.15 L 163.508,-72.15 L 163.508,-69.05 L 166.185,-69.05 L 166.185,-66.05 L 169.569,-66.05 L 169.569,-69.05 L 177.212,-69.05 L 177.212,-89.15 L 174.212,-89.15 L 174.212,-96.9 L 171.112,-96.9 L 171.112,-95.55 L 167.812,-95.55 L 167.812,-96.9 L 164.212,-96.9 L 164.212,-101.3 L 167.812,-101.3 L 167.812,-102.65 L 171.112,-102.65 L 171.112,-101.3 L 174.212,-101.3 L 174.212,-109.05 L 177.212,-109.05 L 177.212,-129.15 L 169.569,-129.15 L 169.569,-132.15 L 166.185,-132.15 L 166.185,-129.15 L 163.508,-129.15 L 163.508,-126.05 L 164.858,-126.05 L 164.858,-122.75 L 163.508,-122.75 L 163.508,-119.15 L 159.108,-119.15 L 159.108,-122.75 L 157.758,-122.75 L 157.758,-126.05 L 159.108,-126.05 L 159.108,-129.15 L 156.431,-129.15 L 156.431,-132.15 L 153.047,-132.15 L 153.047,-129.15 L 147.836,-129.15 M 147.836,-69.05 L 153.047,-69.05 L 153.047,-66.05 L 156.431,-66.05 L 156.431,-69.05 M 153.328,-96.9483 L 152.891,-97.0904 L 152.493,-97.3204 L 152.151,-97.6281 L 151.881,-98.0002 L 151.694,-98.4202 L 151.598,-98.87 L 151.598,-99.33 L 151.694,-99.7798 L 151.881,-100.2 L 152.151,-100.572 L 152.493,-100.88 L 152.891,-101.11 L 153.328,-101.252 L 153.786,-101.3 L 154.243,-101.252 L 154.68,-101.11 L 155.079,-100.88 L 155.42,-100.572 L 155.691,-100.2 L 155.878,-99.7797 L 155.973,-99.33 L 155.973,-98.87 L 155.878,-98.4203 L 155.691,-98.0001 L 155.42,-97.6281 L 155.079,-97.3204 L 154.68,-97.0904 L 154.243,-96.9483 L 153.786,-96.9003 L 153.328,-96.9483" stroke="#0000ff" fill="none" stroke-width="0.1"/><path d="M 156.431,-2.95 L 159.108,-2.95 L 159.108,-6.05 L 157.758,-6.05 L 157.758,-9.34999 L 159.108,-9.34999 L 159.108,-12.95 L 163.508,-12.95 L 163.508,-9.34999 L 164.858,-9.34999 L 164.858,-6.05 L 163.508,-6.05 L 163.508,-2.95 L 166.185,-2.95 L 166.185,0.0500031 L 169.569,0.0500031 L 169.569,-2.95 L 177.212,-2.95 L 177.212,-23.05 L 174.212,-23.05 L 174.212,-30.8 L 171.112,-30.8 L 171.112,-29.45 L 167.812,-29.45 L 167.812,-30.8 L 164.212,-30.8 L 164.212,-35.2 L 167.812,-35.2 L 167.812,-36.55 L 171.112,-36.55 L 171.112,-35.2 L 174.212,-35.2 L 174.212,-42.95 L 177.212,-42.95 L 177.212,-63.05 L 169.569,-63.05 L 169.569,-66.05 M 166.185,-66.05 L 166.185,-63.05 L 163.508,-63.05 L 163.508,-59.95 L 164.858,-59.95 L 164.858,-56.65 L 163.508,-56.65 L 163.508,-53.05 L 159.108,-53.05 L 159.108,-56.65 L 157.758,-56.65 L 157.758,-59.95 L 159.108,-59.95 L 159.108,-63.05 L 156.431,-63.05 L 156.431,-66.05 M 153.047,-66.05 L 153.047,-63.05 L 147.836,-63.05 M 147.836,-153.902 L 147.836,0.0500031 M 147.836,-2.95 L 153.047,-2.95 L 153.047,0.0500031 L 156.431,0.0500031 L 156.431,-2.95 M 153.328,-30.8484 L 152.891,-30.9904 L 152.493,-31.2204 L 152.151,-31.5281 L 151.881,-31.9001 L 151.693,-32.3203 L 151.598,-32.77 L 151.598,-33.23 L 151.693,-33.6797 L 151.881,-34.0999 L 152.151,-34.4719 L 152.493,-34.7796 L 152.891,-35.0096 L 153.328,-35.1517 L 153.786,-35.1997 L 154.243,-35.1517 L 154.68,-35.0096 L 155.079,-34.7796 L 155.42,-34.4719 L 155.691,-34.0999 L 155.878,-33.6797 L 155.973,-33.23 L 155.973,-32.77 L 155.878,-32.3203 L 155.691,-31.9001 L 155.42,-31.5281 L 155.079,-31.2204 L 154.68,-30.9904 L 154.243,-30.8484 L 153.786,-30.8003 L 153.328,-30.8484" stroke="#0000ff" fill="none" stroke-width="0.1"/><path d="M 150.308,-54.6855 L 150.137,-54.7057 L 150.276,-54.9243 L 150.307,-55.1179 L 150.261,-55.3393 L 150.125,-55.5084 L 149.911,-55.6189 L 149.628,-55.657 L 149.62,-55.657 L 149.334,-55.6181 L 149.118,-55.5055 L 148.982,-55.336 L 148.937,-55.1205 L 148.97,-54.9436 L 149.135,-54.718 L 148.949,-54.718 L 148.791,-54.7415 L 148.665,-54.8171 L 148.586,-54.9389 L 148.561,-55.0971 L 148.613,-55.3099 L 148.726,-55.4377 L 148.557,-55.5542 L 148.494,-55.4919 L 148.423,-55.3685 L 148.376,-55.2243 L 148.36,-55.0767 L 148.378,-54.8898 L 148.43,-54.7309 L 148.514,-54.6031 L 148.628,-54.5082 L 148.77,-54.4485 L 148.94,-54.428 L 150.308,-54.428 L 150.308,-54.6855 M 149.306,-54.718 L 149.186,-54.8459 L 149.148,-55.0221 L 149.18,-55.1683 L 149.276,-55.2808 L 149.421,-55.348 L 149.604,-55.3693 L 149.808,-55.3479 L 149.962,-55.2802 L 150.06,-55.1672 L 150.093,-55.0191 L 150.056,-54.8456 L 149.935,-54.718 L 149.306,-54.718 M 152.149,-55.2832 L 152.702,-54.7595 L 152.885,-54.6073 L 153.041,-54.51 L 153.18,-54.4568 L 153.313,-54.4396 L 153.53,-54.4782 L 153.686,-54.5909 L 153.785,-54.7735 L 153.819,-55.0266 L 153.8,-55.2016 L 153.741,-55.356 L 153.649,-55.4827 L 153.528,-55.5773 L 153.385,-55.6359 L 153.277,-55.6494 L 153.277,-55.3594 L 153.376,-55.3452 L 153.499,-55.2788 L 153.581,-55.1712 L 153.607,-55.0335 L 153.585,-54.9048 L 153.516,-54.8069 L 153.41,-54.7473 L 153.276,-54.7284 L 153.164,-54.7465 L 153.051,-54.7983 L 152.93,-54.8812 L 152.793,-54.9966 L 152.132,-55.617 L 151.936,-55.617 L 151.936,-54.376 L 152.149,-54.376 L 152.149,-55.2832 M 156.304,-54.8938 L 156.307,-54.944 L 156.263,-55.1067 L 156.039,-55.3165 L 156.308,-55.3313 L 156.308,-55.601 L 154.936,-55.601 L 154.936,-55.312 L 155.85,-55.312 L 155.986,-55.1813 L 156.028,-54.978 L 156.025,-54.9047 L 156.022,-54.8831 L 156.3,-54.8786 L 156.304,-54.8938 M 155.943,-53.5109 L 156.142,-53.6284 L 156.265,-53.813 L 156.307,-54.0623 L 156.286,-54.2364 L 156.223,-54.3895 L 156.122,-54.5155 L 155.984,-54.6101 L 155.816,-54.669 L 155.622,-54.6891 L 155.592,-54.6891 L 155.319,-54.6414 L 155.113,-54.5026 L 154.981,-54.2897 L 154.936,-54.0165 L 154.952,-53.8548 L 155,-53.7085 L 155.077,-53.5858 L 155.149,-53.5186 L 155.294,-53.6467 L 155.193,-53.7702 L 155.148,-53.9911 L 155.173,-54.1423 L 155.248,-54.2663 L 155.364,-54.3536 L 155.567,-54.4129 L 155.567,-53.4701 L 155.665,-53.4701 L 155.943,-53.5109 M 155.732,-53.7511 L 155.732,-54.4079 L 155.915,-54.354 L 156.013,-54.285 L 156.074,-54.1849 L 156.094,-54.0626 L 156.076,-53.9359 L 156.019,-53.8365 L 155.928,-53.773 L 155.813,-53.7511 L 155.732,-53.7511 M 153.394,-52.8873 L 153.629,-53.0067 L 153.771,-53.1948 L 153.819,-53.4563 L 153.77,-53.7173 L 153.627,-53.9057 L 153.387,-54.0242 L 153.043,-54.0654 L 152.694,-54.0654 L 152.362,-54.0216 L 152.126,-53.9029 L 151.985,-53.7149 L 151.936,-53.4534 L 151.986,-53.1893 L 152.13,-53.0011 L 152.371,-52.884 L 152.714,-52.8434 L 153.062,-52.8434 L 153.394,-52.8873 M 152.64,-53.1313 L 152.436,-53.1501 L 152.28,-53.2039 L 152.18,-53.3055 L 152.147,-53.4536 L 152.182,-53.6029 L 152.286,-53.706 L 152.447,-53.7605 L 152.66,-53.7774 L 153.131,-53.7774 L 153.331,-53.7572 L 153.48,-53.7011 L 153.575,-53.5995 L 153.607,-53.4563 L 153.574,-53.3088 L 153.474,-53.2052 L 153.316,-53.1488 L 153.102,-53.1313 L 152.64,-53.1313 M 150.811,-53.7311 L 150.857,-53.7633 L 150.89,-53.8152 L 150.901,-53.8872 L 150.889,-53.96 L 150.858,-54.0119 L 150.811,-54.0434 L 150.752,-54.0543 L 150.69,-54.043 L 150.643,-54.0102 L 150.611,-53.9582 L 150.6,-53.8872 L 150.611,-53.8161 L 150.643,-53.7642 L 150.69,-53.7314 L 150.752,-53.72 L 150.811,-53.7311 M 150.308,-54.0322 L 148.936,-54.0322 L 148.936,-53.7422 L 150.308,-53.7422 L 150.308,-54.0322 M 149.155,-52.7704 L 149.166,-52.8573 L 149.204,-52.9243 L 149.271,-52.9584 L 149.352,-52.9674 L 150.123,-52.9674 L 150.123,-52.7184 L 150.308,-52.7184 L 150.308,-52.9674 L 150.692,-52.9674 L 150.692,-53.2554 L 150.308,-53.2554 L 150.308,-53.4684 L 150.123,-53.4684 L 150.123,-53.2554 L 149.303,-53.2554 L 149.028,-53.1584 L 148.936,-52.8831 L 148.944,-52.7776 L 148.96,-52.7044 L 149.158,-52.7044 L 149.155,-52.7704 M 156.308,-52.3857 L 155.175,-52.6939 L 156.308,-53.0021 L 156.308,-53.3005 L 154.936,-52.8429 L 154.936,-52.544 L 156.308,-52.0872 L 156.308,-52.3857 M 152.149,-52.1699 L 152.702,-51.6462 L 152.885,-51.494 L 153.041,-51.3967 L 153.18,-51.3435 L 153.313,-51.3263 L 153.53,-51.3649 L 153.686,-51.4776 L 153.785,-51.6602 L 153.819,-51.9133 L 153.8,-52.0884 L 153.741,-52.2428 L 153.649,-52.3694 L 153.528,-52.4641 L 153.385,-52.5227 L 153.277,-52.5361 L 153.277,-52.2461 L 153.376,-52.232 L 153.499,-52.1655 L 153.581,-52.0579 L 153.607,-51.9202 L 153.585,-51.7916 L 153.516,-51.6936 L 153.41,-51.634 L 153.276,-51.6151 L 153.164,-51.6332 L 153.051,-51.685 L 152.93,-51.7679 L 152.793,-51.8834 L 152.132,-52.5037 L 151.936,-52.5037 L 151.936,-51.2627 L 152.149,-51.2627 L 152.149,-52.1699 M 150.183,-51.3827 L 150.306,-51.7025 L 150.265,-51.89 L 150.07,-52.1364 L 150.884,-52.1364 L 150.884,-52.4244 L 148.936,-52.4244 L 148.936,-52.1364 L 149.932,-52.1364 L 150.055,-52.011 L 150.092,-51.8415 L 150.075,-51.7147 L 150.017,-51.6227 L 149.922,-51.5715 L 149.802,-51.5564 L 148.936,-51.5564 L 148.936,-51.2684 L 149.804,-51.2684 L 150.183,-51.3827 M 155.155,-51.6913 L 155.204,-51.7264 L 155.237,-51.7799 L 155.249,-51.8495 L 155.237,-51.9179 L 155.204,-51.9714 L 155.155,-52.0058 L 155.092,-52.0176 L 155.028,-52.0058 L 154.98,-51.9717 L 154.948,-51.9186 L 154.936,-51.8494 L 154.948,-51.7788 L 154.98,-51.7253 L 155.028,-51.6911 L 155.091,-51.6794 L 155.155,-51.6913 M 150.308,-50.0409 L 149.315,-50.0409 L 149.188,-50.1707 L 149.148,-50.3657 L 149.217,-50.5576 L 149.417,-50.6189 L 150.308,-50.6189 L 150.308,-50.9069 L 149.414,-50.9069 L 149.2,-50.8764 L 149.054,-50.7942 L 148.966,-50.6625 L 148.936,-50.4756 L 148.976,-50.2693 L 149.156,-50.0329 L 148.936,-50.0189 L 148.936,-49.7509 L 150.308,-49.7509 L 150.308,-50.0409 M 153.516,-50.8561 L 153.302,-50.8561 L 153.453,-50.3921 L 151.936,-50.3921 L 151.936,-50.1041 L 153.812,-50.1041 L 153.516,-50.8561 M 156.82,-50.6416 L 156.606,-50.6416 L 156.606,-49.641 L 154.936,-50.399 L 154.936,-50.0996 L 156.663,-49.3606 L 156.82,-49.3606 L 156.82,-50.6416 M 149.922,-48.2066 L 150.134,-48.3112 L 150.263,-48.4728 L 150.307,-48.6884 L 150.272,-48.8651 L 150.101,-49.0913 L 150.884,-49.0913 L 150.884,-49.3803 L 148.936,-49.3803 L 148.936,-49.1251 L 149.129,-49.1037 L 148.971,-48.8786 L 148.936,-48.6858 L 148.98,-48.4696 L 149.109,-48.3093 L 149.32,-48.2061 L 149.612,-48.1703 L 149.627,-48.1703 L 149.922,-48.2066 M 149.478,-48.4655 L 149.357,-48.4892 L 149.2,-48.5965 L 149.147,-48.782 L 149.19,-48.9678 L 149.326,-49.0913 L 149.915,-49.0913 L 150.05,-48.9697 L 150.093,-48.787 L 150.064,-48.6428 L 149.974,-48.5368 L 149.83,-48.4767 L 149.637,-48.4582 L 149.478,-48.4655 M 152.86,-49.3754 L 152.647,-49.3754 L 152.647,-48.7194 L 152.86,-48.7194 L 152.86,-49.3754 M 156.516,-48.943 L 156.302,-48.943 L 156.453,-48.479 L 154.936,-48.479 L 154.936,-48.191 L 156.812,-48.191 L 156.516,-48.943 M 153.394,-47.1656 L 153.629,-47.285 L 153.771,-47.4731 L 153.819,-47.7347 L 153.77,-47.9956 L 153.627,-48.1841 L 153.387,-48.3026 L 153.043,-48.3437 L 152.694,-48.3437 L 152.362,-48.3 L 152.126,-48.1813 L 151.985,-47.9933 L 151.936,-47.7317 L 151.986,-47.4676 L 152.13,-47.2795 L 152.371,-47.1623 L 152.714,-47.1217 L 153.062,-47.1217 L 153.394,-47.1656 M 152.64,-47.4097 L 152.436,-47.4284 L 152.28,-47.4823 L 152.18,-47.5838 L 152.147,-47.7319 L 152.182,-47.8812 L 152.286,-47.9843 L 152.447,-48.0388 L 152.66,-48.0557 L 153.131,-48.0557 L 153.331,-48.0355 L 153.48,-47.9794 L 153.575,-47.8778 L 153.607,-47.7346 L 153.574,-47.5871 L 153.474,-47.4835 L 153.316,-47.4271 L 153.102,-47.4097 L 152.64,-47.4097 M 149.155,-47.5058 L 149.204,-47.5408 L 149.237,-47.5943 L 149.249,-47.6639 L 149.237,-47.7323 L 149.204,-47.7859 L 149.155,-47.8203 L 149.092,-47.8321 L 149.028,-47.8203 L 148.98,-47.7861 L 148.948,-47.733 L 148.936,-47.6639 L 148.948,-47.5933 L 148.98,-47.5397 L 149.028,-47.5056 L 149.091,-47.4938 L 149.155,-47.5058 M 156.394,-46.3043 L 156.629,-46.4237 L 156.771,-46.6118 L 156.819,-46.8733 L 156.77,-47.1343 L 156.627,-47.3227 L 156.387,-47.4412 L 156.043,-47.4823 L 155.694,-47.4823 L 155.362,-47.4386 L 155.126,-47.3199 L 154.985,-47.1319 L 154.936,-46.8704 L 154.986,-46.6063 L 155.13,-46.4181 L 155.371,-46.301 L 155.714,-46.2603 L 156.062,-46.2603 L 156.394,-46.3043 M 155.64,-46.5483 L 155.436,-46.5671 L 155.28,-46.6209 L 155.18,-46.7225 L 155.147,-46.8705 L 155.182,-47.0199 L 155.286,-47.123 L 155.447,-47.1774 L 155.66,-47.1944 L 156.131,-47.1944 L 156.331,-47.1742 L 156.48,-47.1181 L 156.575,-47.0165 L 156.607,-46.8733 L 156.574,-46.7258 L 156.474,-46.6222 L 156.316,-46.5658 L 156.102,-46.5483 L 155.64,-46.5483 M 149.353,-46.2258 L 149.298,-46.2381 L 149.216,-46.303 L 149.164,-46.3968 L 149.148,-46.511 L 149.175,-46.6539 L 149.262,-46.7603 L 149.405,-46.819 L 149.6,-46.8369 L 149.643,-46.8369 L 149.836,-46.8187 L 149.979,-46.7593 L 150.066,-46.6543 L 150.094,-46.5136 L 150.074,-46.3951 L 150.013,-46.3 L 149.919,-46.2372 L 149.853,-46.2245 L 149.853,-45.9614 L 150.009,-45.9914 L 150.168,-46.1036 L 150.272,-46.2774 L 150.307,-46.5053 L 150.261,-46.7651 L 150.127,-46.9593 L 149.916,-47.0824 L 149.635,-47.1249 L 149.617,-47.1249 L 149.326,-47.0818 L 149.114,-46.9574 L 148.981,-46.7627 L 148.936,-46.5011 L 148.951,-46.3547 L 148.997,-46.2209 L 149.07,-46.1086 L 149.166,-46.024 L 149.279,-45.9704 L 149.353,-45.9592 L 149.353,-46.2258 M 153.82,-46.833 L 153.606,-46.833 L 153.606,-45.8324 L 151.936,-46.5904 L 151.936,-46.291 L 153.663,-45.552 L 153.82,-45.552 L 153.82,-46.833 M 155.353,-45.0656 L 155.298,-45.0779 L 155.216,-45.1428 L 155.164,-45.2366 L 155.148,-45.3509 L 155.175,-45.4937 L 155.262,-45.6001 L 155.405,-45.6588 L 155.6,-45.6767 L 155.643,-45.6767 L 155.836,-45.6585 L 155.979,-45.5992 L 156.066,-45.4942 L 156.094,-45.3535 L 156.074,-45.235 L 156.013,-45.1399 L 155.919,-45.077 L 155.853,-45.0643 L 155.853,-44.8012 L 156.009,-44.8313 L 156.168,-44.9434 L 156.272,-45.1172 L 156.307,-45.3452 L 156.261,-45.605 L 156.127,-45.7991 L 155.916,-45.9222 L 155.635,-45.9647 L 155.617,-45.9647 L 155.326,-45.9217 L 155.114,-45.7973 L 154.981,-45.6025 L 154.936,-45.341 L 154.951,-45.1945 L 154.997,-45.0608 L 155.07,-44.9485 L 155.166,-44.8639 L 155.279,-44.8103 L 155.353,-44.799 L 155.353,-45.0656 M 149.698,-44.4356 L 149.954,-44.4946 L 150.144,-44.6279 L 150.266,-44.824 L 150.307,-45.075 L 150.286,-45.2559 L 150.223,-45.4125 L 150.123,-45.5387 L 149.988,-45.6319 L 149.823,-45.69 L 149.632,-45.7098 L 149.621,-45.7098 L 149.332,-45.6652 L 149.118,-45.5357 L 148.982,-45.3342 L 148.936,-45.0708 L 148.982,-44.8077 L 149.118,-44.6069 L 149.33,-44.4774 L 149.611,-44.433 L 149.698,-44.4356 M 149.425,-44.7419 L 149.271,-44.8099 L 149.178,-44.923 L 149.148,-45.0708 L 149.178,-45.2214 L 149.272,-45.3346 L 149.419,-45.4011 L 149.607,-45.4221 L 149.814,-45.4013 L 149.967,-45.3351 L 150.063,-45.2226 L 150.095,-45.0739 L 150.063,-44.9235 L 149.968,-44.8102 L 149.821,-44.7421 L 149.635,-44.7205 L 149.425,-44.7419 M 152.86,-45.2104 L 152.647,-45.2104 L 152.647,-44.5544 L 152.86,-44.5544 L 152.86,-45.2104 M 156.82,-44.5567 L 156.606,-44.5567 L 156.606,-43.5561 L 154.936,-44.3141 L 154.936,-44.0147 L 156.663,-43.2757 L 156.82,-43.2757 L 156.82,-44.5567 M 153.394,-43.0006 L 153.629,-43.1199 L 153.771,-43.3081 L 153.819,-43.5696 L 153.77,-43.8306 L 153.627,-44.019 L 153.387,-44.1375 L 153.043,-44.1786 L 152.694,-44.1786 L 152.362,-44.1349 L 152.126,-44.0162 L 151.985,-43.8282 L 151.936,-43.5667 L 151.986,-43.3026 L 152.13,-43.1144 L 152.371,-42.9973 L 152.714,-42.9566 L 153.062,-42.9566 L 153.394,-43.0006 M 152.64,-43.2446 L 152.436,-43.2634 L 152.28,-43.3172 L 152.18,-43.4188 L 152.147,-43.5668 L 152.182,-43.7162 L 152.286,-43.8193 L 152.447,-43.8737 L 152.66,-43.8906 L 153.131,-43.8906 L 153.331,-43.8705 L 153.48,-43.8143 L 153.575,-43.7128 L 153.607,-43.5696 L 153.574,-43.4221 L 153.474,-43.3185 L 153.316,-43.2621 L 153.102,-43.2446 L 152.64,-43.2446 M 150.034,-42.1592 L 150.187,-42.2366 L 150.276,-42.3624 L 150.307,-42.5473 L 150.257,-42.7765 L 150.067,-42.9895 L 150.257,-43.1612 L 150.306,-43.3724 L 150.264,-43.5863 L 150.072,-43.8335 L 150.308,-43.8486 L 150.308,-44.1156 L 148.936,-44.1156 L 148.936,-43.8266 L 149.925,-43.8266 L 150.053,-43.7065 L 150.092,-43.5401 L 150.076,-43.4185 L 150.021,-43.3304 L 149.927,-43.2825 L 149.807,-43.2686 L 148.936,-43.2686 L 148.936,-42.9807 L 149.893,-42.9817 L 150.044,-42.8673 L 150.093,-42.6931 L 150.075,-42.5684 L 150.019,-42.4812 L 149.926,-42.4342 L 149.808,-42.4206 L 148.936,-42.4206 L 148.936,-42.1317 L 149.806,-42.1317 L 150.034,-42.1592 M 155.817,-41.7361 L 156.013,-41.8402 L 156.137,-41.9988 L 156.179,-42.2065 L 156.143,-42.4042 L 155.949,-42.6908 L 156.299,-42.5804 L 156.464,-42.4383 L 156.564,-42.2355 L 156.598,-41.995 L 156.82,-41.995 L 156.82,-42.007 L 156.787,-42.2763 L 156.692,-42.5064 L 156.542,-42.694 L 156.339,-42.833 L 156.091,-42.9189 L 155.802,-42.948 L 155.67,-42.948 L 155.364,-42.9025 L 155.133,-42.77 L 154.986,-42.5672 L 154.936,-42.3063 L 154.956,-42.1395 L 155.015,-41.9911 L 155.111,-41.8687 L 155.237,-41.7775 L 155.39,-41.7198 L 155.561,-41.7004 L 155.817,-41.7361 M 155.398,-42.0078 L 155.267,-42.074 L 155.177,-42.1802 L 155.147,-42.3161 L 155.18,-42.4633 L 155.28,-42.5736 L 155.429,-42.6379 L 155.615,-42.658 L 155.751,-42.658 L 155.843,-42.6001 L 155.91,-42.5223 L 155.954,-42.428 L 155.968,-42.3223 L 155.939,-42.1841 L 155.851,-42.0753 L 155.719,-42.0081 L 155.558,-41.9866 L 155.398,-42.0078 M 152.817,-41.404 L 153.013,-41.5081 L 153.137,-41.6667 L 153.179,-41.8744 L 153.143,-42.0722 L 152.949,-42.3588 L 153.299,-42.2483 L 153.464,-42.1063 L 153.564,-41.9035 L 153.598,-41.663 L 153.82,-41.663 L 153.82,-41.675 L 153.787,-41.9443 L 153.692,-42.1743 L 153.542,-42.362 L 153.339,-42.5009 L 153.091,-42.5869 L 152.802,-42.616 L 152.67,-42.616 L 152.364,-42.5704 L 152.133,-42.438 L 151.986,-42.2352 L 151.936,-41.9742 L 151.956,-41.8075 L 152.015,-41.6591 L 152.111,-41.5366 L 152.237,-41.4455 L 152.39,-41.3877 L 152.561,-41.3684 L 152.817,-41.404 M 152.398,-41.6758 L 152.267,-41.7419 L 152.177,-41.8482 L 152.147,-41.9841 L 152.18,-42.1312 L 152.28,-42.2416 L 152.429,-42.3059 L 152.615,-42.326 L 152.751,-42.326 L 152.843,-42.2681 L 152.91,-42.1903 L 152.954,-42.096 L 152.968,-41.9902 L 152.939,-41.8521 L 152.851,-41.7432 L 152.719,-41.6761 L 152.558,-41.6546 L 152.398,-41.6758 M 150.82,-41.2269 L 148.744,-41.9138 L 148.744,-41.7311 L 150.82,-41.0432 L 150.82,-41.2269 M 156.884,-40.5164 L 156.099,-40.5164 L 156.271,-40.7442 L 156.307,-40.9173 L 156.262,-41.1315 L 156.129,-41.2944 L 155.915,-41.3998 L 155.631,-41.436 L 155.333,-41.399 L 155.114,-41.2913 L 154.981,-41.1286 L 154.937,-40.9187 L 154.971,-40.7319 L 155.128,-40.5069 L 154.936,-40.4832 L 154.936,-40.2264 L 156.884,-40.2264 L 156.884,-40.5164 M 155.326,-40.5164 L 155.191,-40.6404 L 155.148,-40.8199 L 155.18,-40.9636 L 155.274,-41.0692 L 155.419,-41.1296 L 155.607,-41.1489 L 155.966,-41.0721 L 156.095,-40.8239 L 156.05,-40.6384 L 155.915,-40.5164 L 155.326,-40.5164 M 149.524,-39.7573 L 149.662,-39.9678 L 149.693,-40.0695 L 149.722,-40.2015 L 149.752,-40.3299 L 149.792,-40.4241 L 149.851,-40.4865 L 149.931,-40.5089 L 150.014,-40.4902 L 150.079,-40.4357 L 150.119,-40.3536 L 150.131,-40.2521 L 150.116,-40.1372 L 150.067,-40.0499 L 149.991,-39.9967 L 149.95,-39.9889 L 149.95,-39.7049 L 150.061,-39.7299 L 150.189,-39.8397 L 150.277,-40.0168 L 150.307,-40.2512 L 150.277,-40.4706 L 150.191,-40.6396 L 150.066,-40.7453 L 149.921,-40.7787 L 149.685,-40.6648 L 149.532,-40.2967 L 149.499,-40.1624 L 149.458,-40.0598 L 149.396,-39.9892 L 149.309,-39.9636 L 149.223,-39.9843 L 149.159,-40.0438 L 149.122,-40.1312 L 149.11,-40.2418 L 149.125,-40.363 L 149.172,-40.4634 L 149.253,-40.5327 L 149.314,-40.5481 L 149.314,-40.8186 L 149.255,-40.8091 L 149.153,-40.7554 L 149.064,-40.669 L 148.995,-40.5538 L 148.951,-40.4123 L 148.936,-40.2502 L 148.964,-40.0183 L 149.048,-39.8394 L 149.171,-39.7267 L 149.321,-39.6903 L 149.524,-39.7573 M 149.353,-38.5197 L 149.298,-38.532 L 149.216,-38.5969 L 149.164,-38.6908 L 149.148,-38.805 L 149.175,-38.9478 L 149.262,-39.0542 L 149.405,-39.1129 L 149.6,-39.1308 L 149.643,-39.1308 L 149.836,-39.1126 L 149.979,-39.0533 L 150.066,-38.9483 L 150.094,-38.8076 L 150.074,-38.6891 L 150.013,-38.594 L 149.919,-38.5311 L 149.853,-38.5184 L 149.853,-38.2553 L 150.009,-38.2854 L 150.168,-38.3975 L 150.272,-38.5713 L 150.307,-38.7993 L 150.261,-39.0591 L 150.127,-39.2533 L 149.916,-39.3763 L 149.635,-39.4188 L 149.617,-39.4188 L 149.326,-39.3758 L 149.114,-39.2514 L 148.981,-39.0566 L 148.936,-38.7951 L 148.951,-38.6486 L 148.997,-38.5149 L 149.07,-38.4026 L 149.166,-38.318 L 149.279,-38.2644 L 149.353,-38.2531 L 149.353,-38.5197 M 149.698,-36.7296 L 149.954,-36.7886 L 150.144,-36.9218 L 150.266,-37.1179 L 150.307,-37.3689 L 150.286,-37.5498 L 150.223,-37.7064 L 150.123,-37.8326 L 149.988,-37.9258 L 149.823,-37.9839 L 149.632,-38.0038 L 149.621,-38.0038 L 149.332,-37.9591 L 149.118,-37.8297 L 148.982,-37.6282 L 148.936,-37.3648 L 148.982,-37.1016 L 149.118,-36.9008 L 149.33,-36.7713 L 149.611,-36.7269 L 149.698,-36.7296 M 149.425,-37.0358 L 149.271,-37.1039 L 149.178,-37.217 L 149.148,-37.3647 L 149.178,-37.5153 L 149.272,-37.6285 L 149.419,-37.6951 L 149.607,-37.716 L 149.814,-37.6952 L 149.967,-37.6291 L 150.063,-37.5166 L 150.095,-37.3678 L 150.063,-37.2174 L 149.968,-37.1041 L 149.821,-37.036 L 149.635,-37.0145 L 149.425,-37.0358 M 149.155,-35.8476 L 149.166,-35.9344 L 149.204,-36.0014 L 149.271,-36.0355 L 149.352,-36.0446 L 150.123,-36.0446 L 150.123,-35.7956 L 150.308,-35.7956 L 150.308,-36.0446 L 150.692,-36.0446 L 150.692,-36.3326 L 150.308,-36.3326 L 150.308,-36.5456 L 150.123,-36.5456 L 150.123,-36.3326 L 149.303,-36.3326 L 149.028,-36.2356 L 148.936,-35.9603 L 148.944,-35.8548 L 148.96,-35.7816 L 149.158,-35.7816 L 149.155,-35.8476 M 149.155,-34.9306 L 149.166,-35.0174 L 149.204,-35.0845 L 149.271,-35.1185 L 149.352,-35.1276 L 150.123,-35.1276 L 150.123,-34.8786 L 150.308,-34.8786 L 150.308,-35.1276 L 150.692,-35.1276 L 150.692,-35.4156 L 150.308,-35.4156 L 150.308,-35.6286 L 150.123,-35.6286 L 150.123,-35.4156 L 149.303,-35.4156 L 149.028,-35.3186 L 148.936,-35.0433 L 148.944,-34.9378 L 148.96,-34.8646 L 149.158,-34.8646 L 149.155,-34.9306 M 149.922,-33.4019 L 150.134,-33.5065 L 150.263,-33.6681 L 150.307,-33.8837 L 150.272,-34.0604 L 150.101,-34.2866 L 150.884,-34.2866 L 150.884,-34.5756 L 148.936,-34.5756 L 148.936,-34.3204 L 149.129,-34.299 L 148.971,-34.0739 L 148.936,-33.8811 L 148.98,-33.6649 L 149.109,-33.5046 L 149.32,-33.4015 L 149.612,-33.3656 L 149.627,-33.3656 L 149.922,-33.4019 M 149.478,-33.6608 L 149.357,-33.6845 L 149.2,-33.7918 L 149.147,-33.9773 L 149.19,-34.1631 L 149.326,-34.2866 L 149.915,-34.2866 L 150.05,-34.165 L 150.093,-33.9823 L 150.064,-33.8381 L 149.974,-33.7321 L 149.83,-33.6721 L 149.637,-33.6535 L 149.478,-33.6608 M 149.943,-31.9221 L 150.142,-32.0395 L 150.265,-32.2241 L 150.307,-32.4734 L 150.286,-32.6475 L 150.223,-32.8006 L 150.122,-32.9267 L 149.984,-33.0213 L 149.816,-33.0801 L 149.622,-33.1003 L 149.592,-33.1003 L 149.319,-33.0526 L 149.113,-32.9138 L 148.981,-32.7008 L 148.936,-32.4277 L 148.952,-32.2659 L 149,-32.1196 L 149.077,-31.9969 L 149.149,-31.9297 L 149.294,-32.0578 L 149.193,-32.1814 L 149.148,-32.4022 L 149.173,-32.5534 L 149.248,-32.6775 L 149.364,-32.7647 L 149.567,-32.824 L 149.567,-31.8813 L 149.665,-31.8813 L 149.943,-31.9221 M 149.732,-32.1623 L 149.732,-32.8191 L 149.915,-32.7652 L 150.013,-32.6962 L 150.074,-32.596 L 150.094,-32.4738 L 150.076,-32.347 L 150.019,-32.2476 L 149.928,-32.1841 L 149.813,-32.1623 L 149.732,-32.1623 M 149.149,-31.2848 L 150.145,-30.5455 L 150.308,-30.5455 L 150.308,-31.6105 L 150.094,-31.6105 L 150.094,-30.8981 L 149.105,-31.6315 L 148.936,-31.6315 L 148.936,-30.5245 L 149.149,-30.5245 L 149.149,-31.2848 M 150.516,-30.1266 L 150.302,-30.1266 L 150.453,-29.6626 L 148.936,-29.6626 L 148.936,-29.3746 L 150.812,-29.3746 L 150.516,-30.1266 M 150.82,-28.1048 L 148.744,-28.7917 L 148.744,-28.609 L 150.82,-27.9212 L 150.82,-28.1048 M 149.524,-26.6353 L 149.662,-26.8457 L 149.693,-26.9474 L 149.722,-27.0794 L 149.752,-27.2079 L 149.792,-27.3021 L 149.851,-27.3645 L 149.931,-27.3868 L 150.014,-27.3681 L 150.079,-27.3136 L 150.119,-27.2316 L 150.131,-27.13 L 150.116,-27.0151 L 150.067,-26.9278 L 149.991,-26.8746 L 149.95,-26.8669 L 149.95,-26.5828 L 150.061,-26.6078 L 150.189,-26.7176 L 150.277,-26.8947 L 150.307,-27.1291 L 150.277,-27.3485 L 150.191,-27.5176 L 150.066,-27.6233 L 149.921,-27.6566 L 149.685,-27.5427 L 149.532,-27.1747 L 149.499,-27.0404 L 149.458,-26.9378 L 149.396,-26.8672 L 149.309,-26.8415 L 149.223,-26.8622 L 149.159,-26.9218 L 149.122,-27.0092 L 149.11,-27.1197 L 149.125,-27.241 L 149.172,-27.3413 L 149.253,-27.4106 L 149.314,-27.4261 L 149.314,-27.6965 L 149.255,-27.687 L 149.153,-27.6334 L 149.064,-27.5469 L 148.995,-27.4317 L 148.951,-27.2902 L 148.936,-27.1281 L 148.964,-26.8962 L 149.048,-26.7174 L 149.171,-26.6046 L 149.321,-26.5682 L 149.524,-26.6353 M 149.919,-25.0636 L 150.132,-25.1669 L 150.263,-25.3277 L 150.307,-25.5455 L 150.275,-25.7315 L 150.128,-25.9544 L 150.308,-25.9721 L 150.308,-26.2367 L 148.36,-26.2367 L 148.36,-25.9477 L 149.136,-25.9477 L 148.971,-25.7209 L 148.937,-25.5423 L 148.981,-25.3319 L 149.114,-25.1707 L 149.328,-25.0645 L 149.612,-25.0277 L 149.625,-25.0277 L 149.919,-25.0636 M 149.274,-25.3915 L 149.146,-25.6378 L 149.188,-25.8247 L 149.317,-25.9477 L 149.928,-25.9477 L 150.054,-25.8265 L 150.093,-25.6467 L 150.061,-25.5023 L 149.965,-25.396 L 149.821,-25.3348 L 149.633,-25.3152 L 149.274,-25.3915 M 150.948,-24.6894 L 148.936,-24.6894 L 148.936,-24.3994 L 150.948,-24.3994 L 150.948,-24.6894 M 150.811,-23.6686 L 150.857,-23.7008 L 150.89,-23.7527 L 150.901,-23.8247 L 150.889,-23.8975 L 150.858,-23.9494 L 150.811,-23.9809 L 150.752,-23.9918 L 150.69,-23.9805 L 150.643,-23.9477 L 150.611,-23.8957 L 150.6,-23.8247 L 150.611,-23.7536 L 150.643,-23.7017 L 150.69,-23.6689 L 150.752,-23.6575 L 150.811,-23.6686 M 150.308,-23.9697 L 148.936,-23.9697 L 148.936,-23.6797 L 150.308,-23.6797 L 150.308,-23.9697 M 149.155,-22.7079 L 149.166,-22.7948 L 149.204,-22.8618 L 149.271,-22.8959 L 149.352,-22.9049 L 150.123,-22.9049 L 150.123,-22.6559 L 150.308,-22.6559 L 150.308,-22.9049 L 150.692,-22.9049 L 150.692,-23.1929 L 150.308,-23.1929 L 150.308,-23.4059 L 150.123,-23.4059 L 150.123,-23.1929 L 149.303,-23.1929 L 149.028,-23.0959 L 148.936,-22.8206 L 148.944,-22.7151 L 148.96,-22.6419 L 149.158,-22.6419 L 149.155,-22.7079 M 150.937,-21.4342 L 150.947,-21.6946 L 150.915,-21.9338 L 150.822,-22.1038 L 150.675,-22.2085 L 150.466,-22.2469 L 150.308,-22.2469 L 150.308,-22.463 L 150.123,-22.463 L 150.123,-22.2469 L 148.936,-22.2469 L 148.936,-21.957 L 150.123,-21.957 L 150.123,-21.668 L 150.308,-21.668 L 150.308,-21.957 L 150.466,-21.957 L 150.667,-21.8788 L 150.732,-21.6501 L 150.728,-21.537 L 150.713,-21.379 L 148.936,-21.379 L 148.936,-21.089 L 150.909,-21.089 L 150.937,-21.4342 M 149.029,-19.5977 L 149.217,-19.6138 L 149.841,-19.6138 L 150.042,-19.6505 L 150.185,-19.7555 L 150.276,-19.9227 L 150.307,-20.1491 L 150.293,-20.3074 L 150.251,-20.4482 L 150.187,-20.5635 L 150.103,-20.6473 L 150.008,-20.6984 L 149.957,-20.7069 L 149.957,-20.4186 L 149.996,-20.4103 L 150.066,-20.3537 L 150.107,-20.27 L 150.12,-20.1673 L 150.103,-20.0537 L 150.048,-19.9678 L 149.963,-19.9178 L 149.864,-19.9028 L 149.732,-19.9028 L 149.732,-20.1291 L 149.702,-20.4049 L 149.618,-20.5975 L 149.489,-20.7099 L 149.311,-20.7477 L 149.165,-20.7172 L 149.045,-20.6253 L 148.964,-20.4828 L 148.936,-20.3046 L 148.971,-20.119 L 149.124,-19.9021 L 148.968,-19.8726 L 148.936,-19.8619 L 148.936,-19.5672 L 149.029,-19.5977 M 149.299,-19.9028 L 149.224,-19.9632 L 149.174,-20.038 L 149.143,-20.1251 L 149.132,-20.2196 L 149.145,-20.3143 L 149.188,-20.3924 L 149.257,-20.4439 L 149.338,-20.4601 L 149.378,-20.4582 L 149.551,-20.3535 L 149.605,-20.1042 L 149.605,-19.9028 L 149.299,-19.9028 M 149.919,-18.0636 L 150.132,-18.1669 L 150.263,-18.3277 L 150.307,-18.5455 L 150.275,-18.7315 L 150.128,-18.9544 L 150.308,-18.9721 L 150.308,-19.2367 L 148.36,-19.2367 L 148.36,-18.9477 L 149.136,-18.9477 L 148.971,-18.7209 L 148.937,-18.5423 L 148.981,-18.3319 L 149.114,-18.1707 L 149.328,-18.0645 L 149.612,-18.0277 L 149.625,-18.0277 L 149.919,-18.0636 M 149.274,-18.3915 L 149.146,-18.6378 L 149.188,-18.8247 L 149.317,-18.9477 L 149.928,-18.9477 L 150.054,-18.8265 L 150.093,-18.6467 L 150.061,-18.5023 L 149.965,-18.396 L 149.821,-18.3348 L 149.633,-18.3152 L 149.274,-18.3915" stroke="none" fill="#000000" stroke-width="0.5"/><path d="M 47.0667,-52.1521 L 62.15,-52.1521 L 62.15,-54.6021 L 65.15,-54.6021 L 65.15,-62.7021 L 62.15,-62.7021 L 62.15,-68.2021 L 47.0167,-68.2021 L 47.0167,-65.1521 L 32.0833,-65.1521 L 32.0833,-68.2021 L 16.95,-68.2021 L 16.95,-62.7021 L 13.95,-62.7021 L 13.95,-61.7021 L 10.95,-61.7021 L 10.95,-55.6021 L 13.95,-55.6021 L 13.95,-54.6021 L 16.95,-54.6021 L 16.95,-52.1521 L 32.0333,-52.1521 L 32.0333,-49.1021 L 47.0667,-49.1021 L 47.0667,-52.1521" stroke="#0000ff" fill="none" stroke-width="0.1"/><path d="M 18.0833,-156.952 L 33.0167,-156.952 L 33.0167,-153.902 M 48.15,-153.902 L 48.15,-159.402 L 51.15,-159.402 L 51.15,-160.402 L 54.15,-160.402 M 54.15,-166.502 L 51.15,-166.502 L 51.15,-167.502 L 48.15,-167.502 L 48.15,-169.952 L 33.0667,-169.952 L 33.0667,-173.002 L 18.0333,-173.002 L 18.0333,-169.952 L 2.95,-169.952 L 2.95,-167.502 L -0.0500031,-167.502 L -0.0500031,-159.402 L 2.95,-159.402 L 2.95,-153.902 M 18.0833,-153.902 L 18.0833,-156.952" stroke="#0000ff" fill="none" stroke-width="0.1"/><path d="M 72.2833,-156.952 L 87.2167,-156.952 L 87.2167,-153.902 M 102.35,-153.902 L 102.35,-159.402 L 105.35,-159.402 L 105.35,-160.402 L 108.35,-160.402 M 108.35,-166.502 L 105.35,-166.502 L 105.35,-167.502 L 102.35,-167.502 L 102.35,-169.952 L 87.2667,-169.952 L 87.2667,-173.002 L 72.2333,-173.002 L 72.2333,-169.952 L 57.15,-169.952 L 57.15,-167.502 L 54.15,-167.502 L 54.15,-159.402 L 57.15,-159.402 L 57.15,-153.902 M 72.2833,-153.902 L 72.2833,-156.952" stroke="#0000ff" fill="none" stroke-width="0.1"/><path d="M 126.483,-156.952 L 141.417,-156.952 L 141.417,-153.902 M -0.0500031,-153.902 L 156.55,-153.902 L 156.55,-159.402 L 159.55,-159.402 L 159.55,-160.402 L 162.55,-160.402 L 162.55,-166.502 L 159.55,-166.502 L 159.55,-167.502 L 156.55,-167.502 L 156.55,-169.952 L 141.467,-169.952 L 141.467,-173.002 L 126.433,-173.002 L 126.433,-169.952 L 111.35,-169.952 L 111.35,-167.502 L 108.35,-167.502 L 108.35,-159.402 L 111.35,-159.402 L 111.35,-153.902 M 126.483,-153.902 L 126.483,-156.952" stroke="#0000ff" fill="none" stroke-width="0.1"/><path d="M 150.536,-139.35 L 153.836,-139.35 L 153.836,-133.912 L 170.136,-133.912 L 170.136,-139.35 L 173.436,-139.35 L 173.436,-129.15 M 176.136,-129.15 L 176.136,-143.25 L 147.836,-143.25 M 150.536,-129.15 L 150.536,-139.35" stroke="#0000ff" fill="none" stroke-width="0.1"/><path d="M 176.136,-171.55 L 162.036,-171.55 L 162.036,-168.85 L 172.236,-168.85 L 172.236,-165.55 L 166.798,-165.55 L 166.798,-149.25 L 172.236,-149.25 L 172.236,-145.95 L 162.036,-145.95 L 162.036,-143.25 M 176.136,-143.25 L 176.136,-171.55" stroke="#0000ff" fill="none" stroke-width="0.1"/><path d="M 47.9087,-90.639 L 50.3997,-91.0335 L 52.8359,-91.6863 L 55.1904,-92.5901 L 57.4376,-93.7351 L 59.5528,-95.1088 L 61.5129,-96.696 L 63.2962,-98.4794 L 64.8835,-100.439 L 66.2571,-102.555 L 67.4021,-104.802 L 68.3059,-107.156 L 68.9587,-109.592 L 69.3532,-112.084 L 69.4852,-114.602 L 69.3532,-117.121 L 68.9587,-119.612 L 68.3059,-122.048 L 67.4021,-124.403 L 66.2571,-126.65 L 64.8835,-128.765 L 63.2962,-130.725 L 61.5129,-132.508 L 59.5528,-134.096 L 57.4376,-135.469 L 55.1904,-136.614 L 52.8359,-137.518 L 50.3997,-138.171 L 47.9087,-138.565 L 45.3901,-138.697 L 42.8715,-138.565 L 40.3804,-138.171 L 37.9443,-137.518 L 35.5897,-136.614 L 33.3425,-135.469 L 31.2273,-134.096 L 29.2673,-132.508 L 27.4839,-130.725 L 25.8967,-128.765 L 24.5231,-126.65 L 23.3781,-124.403 L 22.4742,-122.048 L 21.8215,-119.612 L 21.4269,-117.121 L 21.295,-114.602 L 21.4269,-112.084 L 21.8215,-109.592 L 22.4742,-107.156 L 23.3781,-104.802 L 24.5231,-102.555 L 25.8967,-100.439 L 27.4839,-98.4794 L 29.2673,-96.696 L 31.2273,-95.1088 L 33.3425,-93.7351 L 35.5897,-92.5901 L 37.9443,-91.6863 L 40.3804,-91.0335 L 42.8715,-90.639 L 45.3901,-90.507 L 47.9087,-90.639 M 44.8157,-135.252 L 44.4606,-135.572 L 44.2663,-136.008 L 44.2663,-136.486 L 44.4606,-136.922 L 44.8157,-137.242 L 45.27,-137.39 L 45.7451,-137.34 L 46.1588,-137.101 L 46.4396,-136.714 L 46.539,-136.247 L 46.4396,-135.78 L 46.1588,-135.393 L 45.7451,-135.155 L 45.27,-135.105 L 44.8157,-135.252 M 41.4296,-134.986 L 41.0746,-135.305 L 40.8803,-135.742 L 40.8803,-136.22 L 41.0746,-136.656 L 41.4296,-136.976 L 41.8839,-137.123 L 42.3591,-137.073 L 42.7728,-136.835 L 43.0536,-136.448 L 43.1529,-135.981 L 43.0536,-135.513 L 42.7728,-135.127 L 42.3591,-134.888 L 41.8839,-134.838 L 41.4296,-134.986 M 48.2017,-134.986 L 47.8466,-135.305 L 47.6523,-135.742 L 47.6523,-136.22 L 47.8466,-136.656 L 48.2017,-136.976 L 48.656,-137.123 L 49.1311,-137.073 L 49.5448,-136.835 L 49.8257,-136.448 L 49.925,-135.981 L 49.8257,-135.513 L 49.5448,-135.127 L 49.1311,-134.888 L 48.656,-134.838 L 48.2017,-134.986 M 38.127,-134.193 L 37.7719,-134.513 L 37.5776,-134.949 L 37.5776,-135.427 L 37.7719,-135.863 L 38.127,-136.183 L 38.5813,-136.33 L 39.0564,-136.28 L 39.4701,-136.042 L 39.7509,-135.655 L 39.8503,-135.188 L 39.7509,-134.721 L 39.4701,-134.334 L 39.0564,-134.095 L 38.5813,-134.045 L 38.127,-134.193 M 51.5043,-134.193 L 51.1493,-134.513 L 50.955,-134.949 L 50.955,-135.427 L 51.1493,-135.863 L 51.5043,-136.183 L 51.9586,-136.33 L 52.4338,-136.28 L 52.8475,-136.042 L 53.1283,-135.655 L 53.2276,-135.188 L 53.1283,-134.721 L 52.8475,-134.334 L 52.4338,-134.095 L 51.9586,-134.045 L 51.5043,-134.193 M 34.989,-132.893 L 34.6339,-133.213 L 34.4397,-133.649 L 34.4397,-134.127 L 34.634,-134.563 L 34.989,-134.883 L 35.4433,-135.031 L 35.9185,-134.981 L 36.3322,-134.742 L 36.613,-134.355 L 36.7123,-133.888 L 36.613,-133.421 L 36.3322,-133.034 L 35.9185,-132.795 L 35.4433,-132.745 L 34.989,-132.893 M 54.6423,-132.893 L 54.2872,-133.213 L 54.093,-133.649 L 54.093,-134.127 L 54.2873,-134.563 L 54.6423,-134.883 L 55.0966,-135.031 L 55.5717,-134.981 L 55.9855,-134.742 L 56.2663,-134.355 L 56.3656,-133.888 L 56.2663,-133.421 L 55.9855,-133.034 L 55.5717,-132.795 L 55.0966,-132.745 L 54.6423,-132.893 M 32.093,-131.118 L 31.738,-131.438 L 31.5437,-131.875 L 31.5437,-132.352 L 31.738,-132.789 L 32.093,-133.108 L 32.5473,-133.256 L 33.0225,-133.206 L 33.4362,-132.967 L 33.717,-132.581 L 33.8163,-132.113 L 33.717,-131.646 L 33.4362,-131.26 L 33.0225,-131.021 L 32.5473,-130.971 L 32.093,-131.118 M 57.5383,-131.118 L 57.1833,-131.438 L 56.989,-131.875 L 56.989,-132.352 L 57.1833,-132.789 L 57.5383,-133.108 L 57.9926,-133.256 L 58.4677,-133.206 L 58.8815,-132.967 L 59.1623,-132.581 L 59.2616,-132.113 L 59.1623,-131.646 L 58.8815,-131.26 L 58.4677,-131.021 L 57.9926,-130.971 L 57.5383,-131.118 M 29.5103,-128.913 L 29.1553,-129.232 L 28.9609,-129.669 L 28.9609,-130.146 L 29.1552,-130.583 L 29.5103,-130.902 L 29.9646,-131.05 L 30.4397,-131 L 30.8535,-130.761 L 31.1343,-130.375 L 31.2336,-129.908 L 31.1343,-129.44 L 30.8535,-129.054 L 30.4397,-128.815 L 29.9646,-128.765 L 29.5103,-128.913 M 60.121,-128.913 L 59.766,-129.232 L 59.5717,-129.669 L 59.5717,-130.146 L 59.766,-130.583 L 60.121,-130.902 L 60.5753,-131.05 L 61.0505,-131 L 61.4642,-130.761 L 61.745,-130.375 L 61.8443,-129.908 L 61.745,-129.44 L 61.4642,-129.054 L 61.0505,-128.815 L 60.5753,-128.765 L 60.121,-128.913 M 27.3044,-126.33 L 26.9494,-126.649 L 26.7551,-127.086 L 26.7551,-127.564 L 26.9494,-128 L 27.3044,-128.32 L 27.7587,-128.467 L 28.2339,-128.417 L 28.6476,-128.179 L 28.9284,-127.792 L 29.0277,-127.325 L 28.9284,-126.857 L 28.6476,-126.471 L 28.2339,-126.232 L 27.7587,-126.182 L 27.3044,-126.33 M 62.3269,-126.33 L 61.9718,-126.649 L 61.7775,-127.086 L 61.7775,-127.564 L 61.9718,-128 L 62.3269,-128.32 L 62.7812,-128.467 L 63.2563,-128.417 L 63.67,-128.179 L 63.9509,-127.792 L 64.0502,-127.325 L 63.9509,-126.857 L 63.67,-126.471 L 63.2563,-126.232 L 62.7812,-126.182 L 62.3269,-126.33 M 25.5298,-123.434 L 25.1747,-123.754 L 24.9804,-124.19 L 24.9804,-124.668 L 25.1747,-125.104 L 25.5298,-125.424 L 25.9841,-125.571 L 26.4592,-125.521 L 26.8729,-125.283 L 27.1537,-124.896 L 27.2531,-124.429 L 27.1537,-123.962 L 26.8729,-123.575 L 26.4592,-123.336 L 25.9841,-123.286 L 25.5298,-123.434 M 64.1015,-123.434 L 63.7465,-123.754 L 63.5522,-124.19 L 63.5522,-124.668 L 63.7465,-125.104 L 64.1015,-125.424 L 64.5559,-125.571 L 65.031,-125.521 L 65.4447,-125.283 L 65.7255,-124.896 L 65.8248,-124.429 L 65.7255,-123.962 L 65.4447,-123.575 L 65.031,-123.336 L 64.5559,-123.286 L 64.1015,-123.434 M 41.4701,-121.182 L 41.4701,-124.022 L 49.3101,-124.022 L 49.3101,-121.182 L 41.4701,-121.182 M 24.23,-120.296 L 23.8749,-120.616 L 23.6806,-121.052 L 23.6806,-121.53 L 23.8749,-121.966 L 24.23,-122.286 L 24.6843,-122.433 L 25.1594,-122.383 L 25.5731,-122.145 L 25.854,-121.758 L 25.9533,-121.291 L 25.854,-120.824 L 25.5731,-120.437 L 25.1594,-120.198 L 24.6843,-120.148 L 24.23,-120.296 M 65.4013,-120.296 L 65.0463,-120.616 L 64.852,-121.052 L 64.852,-121.53 L 65.0463,-121.966 L 65.4013,-122.286 L 65.8557,-122.433 L 66.3308,-122.383 L 66.7445,-122.145 L 67.0253,-121.758 L 67.1246,-121.291 L 67.0253,-120.824 L 66.7445,-120.437 L 66.3308,-120.198 L 65.8557,-120.148 L 65.4013,-120.296 M 23.4371,-116.993 L 23.082,-117.313 L 22.8877,-117.749 L 22.8877,-118.227 L 23.082,-118.663 L 23.4371,-118.983 L 23.8914,-119.131 L 24.3665,-119.081 L 24.7802,-118.842 L 25.0611,-118.455 L 25.1604,-117.988 L 25.0611,-117.521 L 24.7802,-117.134 L 24.3665,-116.896 L 23.8914,-116.846 L 23.4371,-116.993 M 66.1942,-116.993 L 65.8392,-117.313 L 65.6449,-117.749 L 65.6449,-118.227 L 65.8392,-118.663 L 66.1942,-118.983 L 66.6485,-119.131 L 67.1237,-119.081 L 67.5374,-118.842 L 67.8182,-118.455 L 67.9175,-117.988 L 67.8182,-117.521 L 67.5374,-117.134 L 67.1237,-116.896 L 66.6485,-116.846 L 66.1942,-116.993 M 51.9701,-110.682 L 51.9701,-118.522 L 54.8101,-118.522 L 54.8101,-110.682 L 51.9701,-110.682 M 35.9701,-110.682 L 35.9701,-118.522 L 38.8101,-118.522 L 38.8101,-110.682 L 35.9701,-110.682 M 45.0931,-112.251 L 44.8007,-112.307 L 44.5177,-112.399 L 44.2484,-112.525 L 43.9971,-112.685 L 43.9401,-112.732 L 43.9401,-114.235 L 40.4401,-114.235 L 40.4401,-114.969 L 43.9401,-114.969 L 43.9401,-116.472 L 43.9971,-116.519 L 44.2484,-116.679 L 44.5177,-116.806 L 44.8007,-116.898 L 45.0931,-116.953 L 45.3901,-116.972 L 45.687,-116.953 L 45.9795,-116.898 L 46.2625,-116.806 L 46.5317,-116.679 L 46.7831,-116.519 L 46.8401,-116.472 L 46.8401,-114.969 L 50.3401,-114.969 L 50.3401,-114.235 L 46.8401,-114.235 L 46.8401,-112.732 L 46.7831,-112.685 L 46.5317,-112.525 L 46.2625,-112.399 L 45.9795,-112.307 L 45.687,-112.251 L 45.3901,-112.232 L 45.0931,-112.251 M 60.4096,-112.945 L 59.8181,-113.477 L 59.4944,-114.204 L 59.4944,-115 L 59.8181,-115.727 L 60.4096,-116.26 L 61.1664,-116.506 L 61.9579,-116.422 L 62.6471,-116.024 L 63.1149,-115.381 L 63.2804,-114.602 L 63.1149,-113.824 L 62.6471,-113.18 L 61.9579,-112.782 L 61.1664,-112.699 L 60.4096,-112.945 M 23.1706,-113.607 L 22.8156,-113.927 L 22.6212,-114.363 L 22.6212,-114.841 L 22.8156,-115.277 L 23.1706,-115.597 L 23.6249,-115.745 L 24.1,-115.695 L 24.5138,-115.456 L 24.7946,-115.069 L 24.8939,-114.602 L 24.7946,-114.135 L 24.5138,-113.748 L 24.1,-113.509 L 23.6249,-113.46 L 23.1706,-113.607 M 66.4607,-113.607 L 66.1057,-113.927 L 65.9114,-114.363 L 65.9114,-114.841 L 66.1057,-115.277 L 66.4607,-115.597 L 66.915,-115.745 L 67.3902,-115.695 L 67.8039,-115.456 L 68.0847,-115.069 L 68.184,-114.602 L 68.0847,-114.135 L 67.8039,-113.748 L 67.3902,-113.509 L 66.915,-113.46 L 66.4607,-113.607 M 23.4371,-110.221 L 23.082,-110.541 L 22.8877,-110.977 L 22.8877,-111.455 L 23.082,-111.891 L 23.4371,-112.211 L 23.8914,-112.359 L 24.3665,-112.309 L 24.7802,-112.07 L 25.0611,-111.683 L 25.1604,-111.216 L 25.0611,-110.749 L 24.7802,-110.362 L 24.3665,-110.123 L 23.8914,-110.074 L 23.4371,-110.221 M 66.1942,-110.221 L 65.8392,-110.541 L 65.6449,-110.977 L 65.6449,-111.455 L 65.8392,-111.891 L 66.1942,-112.211 L 66.6485,-112.359 L 67.1237,-112.309 L 67.5374,-112.07 L 67.8182,-111.683 L 67.9175,-111.216 L 67.8182,-110.749 L 67.5374,-110.362 L 67.1237,-110.123 L 66.6485,-110.074 L 66.1942,-110.221 M 24.23,-106.918 L 23.8749,-107.238 L 23.6806,-107.675 L 23.6806,-108.152 L 23.8749,-108.589 L 24.23,-108.908 L 24.6843,-109.056 L 25.1594,-109.006 L 25.5731,-108.767 L 25.854,-108.381 L 25.9533,-107.913 L 25.854,-107.446 L 25.5731,-107.06 L 25.1594,-106.821 L 24.6843,-106.771 L 24.23,-106.918 M 65.4013,-106.918 L 65.0463,-107.238 L 64.852,-107.675 L 64.852,-108.152 L 65.0463,-108.589 L 65.4013,-108.908 L 65.8557,-109.056 L 66.3308,-109.006 L 66.7445,-108.767 L 67.0253,-108.381 L 67.1246,-107.913 L 67.0253,-107.446 L 66.7445,-107.06 L 66.3308,-106.821 L 65.8557,-106.771 L 65.4013,-106.918 M 41.4701,-105.182 L 41.4701,-108.022 L 49.3101,-108.022 L 49.3101,-105.182 L 41.4701,-105.182 M 25.5298,-103.781 L 25.1747,-104.1 L 24.9804,-104.537 L 24.9804,-105.014 L 25.1747,-105.451 L 25.5298,-105.77 L 25.9841,-105.918 L 26.4592,-105.868 L 26.8729,-105.629 L 27.1537,-105.243 L 27.2531,-104.775 L 27.1537,-104.308 L 26.8729,-103.922 L 26.4592,-103.683 L 25.9841,-103.633 L 25.5298,-103.781 M 64.1015,-103.781 L 63.7465,-104.1 L 63.5522,-104.537 L 63.5522,-105.014 L 63.7465,-105.451 L 64.1015,-105.77 L 64.5559,-105.918 L 65.031,-105.868 L 65.4447,-105.629 L 65.7255,-105.243 L 65.8248,-104.775 L 65.7255,-104.308 L 65.4447,-103.922 L 65.031,-103.683 L 64.5559,-103.633 L 64.1015,-103.781 M 27.3044,-100.885 L 26.9494,-101.204 L 26.7551,-101.641 L 26.7551,-102.118 L 26.9494,-102.555 L 27.3044,-102.874 L 27.7587,-103.022 L 28.2339,-102.972 L 28.6476,-102.733 L 28.9284,-102.347 L 29.0277,-101.88 L 28.9284,-101.412 L 28.6476,-101.026 L 28.2339,-100.787 L 27.7587,-100.737 L 27.3044,-100.885 M 62.3269,-100.885 L 61.9718,-101.204 L 61.7775,-101.641 L 61.7775,-102.118 L 61.9718,-102.555 L 62.3269,-102.874 L 62.7812,-103.022 L 63.2563,-102.972 L 63.67,-102.733 L 63.9509,-102.347 L 64.0502,-101.88 L 63.9509,-101.412 L 63.67,-101.026 L 63.2563,-100.787 L 62.7812,-100.737 L 62.3269,-100.885 M 29.5103,-98.3018 L 29.1552,-98.6215 L 28.9609,-99.0579 L 28.9609,-99.5356 L 29.1553,-99.9721 L 29.5103,-100.292 L 29.9646,-100.439 L 30.4397,-100.389 L 30.8535,-100.151 L 31.1343,-99.7641 L 31.2336,-99.2968 L 31.1343,-98.8295 L 30.8535,-98.443 L 30.4397,-98.2041 L 29.9646,-98.1542 L 29.5103,-98.3018 M 60.121,-98.3018 L 59.766,-98.6215 L 59.5717,-99.0579 L 59.5717,-99.5356 L 59.766,-99.9721 L 60.121,-100.292 L 60.5753,-100.439 L 61.0505,-100.389 L 61.4642,-100.151 L 61.745,-99.7641 L 61.8443,-99.2968 L 61.745,-98.8295 L 61.4642,-98.443 L 61.0505,-98.2041 L 60.5753,-98.1542 L 60.121,-98.3018 M 32.093,-96.0959 L 31.738,-96.4156 L 31.5437,-96.8521 L 31.5437,-97.3298 L 31.738,-97.7662 L 32.093,-98.0859 L 32.5473,-98.2335 L 33.0225,-98.1836 L 33.4362,-97.9447 L 33.717,-97.5582 L 33.8163,-97.0909 L 33.717,-96.6236 L 33.4362,-96.2371 L 33.0225,-95.9983 L 32.5473,-95.9483 L 32.093,-96.0959 M 57.5383,-96.0959 L 57.1833,-96.4156 L 56.989,-96.8521 L 56.989,-97.3298 L 57.1833,-97.7662 L 57.5383,-98.0859 L 57.9926,-98.2335 L 58.4677,-98.1836 L 58.8815,-97.9447 L 59.1623,-97.5582 L 59.2616,-97.0909 L 59.1623,-96.6236 L 58.8815,-96.2371 L 58.4677,-95.9983 L 57.9926,-95.9483 L 57.5383,-96.0959 M 34.989,-94.3213 L 34.634,-94.6409 L 34.4397,-95.0774 L 34.4397,-95.5551 L 34.6339,-95.9915 L 34.989,-96.3112 L 35.4433,-96.4588 L 35.9185,-96.4089 L 36.3322,-96.17 L 36.613,-95.7835 L 36.7123,-95.3163 L 36.613,-94.849 L 36.3322,-94.4625 L 35.9185,-94.2236 L 35.4433,-94.1737 L 34.989,-94.3213 M 54.6423,-94.3213 L 54.2873,-94.6409 L 54.093,-95.0774 L 54.093,-95.5551 L 54.2872,-95.9915 L 54.6423,-96.3112 L 55.0966,-96.4588 L 55.5717,-96.4089 L 55.9855,-96.17 L 56.2663,-95.7835 L 56.3656,-95.3163 L 56.2663,-94.849 L 55.9855,-94.4625 L 55.5717,-94.2236 L 55.0966,-94.1737 L 54.6423,-94.3213 M 38.127,-93.0215 L 37.7719,-93.3412 L 37.5776,-93.7776 L 37.5776,-94.2553 L 37.7719,-94.6918 L 38.127,-95.0114 L 38.5813,-95.159 L 39.0564,-95.1091 L 39.4701,-94.8702 L 39.7509,-94.4837 L 39.8503,-94.0165 L 39.7509,-93.5492 L 39.4701,-93.1627 L 39.0564,-92.9238 L 38.5813,-92.8739 L 38.127,-93.0215 M 51.5043,-93.0215 L 51.1493,-93.3412 L 50.955,-93.7776 L 50.955,-94.2554 L 51.1493,-94.6917 L 51.5043,-95.0114 L 51.9586,-95.159 L 52.4338,-95.1091 L 52.8475,-94.8702 L 53.1283,-94.4837 L 53.2276,-94.0165 L 53.1283,-93.5492 L 52.8475,-93.1627 L 52.4338,-92.9238 L 51.9586,-92.8739 L 51.5043,-93.0215 M 41.4296,-92.2286 L 41.0746,-92.5483 L 40.8803,-92.9847 L 40.8803,-93.4624 L 41.0746,-93.8989 L 41.4296,-94.2185 L 41.8839,-94.3661 L 42.3591,-94.3162 L 42.7728,-94.0773 L 43.0536,-93.6909 L 43.1529,-93.2236 L 43.0536,-92.7563 L 42.7728,-92.3698 L 42.3591,-92.1309 L 41.8839,-92.081 L 41.4296,-92.2286 M 48.2017,-92.2286 L 47.8466,-92.5483 L 47.6523,-92.9847 L 47.6523,-93.4624 L 47.8466,-93.8989 L 48.2017,-94.2185 L 48.656,-94.3661 L 49.1311,-94.3162 L 49.5448,-94.0773 L 49.8257,-93.6909 L 49.925,-93.2236 L 49.8257,-92.7563 L 49.5448,-92.3698 L 49.1311,-92.1309 L 48.656,-92.081 L 48.2017,-92.2286 M 44.8157,-91.9621 L 44.4606,-92.2818 L 44.2663,-92.7182 L 44.2663,-93.196 L 44.4606,-93.6324 L 44.8157,-93.952 L 45.27,-94.0997 L 45.7451,-94.0497 L 46.1588,-93.8109 L 46.4396,-93.4244 L 46.539,-92.9571 L 46.4396,-92.4898 L 46.1588,-92.1033 L 45.7451,-91.8644 L 45.27,-91.8145 L 44.8157,-91.9621" stroke="#0000ff" fill="none" stroke-width="0.1"/><path d="M 97.9988,-90.639 L 100.49,-91.0335 L 102.926,-91.6863 L 105.281,-92.5901 L 107.528,-93.7351 L 109.643,-95.1088 L 111.603,-96.696 L 113.386,-98.4794 L 114.974,-100.439 L 116.347,-102.555 L 117.492,-104.802 L 118.396,-107.156 L 119.049,-109.592 L 119.443,-112.084 L 119.575,-114.602 L 119.443,-117.121 L 119.049,-119.612 L 118.396,-122.048 L 117.492,-124.403 L 116.347,-126.65 L 114.974,-128.765 L 113.386,-130.725 L 111.603,-132.508 L 109.643,-134.096 L 107.528,-135.469 L 105.281,-136.614 L 102.926,-137.518 L 100.49,-138.171 L 97.9988,-138.565 L 95.4802,-138.697 L 92.9616,-138.565 L 90.4706,-138.171 L 88.0344,-137.518 L 85.6799,-136.614 L 83.4327,-135.469 L 81.3175,-134.096 L 79.3574,-132.508 L 77.5741,-130.725 L 75.9868,-128.765 L 74.6132,-126.65 L 73.4682,-124.403 L 72.5644,-122.048 L 71.9116,-119.612 L 71.5171,-117.121 L 71.3851,-114.602 L 71.5171,-112.084 L 71.9116,-109.592 L 72.5644,-107.156 L 73.4682,-104.802 L 74.6132,-102.555 L 75.9868,-100.439 L 77.5741,-98.4794 L 79.3574,-96.696 L 81.3175,-95.1088 L 83.4327,-93.7351 L 85.6799,-92.5901 L 88.0344,-91.6863 L 90.4706,-91.0335 L 92.9616,-90.639 L 95.4802,-90.507 L 97.9988,-90.639 M 94.9058,-135.252 L 94.5508,-135.572 L 94.3565,-136.008 L 94.3565,-136.486 L 94.5508,-136.922 L 94.9058,-137.242 L 95.3601,-137.39 L 95.8353,-137.34 L 96.249,-137.101 L 96.5298,-136.714 L 96.6291,-136.247 L 96.5298,-135.78 L 96.249,-135.393 L 95.8353,-135.155 L 95.3601,-135.105 L 94.9058,-135.252 M 91.5198,-134.986 L 91.1647,-135.305 L 90.9704,-135.742 L 90.9704,-136.22 L 91.1647,-136.656 L 91.5198,-136.976 L 91.9741,-137.123 L 92.4492,-137.073 L 92.8629,-136.835 L 93.1438,-136.448 L 93.2431,-135.981 L 93.1438,-135.513 L 92.8629,-135.127 L 92.4492,-134.888 L 91.9741,-134.838 L 91.5198,-134.986 M 98.2918,-134.986 L 97.9368,-135.305 L 97.7425,-135.742 L 97.7425,-136.22 L 97.9368,-136.656 L 98.2918,-136.976 L 98.7461,-137.123 L 99.2213,-137.073 L 99.635,-136.835 L 99.9158,-136.448 L 100.015,-135.981 L 99.9158,-135.513 L 99.635,-135.127 L 99.2213,-134.888 L 98.7461,-134.838 L 98.2918,-134.986 M 88.2171,-134.193 L 87.8621,-134.513 L 87.6678,-134.949 L 87.6678,-135.427 L 87.8621,-135.863 L 88.2171,-136.183 L 88.6714,-136.33 L 89.1466,-136.28 L 89.5603,-136.042 L 89.8411,-135.655 L 89.9404,-135.188 L 89.8411,-134.721 L 89.5603,-134.334 L 89.1466,-134.095 L 88.6714,-134.045 L 88.2171,-134.193 M 101.594,-134.193 L 101.239,-134.513 L 101.045,-134.949 L 101.045,-135.427 L 101.239,-135.863 L 101.594,-136.183 L 102.049,-136.33 L 102.524,-136.28 L 102.938,-136.042 L 103.218,-135.655 L 103.318,-135.188 L 103.218,-134.721 L 102.938,-134.334 L 102.524,-134.095 L 102.049,-134.045 L 101.594,-134.193 M 85.0791,-132.893 L 84.7241,-133.213 L 84.5298,-133.649 L 84.5298,-134.127 L 84.7241,-134.563 L 85.0791,-134.883 L 85.5335,-135.031 L 86.0086,-134.981 L 86.4223,-134.742 L 86.7031,-134.355 L 86.8025,-133.888 L 86.7031,-133.421 L 86.4223,-133.034 L 86.0086,-132.795 L 85.5335,-132.745 L 85.0791,-132.893 M 104.732,-132.893 L 104.377,-133.213 L 104.183,-133.649 L 104.183,-134.127 L 104.377,-134.563 L 104.732,-134.883 L 105.187,-135.031 L 105.662,-134.981 L 106.076,-134.742 L 106.356,-134.355 L 106.456,-133.888 L 106.356,-133.421 L 106.076,-133.034 L 105.662,-132.795 L 105.187,-132.745 L 104.732,-132.893 M 82.1832,-131.118 L 81.8281,-131.438 L 81.6338,-131.875 L 81.6338,-132.352 L 81.8281,-132.789 L 82.1832,-133.108 L 82.6375,-133.256 L 83.1126,-133.206 L 83.5263,-132.967 L 83.8071,-132.581 L 83.9065,-132.113 L 83.8071,-131.646 L 83.5263,-131.26 L 83.1126,-131.021 L 82.6375,-130.971 L 82.1832,-131.118 M 107.628,-131.118 L 107.273,-131.438 L 107.079,-131.875 L 107.079,-132.352 L 107.273,-132.789 L 107.628,-133.108 L 108.083,-133.256 L 108.558,-133.206 L 108.972,-132.967 L 109.252,-132.581 L 109.352,-132.113 L 109.252,-131.646 L 108.972,-131.26 L 108.558,-131.021 L 108.083,-130.971 L 107.628,-131.118 M 79.6004,-128.913 L 79.2454,-129.232 L 79.0511,-129.669 L 79.0511,-130.146 L 79.2454,-130.583 L 79.6004,-130.902 L 80.0547,-131.05 L 80.5299,-131 L 80.9436,-130.761 L 81.2244,-130.375 L 81.3237,-129.908 L 81.2244,-129.44 L 80.9436,-129.054 L 80.5299,-128.815 L 80.0547,-128.765 L 79.6004,-128.913 M 110.211,-128.913 L 109.856,-129.232 L 109.662,-129.669 L 109.662,-130.146 L 109.856,-130.583 L 110.211,-130.902 L 110.665,-131.05 L 111.141,-131 L 111.554,-130.761 L 111.835,-130.375 L 111.934,-129.908 L 111.835,-129.44 L 111.554,-129.054 L 111.141,-128.815 L 110.665,-128.765 L 110.211,-128.913 M 77.3946,-126.33 L 77.0396,-126.649 L 76.8452,-127.086 L 76.8452,-127.564 L 77.0396,-128 L 77.3946,-128.32 L 77.8489,-128.467 L 78.324,-128.417 L 78.7377,-128.179 L 79.0186,-127.792 L 79.1179,-127.325 L 79.0186,-126.857 L 78.7377,-126.471 L 78.324,-126.232 L 77.8489,-126.182 L 77.3946,-126.33 M 112.417,-126.33 L 112.062,-126.649 L 111.868,-127.086 L 111.868,-127.564 L 112.062,-128 L 112.417,-128.32 L 112.871,-128.467 L 113.346,-128.417 L 113.76,-128.179 L 114.041,-127.792 L 114.14,-127.325 L 114.041,-126.857 L 113.76,-126.471 L 113.346,-126.232 L 112.871,-126.182 L 112.417,-126.33 M 75.6199,-123.434 L 75.2648,-123.754 L 75.0706,-124.19 L 75.0706,-124.668 L 75.2649,-125.104 L 75.6199,-125.424 L 76.0742,-125.571 L 76.5494,-125.521 L 76.9631,-125.283 L 77.2439,-124.896 L 77.3432,-124.429 L 77.2439,-123.962 L 76.9631,-123.575 L 76.5494,-123.336 L 76.0742,-123.286 L 75.6199,-123.434 M 114.192,-123.434 L 113.837,-123.754 L 113.642,-124.19 L 113.642,-124.668 L 113.837,-125.104 L 114.192,-125.424 L 114.646,-125.571 L 115.121,-125.521 L 115.535,-125.283 L 115.816,-124.896 L 115.915,-124.429 L 115.816,-123.962 L 115.535,-123.575 L 115.121,-123.336 L 114.646,-123.286 L 114.192,-123.434 M 92.5602,-121.182 L 92.5602,-124.022 L 98.4002,-124.022 L 98.4002,-121.182 L 92.5602,-121.182 M 74.3201,-120.296 L 73.9651,-120.616 L 73.7708,-121.052 L 73.7708,-121.53 L 73.9651,-121.966 L 74.3201,-122.286 L 74.7744,-122.433 L 75.2496,-122.383 L 75.6633,-122.145 L 75.9441,-121.758 L 76.0434,-121.291 L 75.9441,-120.824 L 75.6633,-120.437 L 75.2496,-120.198 L 74.7744,-120.148 L 74.3201,-120.296 M 115.491,-120.296 L 115.136,-120.616 L 114.942,-121.052 L 114.942,-121.53 L 115.136,-121.966 L 115.491,-122.286 L 115.946,-122.433 L 116.421,-122.383 L 116.835,-122.145 L 117.115,-121.758 L 117.215,-121.291 L 117.115,-120.824 L 116.835,-120.437 L 116.421,-120.198 L 115.946,-120.148 L 115.491,-120.296 M 73.5272,-116.993 L 73.1722,-117.313 L 72.9779,-117.749 L 72.9779,-118.227 L 73.1722,-118.663 L 73.5272,-118.983 L 73.9815,-119.131 L 74.4567,-119.081 L 74.8704,-118.842 L 75.1512,-118.455 L 75.2505,-117.988 L 75.1512,-117.521 L 74.8704,-117.134 L 74.4567,-116.896 L 73.9815,-116.846 L 73.5272,-116.993 M 116.284,-116.993 L 115.929,-117.313 L 115.735,-117.749 L 115.735,-118.227 L 115.929,-118.663 L 116.284,-118.983 L 116.739,-119.131 L 117.214,-119.081 L 117.628,-118.842 L 117.908,-118.455 L 118.008,-117.988 L 117.908,-117.521 L 117.628,-117.134 L 117.214,-116.896 L 116.739,-116.846 L 116.284,-116.993 M 93.4384,-111.066 L 91.3965,-114.602 L 93.4384,-118.139 L 97.5221,-118.139 L 99.5639,-114.602 L 97.5221,-111.066 L 93.4384,-111.066 M 102.06,-111.682 L 102.06,-117.522 L 104.9,-117.522 L 104.9,-111.682 L 102.06,-111.682 M 86.0602,-111.682 L 86.0602,-117.522 L 88.9002,-117.522 L 88.9002,-111.682 L 86.0602,-111.682 M 73.2607,-113.607 L 72.9057,-113.927 L 72.7114,-114.363 L 72.7114,-114.841 L 72.9057,-115.277 L 73.2607,-115.597 L 73.7151,-115.745 L 74.1902,-115.695 L 74.6039,-115.456 L 74.8847,-115.069 L 74.984,-114.602 L 74.8847,-114.135 L 74.6039,-113.748 L 74.1902,-113.509 L 73.7151,-113.46 L 73.2607,-113.607 M 116.551,-113.607 L 116.196,-113.927 L 116.002,-114.363 L 116.002,-114.841 L 116.196,-115.277 L 116.551,-115.597 L 117.005,-115.745 L 117.48,-115.695 L 117.894,-115.456 L 118.175,-115.069 L 118.274,-114.602 L 118.175,-114.135 L 117.894,-113.748 L 117.48,-113.509 L 117.005,-113.46 L 116.551,-113.607 M 73.5272,-110.221 L 73.1722,-110.541 L 72.9779,-110.977 L 72.9779,-111.455 L 73.1722,-111.891 L 73.5272,-112.211 L 73.9815,-112.359 L 74.4567,-112.309 L 74.8704,-112.07 L 75.1512,-111.683 L 75.2505,-111.216 L 75.1512,-110.749 L 74.8704,-110.362 L 74.4567,-110.123 L 73.9815,-110.074 L 73.5272,-110.221 M 116.284,-110.221 L 115.929,-110.541 L 115.735,-110.977 L 115.735,-111.455 L 115.929,-111.891 L 116.284,-112.211 L 116.739,-112.359 L 117.214,-112.309 L 117.628,-112.07 L 117.908,-111.683 L 118.008,-111.216 L 117.908,-110.749 L 117.628,-110.362 L 117.214,-110.123 L 116.739,-110.074 L 116.284,-110.221 M 74.3201,-106.918 L 73.9651,-107.238 L 73.7708,-107.675 L 73.7708,-108.152 L 73.9651,-108.589 L 74.3201,-108.908 L 74.7744,-109.056 L 75.2496,-109.006 L 75.6633,-108.767 L 75.9441,-108.381 L 76.0434,-107.913 L 75.9441,-107.446 L 75.6633,-107.06 L 75.2496,-106.821 L 74.7744,-106.771 L 74.3201,-106.918 M 115.491,-106.918 L 115.136,-107.238 L 114.942,-107.675 L 114.942,-108.152 L 115.136,-108.589 L 115.491,-108.908 L 115.946,-109.056 L 116.421,-109.006 L 116.835,-108.767 L 117.115,-108.381 L 117.215,-107.913 L 117.115,-107.446 L 116.835,-107.06 L 116.421,-106.821 L 115.946,-106.771 L 115.491,-106.918 M 92.5602,-105.182 L 92.5602,-108.022 L 98.4002,-108.022 L 98.4002,-105.182 L 92.5602,-105.182 M 75.6199,-103.781 L 75.2649,-104.1 L 75.0706,-104.537 L 75.0706,-105.014 L 75.2648,-105.451 L 75.6199,-105.77 L 76.0742,-105.918 L 76.5494,-105.868 L 76.9631,-105.629 L 77.2439,-105.243 L 77.3432,-104.775 L 77.2439,-104.308 L 76.9631,-103.922 L 76.5494,-103.683 L 76.0742,-103.633 L 75.6199,-103.781 M 114.192,-103.781 L 113.837,-104.1 L 113.642,-104.537 L 113.642,-105.014 L 113.837,-105.451 L 114.192,-105.77 L 114.646,-105.918 L 115.121,-105.868 L 115.535,-105.629 L 115.816,-105.243 L 115.915,-104.775 L 115.816,-104.308 L 115.535,-103.922 L 115.121,-103.683 L 114.646,-103.633 L 114.192,-103.781 M 77.3946,-100.885 L 77.0396,-101.204 L 76.8452,-101.641 L 76.8452,-102.118 L 77.0396,-102.555 L 77.3946,-102.874 L 77.8489,-103.022 L 78.324,-102.972 L 78.7377,-102.733 L 79.0186,-102.347 L 79.1179,-101.88 L 79.0186,-101.412 L 78.7377,-101.026 L 78.324,-100.787 L 77.8489,-100.737 L 77.3946,-100.885 M 112.417,-100.885 L 112.062,-101.204 L 111.868,-101.641 L 111.868,-102.118 L 112.062,-102.555 L 112.417,-102.874 L 112.871,-103.022 L 113.346,-102.972 L 113.76,-102.733 L 114.041,-102.347 L 114.14,-101.88 L 114.041,-101.412 L 113.76,-101.026 L 113.346,-100.787 L 112.871,-100.737 L 112.417,-100.885 M 79.6004,-98.3018 L 79.2454,-98.6215 L 79.0511,-99.0579 L 79.0511,-99.5356 L 79.2454,-99.9721 L 79.6004,-100.292 L 80.0547,-100.439 L 80.5299,-100.389 L 80.9436,-100.151 L 81.2244,-99.7641 L 81.3237,-99.2968 L 81.2244,-98.8295 L 80.9436,-98.443 L 80.5299,-98.2041 L 80.0547,-98.1542 L 79.6004,-98.3018 M 110.211,-98.3018 L 109.856,-98.6215 L 109.662,-99.0579 L 109.662,-99.5356 L 109.856,-99.9721 L 110.211,-100.292 L 110.665,-100.439 L 111.141,-100.389 L 111.554,-100.151 L 111.835,-99.7641 L 111.934,-99.2968 L 111.835,-98.8295 L 111.554,-98.443 L 111.141,-98.2041 L 110.665,-98.1542 L 110.211,-98.3018 M 82.1832,-96.0959 L 81.8281,-96.4156 L 81.6338,-96.8521 L 81.6338,-97.3298 L 81.8281,-97.7662 L 82.1832,-98.0859 L 82.6375,-98.2335 L 83.1126,-98.1836 L 83.5263,-97.9447 L 83.8071,-97.5582 L 83.9065,-97.0909 L 83.8071,-96.6236 L 83.5263,-96.2371 L 83.1126,-95.9983 L 82.6375,-95.9483 L 82.1832,-96.0959 M 107.628,-96.0959 L 107.273,-96.4156 L 107.079,-96.8521 L 107.079,-97.3298 L 107.273,-97.7662 L 107.628,-98.0859 L 108.083,-98.2335 L 108.558,-98.1836 L 108.972,-97.9447 L 109.252,-97.5582 L 109.352,-97.0909 L 109.252,-96.6236 L 108.972,-96.2371 L 108.558,-95.9983 L 108.083,-95.9483 L 107.628,-96.0959 M 85.0791,-94.3213 L 84.7241,-94.6409 L 84.5298,-95.0774 L 84.5298,-95.5551 L 84.7241,-95.9915 L 85.0791,-96.3112 L 85.5335,-96.4588 L 86.0086,-96.4089 L 86.4223,-96.17 L 86.7031,-95.7835 L 86.8025,-95.3163 L 86.7031,-94.849 L 86.4223,-94.4625 L 86.0086,-94.2236 L 85.5335,-94.1737 L 85.0791,-94.3213 M 104.732,-94.3213 L 104.377,-94.6409 L 104.183,-95.0774 L 104.183,-95.5551 L 104.377,-95.9915 L 104.732,-96.3112 L 105.187,-96.4588 L 105.662,-96.4089 L 106.076,-96.17 L 106.356,-95.7835 L 106.456,-95.3163 L 106.356,-94.849 L 106.076,-94.4625 L 105.662,-94.2236 L 105.187,-94.1737 L 104.732,-94.3213 M 88.2171,-93.0215 L 87.8621,-93.3412 L 87.6678,-93.7776 L 87.6678,-94.2553 L 87.8621,-94.6918 L 88.2171,-95.0114 L 88.6714,-95.159 L 89.1466,-95.1091 L 89.5603,-94.8702 L 89.8411,-94.4837 L 89.9404,-94.0165 L 89.8411,-93.5492 L 89.5603,-93.1627 L 89.1466,-92.9238 L 88.6714,-92.8739 L 88.2171,-93.0215 M 101.594,-93.0215 L 101.239,-93.3412 L 101.045,-93.7776 L 101.045,-94.2554 L 101.239,-94.6917 L 101.594,-95.0114 L 102.049,-95.159 L 102.524,-95.1091 L 102.938,-94.8702 L 103.218,-94.4837 L 103.318,-94.0165 L 103.218,-93.5492 L 102.938,-93.1627 L 102.524,-92.9238 L 102.049,-92.8739 L 101.594,-93.0215 M 91.5198,-92.2286 L 91.1647,-92.5483 L 90.9704,-92.9847 L 90.9704,-93.4624 L 91.1647,-93.8989 L 91.5198,-94.2185 L 91.9741,-94.3661 L 92.4492,-94.3162 L 92.8629,-94.0773 L 93.1438,-93.6909 L 93.2431,-93.2236 L 93.1438,-92.7563 L 92.8629,-92.3698 L 92.4492,-92.1309 L 91.9741,-92.081 L 91.5198,-92.2286 M 98.2918,-92.2286 L 97.9368,-92.5483 L 97.7425,-92.9847 L 97.7425,-93.4624 L 97.9368,-93.8989 L 98.2918,-94.2185 L 98.7461,-94.3661 L 99.2213,-94.3162 L 99.635,-94.0773 L 99.9158,-93.6909 L 100.015,-93.2236 L 99.9158,-92.7563 L 99.635,-92.3698 L 99.2213,-92.1309 L 98.7461,-92.081 L 98.2918,-92.2286 M 94.9058,-91.9621 L 94.5508,-92.2818 L 94.3565,-92.7182 L 94.3565,-93.196 L 94.5508,-93.6324 L 94.9058,-93.952 L 95.3601,-94.0997 L 95.8353,-94.0497 L 96.249,-93.8109 L 96.5298,-93.4244 L 96.6291,-92.9571 L 96.5298,-92.4898 L 96.249,-92.1033 L 95.8353,-91.8644 L 95.3601,-91.8145 L 94.9058,-91.9621" stroke="#0000ff" fill="none" stroke-width="0.1"/><path d="M 95.5945,-131.81 L 95.7038,-131.845 L 95.8033,-131.902 L 95.8888,-131.979 L 95.9563,-132.072 L 96.0031,-132.177 L 96.0269,-132.29 L 96.0269,-133.905 L 96.0031,-134.017 L 95.9563,-134.122 L 95.8888,-134.215 L 95.8033,-134.292 L 95.7038,-134.349 L 95.5945,-134.385 L 95.4802,-134.397 L 95.3659,-134.385 L 95.2566,-134.349 L 95.1571,-134.292 L 95.0717,-134.215 L 95.0042,-134.122 L 94.9574,-134.017 L 94.9335,-133.905 L 94.9335,-132.29 L 94.9574,-132.177 L 95.0042,-132.072 L 95.0717,-131.979 L 95.1571,-131.902 L 95.2566,-131.845 L 95.3659,-131.81 L 95.4802,-131.798 L 95.5945,-131.81 M 45.5044,-94.8194 L 45.6136,-94.8549 L 45.7132,-94.9123 L 45.7986,-94.9892 L 45.8661,-95.0822 L 45.9129,-95.1873 L 45.9368,-95.2996 L 45.9368,-96.9146 L 45.9129,-97.0269 L 45.8661,-97.132 L 45.7986,-97.2249 L 45.7132,-97.3018 L 45.6136,-97.3593 L 45.5044,-97.3948 L 45.3901,-97.4068 L 45.2758,-97.3948 L 45.1665,-97.3593 L 45.067,-97.3018 L 44.9815,-97.2249 L 44.914,-97.1319 L 44.8672,-97.0269 L 44.8434,-96.9146 L 44.8434,-95.2996 L 44.8672,-95.1872 L 44.914,-95.0822 L 44.9815,-94.9892 L 45.067,-94.9123 L 45.1665,-94.8549 L 45.2758,-94.8194 L 45.3901,-94.8073 L 45.5044,-94.8194" stroke="none" fill="#000000" stroke-width="0.5"/><path d="M 89.1451,-11.35 L 97.1451,-11.35 L 97.1451,-8.29999 M 102.695,-8.29999 L 102.695,-13.85 L 99.6451,-13.85 L 99.6451,-21.85 L 102.695,-21.85 L 102.695,-27.4 L 97.1451,-27.4 L 97.1451,-24.35 L 89.1451,-24.35 L 89.1451,-27.4 L 83.5951,-27.4 L 83.5951,-21.85 L 86.6451,-21.85 L 86.6451,-13.85 L 83.5951,-13.85 L 83.5951,-8.29999 M 89.1451,-8.29999 L 89.1451,-11.35 M 92.9151,-15.6623 L 92.4654,-15.7579 L 92.0452,-15.945 L 91.6732,-16.2153 L 91.3654,-16.557 L 91.1355,-16.9553 L 90.9934,-17.3926 L 90.9453,-17.85 L 90.9934,-18.3074 L 91.1355,-18.7447 L 91.3654,-19.1429 L 91.6732,-19.4847 L 92.0452,-19.755 L 92.4654,-19.942 L 92.9151,-20.0377 L 93.375,-20.0377 L 93.8248,-19.942 L 94.245,-19.755 L 94.617,-19.4847 L 94.9247,-19.1429 L 95.1546,-18.7447 L 95.2967,-18.3074 L 95.3448,-17.85 L 95.2967,-17.3926 L 95.1546,-16.9553 L 94.9247,-16.557 L 94.617,-16.2153 L 94.245,-15.945 L 93.8248,-15.7579 L 93.375,-15.6623 L 92.9151,-15.6623" stroke="#0000ff" fill="none" stroke-width="0.1"/><path d="M 84.8171,-31.6 L 101.473,-31.6 L 101.473,-30 L 103.573,-30 L 103.573,-35.1539 L 103.473,-35.7837 L 103.182,-36.3553 L 102.728,-36.809 L 102.157,-37.1003 L 101.527,-37.2 M 84.7631,-37.2 L 84.1334,-37.1003 L 83.5617,-36.809 L 83.1081,-36.3553 L 82.8168,-35.7837 L 82.7171,-35.1539 L 82.7171,-30 L 84.8171,-30 L 84.8171,-31.6" stroke="#0000ff" fill="none" stroke-width="0.1"/></svg>